<?xml version="1.0" encoding="utf-8"?>
<!-- Generator: Adobe Illustrator 21.0.2, SVG Export Plug-In . SVG Version: 6.00 Build 0)  -->
<svg version="1.1" id="Layer_1" xmlns="http://www.w3.org/2000/svg" xmlns:xlink="http://www.w3.org/1999/xlink" x="0px" y="0px"
	 viewBox="0 0 1000 860" style="enable-background:new 0 0 1000 860;" xml:space="preserve">
<style type="text/css">
	.st0{display:none;}
	.st1{display:inline;}
	.st2{fill:#BE1E2D;}
	.st3{display:inline;fill:none;stroke:#BE1E2D;stroke-width:62;stroke-linecap:round;stroke-linejoin:round;stroke-miterlimit:10;}
	.st4{display:inline;fill:#4D4D4D;}
	.st5{font-family:'LemonMilk';}
	.st6{font-size:90px;}
	.st7{fill:#4D4D4D;}
	.st8{fill:#FFFFFF;}
</style>
<g class="st0">
	<g class="st1">
		<g>
			<path class="st2" d="M599.3,500.9c22.3,2.4,41.2,9.2,59.4,15.8c23.2,8.3,45.1,16.2,74.3,16.2c23.4,0,48.9-5.1,78-15.7
				c11.4-4.1,20.7-12.5,24.4-16.2c9.3-18.2,14.6-38.9,14.6-60.8c0-38.5-16.3-73.3-42.3-97.7c-5.7-5.3,49.3-11.1,52.3-25.9
				c-7.5,1.2-83.3,3.9-90.1,0.9c-4.4-1.9-9-3.7-13.7-5.1c-12.7-4-26.2-6.1-40.2-6.1c-74,0-134,60-134,134c0,21.8,5.2,42.3,14.4,60.5
				C597.4,500.7,598.4,500.8,599.3,500.9z M716.1,366.8c40.5,0,73.4,32.9,73.4,73.4s-32.9,73.4-73.4,73.4s-73.4-32.9-73.4-73.4
				C642.7,399.7,675.6,366.8,716.1,366.8z"/>
		</g>
		<g>
			<path class="st2" d="M334.2,555.8c10.2,1.4,20.3,2.2,30.2,2.2c13.2,0,25.3-1.5,36-4.4c10.6-2.9,21.6-6.8,33.1-11.2
				c-39.2-1.5-70.6-33.8-70.6-73.3c0-40.5,32.9-73.4,73.4-73.4c22.8,0,43.2,10.5,56.7,26.8l-105.2,75L509,458.3l58.1-18.8
				c-4.4-19.3-12.9-37-24.6-52.1c-24.5-31.7-62.9-52.2-106.1-52.2c-74,0-134,60-134,134C302.4,502.2,314.4,532.5,334.2,555.8z"/>
		</g>
		<g>
			<path class="st2" d="M870.8,279.3c1.3,0.3,2.3,2.1,2.6,3.3c0.4,1.5-0.1,2.3,0.4,2.8c1,0.9,2.9-0.7,4.2,0.2
				c1.2,0.8,1.5,3.3,0.4,4.6c-1.3,1.6-3.7-0.2-7.4,0.9c-3.4,1-6.7,4.2-6.3,6.8c0.2,1.3,1.2,2.3,1.5,2.6c1.7,1.7,3.2,0.9,4.2,2.2
				c1.3,1.6-2.9,2-1.6,4.5c0.6,1.3,4.8,3,6.6,4.8c2.6,2.6,0.9,3.7,3.2,6.3c1.3,1.4-0.2,4.2,1.5,3.4c1.5-0.8,5.9-4.5,5.5-6.5
				c-0.6-3.3-2.3-4.2-1.7-5.9c0.6-1.8,2.6-1.4,4.2-3.7c1.1-1.6,5.8-9.1,4.8-11c-1.1-2.2-6,0.7-7.6-1.7c-1.8-2.6-2.5-3.3-2.4-3.5
				c0.8-3.1,3.2-3.4,3.1-5.5c-0.1-2.6-4.2-3.5-3.9-5.2s7.3,3.6,11,0.2c1-0.9,3.6-7.3,4.1-9.3c0.7-2.8-5.1-5.1-5.8-6.4
				c-1.4-2.7,6.1-2.2,5.8-4.2c-0.4-2.4-7.5-4.2-8.2-5.2c-0.8-1.2-3.2-0.1-8.1,0c-0.7,0-2.1,0-3.7-0.2c-8.3,5.9-14.4,14.7-16.8,24.9
				c3.1,2.8,3.9,3.8,5.4,3.6C868.1,281.9,868.9,278.9,870.8,279.3z"/>
		</g>
		<g>
			<path class="st2" d="M934.4,285.3c0.1-0.1,1.4-1.8,3.5-2c1.6-0.1,4.2,0.6,6.2,1c-0.9-9.8-5.1-18.6-11.5-25.3
				c-0.3,0-0.5,0-0.8,0.1c-1.9,0.8-1.1,3.3-3.5,4.6c-2.7,1.5-5.1-0.8-7.6,0.9c-1.7,1.1-1.3,2.6-3.1,3.3c-2.1,0.8-3.7-0.9-4.8,0
				c-0.8,0.7-0.8,2.4-0.2,3.5c0.6,1.2,1.8,1.3,1.7,2c0,1.1-3.6,1.1-4.2,2.8c-0.3,1.1,0.5,2.7,1.7,3.3c2.1,1.1,4.2-1.3,5.9-0.2
				c1.5,0.9,0.5,3.2,2,4.2c1.9,1.3,4.8-1.5,5.9-0.4c1,0.9,0.2,4.6-2,5.7c-2.6,1.3-5.1-2.3-8.3-1.1c-2.1,0.8-3.7,3.3-3.3,5
				c0.3,1.3,1.7,1.9,4.4,3.1c4,1.8,1.4,4.2,2.9,5.7c1.8,1.7,0.7,3.5,0.8,4.7c0.4,3.3,6.6,7.4,7.5,8.1c0.8,0.5,0.3-4.7,1.4-6
				c2.1-2.4,3.2-3.5,5.1-5.9c1.7-2.1,3.2-6.3,3.8-8.1c0.6-1.5-6-2.3-6.9-5.9C930.7,286.6,932.9,287.3,934.4,285.3z"/>
		</g>
		<g>
			<path class="st2" d="M905.7,327.3c-2.5,0.6-3.4-1.1-6.6-1.5c-3.9-0.5-8.5,1.4-9.8,3.3c3.9,1.2,8,1.8,12.3,1.8
				c8.6,0,16.5-2.6,23.2-6.9c-1.3-1.8-1.1-3.9-2.2-4.1c-1.3-0.3-1.9,2.6-4.6,3.5c-2.3,0.8-3.1-0.9-5.7-0.4
				C909,323.5,908.9,326.6,905.7,327.3z"/>
		</g>
		<g>
			<path class="st2" d="M899.4,250.1c5-0.1,6.6-1.2,8.1,0c1.8,1.5,0.7,4.6,2.1,5.1c1.1,0.4,1.8-1.4,4.2-2.1c2.7-0.8,3.9,0.6,5.9,0
				c1-0.3,1.9-1,2.7-1.8c-6.2-3.5-13.3-5.5-20.9-5.5c-3.1,0-6.2,0.4-9.1,1c-0.2,0.8-0.2,1.6,0.2,2.1
				C893.5,250.2,896.1,250.1,899.4,250.1z"/>
		</g>
		<g>
			<path class="st2" d="M872.4,476.8l22.6-19.2l-22.6,27.8v55c0,0,0.1,16.7-10.4,32.2c-5.8,8.5-17.4,16-26.6,21.1
				c10.4,5.4,21.1,12,32.1,20.2c7.6,5.6,13.7,12,18.3,19.2c6.8-4.5,16.3-11.2,23.2-18.1c11.9-11.9,26.3-37.6,26.3-55.2
				c0-17.6,0-69.7,0-69.7V359.9h-63v116.9H872.4z"/>
		</g>
		<g>
			<path class="st2" d="M860.3,623.6c-66.4-49.2-118.1-39.4-182.8-43.5c-64.8-4.1-49.2-41.8-49.2-41.8
				c37.9,15.5,63.7,22.9,93.7,22.9c12.9,0,26.6-1.4,42.4-4.1c52.5-9,82-50,82-50s-13.1,14.8-31.2,21.3c-33.1,12-59.6,16.5-82.2,16.5
				c-55.6,0-87.3-26.8-135.1-32c-5.1-0.6-10.2-0.8-15.3-0.8c-42.2,0-84.8,17.8-124.5,33.7c-19,7.7-37.3,14.9-54.5,19.6
				c-6.2,1.7-12.6,2.9-19.1,3.6c-6.6,0.8-13.3,1.1-20.1,1.1c-48.9,0-101.8-18.5-137.1-29.4c-22.5-7-74.1-26.1-39.8,9
				c89.5,91.5,157.1,88.1,195.8,78.9s93.1-44.3,111.8-56.7c20.3-13.5,48.5-27.3,72-32.9c12.5-3,23.6-3.7,31.3-3.7
				c6.8,0,11,0.6,11,0.6s-3.3,13.9-8.2,43.5c-4.3,25.6,17.2,39,42.2,39c3.8,0,7.6-0.3,11.5-0.9c9.2-1.5,18.2-2.1,26.8-2.1
				c31.7,0,59.2,8.2,79.3,12.7c39.7,8.8,65.4,36.4,65.4,65.4S807,748.4,770,767.4c-19,9.7-42.9,16.7-68.6,16.7
				c-24.5,0-50.5-6.4-75.3-22.7c-50.8-33.6-17.6-91.8-6.9-104.1c10.7-12.3,9-43.5-20.5-43.5c-27.5,0-44.8,53.5-47,78.6
				c-0.2,1.8-0.2,3.5-0.2,5c0,1.8,0.1,3.9,0.2,6c1.3,23.6,11.2,64.1,59.4,90.7c19.8,11,48.8,18.2,81.9,18.2
				c35.8,0,76.5-8.4,115.8-29.6C846.3,762.5,926.7,672.8,860.3,623.6z"/>
		</g>
	</g>
	<path class="st3" d="M87.2,620.1c50.8-106,154.7-173.8,193.5-284.7c2.7-7.7,6-24.2,9.4-44.5c14.5-85.8-34.2-169.8-116-199.7l0,0
		c0,0-23.5,160.2-25.1,211.4c-1.4,44.8-0.1,90.4,12.9,133.3c12.6,41.6,44.9,125.7,146.4,159.2"/>
	<text transform="matrix(1 0 0 1 156.033 728.901)" class="st4 st5 st6">designs</text>
</g>
<g class="st0">
	<g class="st1">
		<path class="st2" d="M610.6,502c24.8,2.7,45.9,10.3,66.3,17.6c25.9,9.3,50.3,18,82.9,18c26.1,0,54.6-5.7,87-17.5
			c12.7-4.6,23.1-13.9,27.3-18c10.4-20.3,16.3-43.4,16.3-67.8c0-43-18.2-81.7-47.2-109c-6.3-5.9,55-12.4,58.3-28.8
			c-8.4,1.3-92.9,4.3-100.4,1c-4.9-2.2-10-4.1-15.2-5.7c-14.1-4.4-29.2-6.8-44.8-6.8c-82.5,0-149.4,66.9-149.4,149.4
			c0,24.3,5.8,47.2,16.1,67.4C608.5,501.9,609.6,501.9,610.6,502z M740.9,352.5c45.1,0,81.8,36.7,81.8,81.8s-36.7,81.8-81.8,81.8
			s-81.8-36.7-81.8-81.8C659,389.2,695.7,352.5,740.9,352.5z"/>
		<path class="st2" d="M315,563.3c11.3,1.5,22.7,2.5,33.7,2.5c14.7,0,28.2-1.6,40.1-4.9c11.8-3.2,24.1-7.6,37-12.5
			c-43.7-1.7-78.7-37.7-78.7-81.8c0-45.1,36.7-81.8,81.8-81.8c25.4,0,48.2,11.7,63.2,29.9l-117.3,83.6l135.1-43.8l64.8-21
			c-4.9-21.5-14.3-41.3-27.4-58.1C520,340,477.2,317.2,429,317.2c-82.5,0-149.4,66.9-149.4,149.4C279.5,503.6,292.9,537.3,315,563.3
			z"/>
		<path class="st2" d="M913.4,255c1.5,0.3,2.6,2.3,2.9,3.7c0.5,1.7-0.2,2.5,0.5,3.2c1.1,1,3.2-0.7,4.6,0.2c1.3,0.9,1.7,3.7,0.5,5.1
			c-1.5,1.8-4.2-0.3-8.3,1c-3.8,1.1-7.4,4.6-7.1,7.6c0.2,1.4,1.3,2.5,1.7,2.9c1.9,1.9,3.5,1,4.6,2.4c1.5,1.8-3.2,2.2-1.8,5
			c0.7,1.5,5.3,3.4,7.3,5.3c2.9,2.9,1,4.1,3.5,7c1.4,1.5-0.2,4.7,1.7,3.8c1.7-0.8,6.6-5,6.1-7.2c-0.7-3.7-2.6-4.7-1.9-6.6
			c0.6-2,2.9-1.6,4.6-4.1c1.2-1.8,6.4-10.1,5.3-12.2c-1.3-2.5-6.6,0.8-8.5-1.9c-2-2.9-2.8-3.7-2.7-3.9c0.9-3.4,3.5-3.8,3.4-6.1
			c-0.1-3-4.7-3.9-4.4-5.8c0.3-1.9,8.2,4,12.3,0.3c1.1-1,4-8.1,4.6-10.4c0.8-3.1-5.7-5.7-6.4-7.2c-1.5-3,6.8-2.5,6.5-4.7
			c-0.4-2.7-8.4-4.6-9.2-5.8c-0.9-1.3-3.6-0.1-9,0c-0.8,0-2.3,0-4.1-0.2c-9.3,6.6-16,16.4-18.7,27.8c3.4,3.1,4.3,4.2,6,4
			C910.3,257.9,911.2,254.5,913.4,255z"/>
		<path class="st2" d="M984.2,261.7c0.1-0.1,1.5-2,3.9-2.2c1.8-0.1,4.6,0.7,6.9,1.1c-1-10.9-5.7-20.7-12.8-28.2
			c-0.3,0-0.6,0-0.8,0.1c-2.1,0.9-1.2,3.6-3.9,5.1c-3,1.7-5.6-0.9-8.5,1c-1.9,1.3-1.5,2.9-3.4,3.7c-2.3,0.9-4.1-1.1-5.4,0
			c-0.9,0.8-0.9,2.7-0.2,3.9c0.7,1.4,2,1.5,1.9,2.2c0,1.3-4,1.2-4.6,3.2c-0.4,1.2,0.6,3,1.9,3.7c2.4,1.2,4.7-1.4,6.6-0.2
			c1.6,1,0.6,3.5,2.2,4.6c2.1,1.4,5.3-1.6,6.6-0.5c1.1,1,0.2,5.1-2.2,6.3c-2.9,1.4-5.7-2.5-9.3-1.2c-2.4,0.9-4.2,3.7-3.7,5.6
			c0.4,1.4,1.9,2.1,4.9,3.4c4.5,2,1.5,4.7,3.3,6.4c2,1.9,0.8,3.8,0.9,5.2c0.4,3.7,7.3,8.3,8.3,9c0.9,0.6,0.4-5.3,1.6-6.7
			c2.3-2.7,3.6-3.9,5.7-6.5c1.9-2.4,3.5-7,4.3-9c0.6-1.7-6.7-2.6-7.7-6.5C980.2,263.1,982.6,263.9,984.2,261.7z"/>
		<path class="st2" d="M952.3,308.5c-2.8,0.6-3.7-1.3-7.3-1.7c-4.4-0.5-9.5,1.5-11,3.7c4.3,1.3,8.9,2,13.7,2
			c9.6,0,18.4-2.8,25.9-7.7c-1.5-2-1.2-4.4-2.5-4.6c-1.5-0.3-2.1,2.9-5.1,3.9c-2.6,0.8-3.5-1-6.3-0.5
			C956,304.3,955.8,307.7,952.3,308.5z"/>
		<path class="st2" d="M945.3,222.4c5.6-0.1,7.4-1.3,9,0c2,1.7,0.8,5.1,2.4,5.7c1.2,0.4,2-1.5,4.7-2.4c3-0.9,4.3,0.7,6.6,0
			c1.1-0.3,2.2-1.1,3-2.1c-6.9-3.9-14.8-6.1-23.3-6.1c-3.5,0-6.9,0.4-10.2,1.1c-0.2,0.9-0.2,1.7,0.2,2.4
			C938.7,222.5,941.5,222.4,945.3,222.4z"/>
		<path class="st2" d="M915.1,475.2l25.2-21.4l-25.2,30.9v61.4c0,0,0.1,18.7-11.6,35.9c-6.4,9.4-19.4,17.9-29.6,23.5
			c11.6,6,23.5,13.4,35.8,22.5c8.4,6.2,15.2,13.4,20.4,21.4c7.6-5,18.2-12.5,25.9-20.2c13.2-13.2,29.4-41.9,29.4-61.5s0-77.7,0-77.7
			V344.9h-70.3L915.1,475.2L915.1,475.2z"/>
		<path class="st2" d="M901.7,638.9C827.6,584.1,770,595,697.8,590.5c-72.2-4.6-54.9-46.6-54.9-46.6c42.2,17.3,71,25.6,104.5,25.6
			c14.4,0,29.7-1.5,47.3-4.6c58.5-10.1,91.4-55.8,91.4-55.8s-14.6,16.5-34.7,23.8c-36.9,13.4-66.5,18.4-91.7,18.4
			c-62,0-97.3-29.9-150.6-35.7c-5.7-0.6-11.4-0.9-17.1-0.9c-47,0-94.6,19.8-138.8,37.6c-21.2,8.5-41.6,16.6-60.8,21.8
			c-6.9,1.9-14,3.2-21.3,4.1c-7.3,0.9-14.8,1.3-22.4,1.3c-17.4,0-35.3-2.1-52.9-5.4c-46.4-15.6-82.2-43.3-108.1-83.8
			C227.5,442.6,266,392,288,329.1c2.2-6.3,5.8-18.8,12-55.2C319,161.8,255.3,52.1,148.5,13c-9.8-3.6-20.6-2.6-29.6,2.8
			c-8.9,5.3-15,14.4-16.5,24.7c-1.1,7.4-26.5,181.3-28.3,239.7c-1.5,48.3-0.7,105,15.9,159.8c4.4,14.6,9.4,28.4,15,41.3
			c-35.6,42.1-71.2,86.2-96.5,139.1c-8.2,17.2-1,37.9,16.2,46.1c4.8,2.3,9.9,3.4,14.9,3.4c12.9,0,25.3-7.2,31.2-19.6
			c18.2-38,43.2-71.5,70.8-105c1.3,2,3.1,4.3,5.5,6.9c26.4,32.9,59.1,58.3,97.6,76.1c54.2,27.4,96.7,23.4,125.2,16.7
			c43.2-10.2,103.8-49.4,124.7-63.3c22.7-15.1,54.1-30.4,80.3-36.7c13.9-3.3,26.3-4.1,35-4.1c7.6,0,12.3,0.6,12.3,0.6
			s-3.7,15.5-9.1,48.5c-5.1,28.1,18.9,43,46.7,43c4.2,0,8.5-0.3,12.8-1c10.3-1.6,20.3-2.3,29.9-2.3c35.3,0,66,9.1,88.4,14.1
			c44.2,9.9,73,40.6,73,73S842.3,778,801,799.2c-21.2,10.9-47.9,18.7-76.5,18.7c-27.3,0-56.3-7.1-84-25.4
			c-56.7-37.5-19.6-102.4-7.7-116.1c11.9-13.7,10.1-48.5-22.9-48.5c-30.7,0-49.9,59.6-52.4,87.7c-0.2,2-0.3,3.9-0.3,5.6
			c0,2.1,0.1,4.3,0.2,6.7c1.5,26.3,12.5,71.4,66.2,101.2c22.1,12.2,54.4,20.3,91.4,20.3c40,0,85.4-9.4,129.1-33
			C886.1,793.8,975.7,693.8,901.7,638.9z M143.2,282c1.1-34.6,12.3-122.2,20.8-183.7c51.1,36.3,78.7,99.5,67.8,163.8
			c-5.5,32.4-8.3,41.8-9.1,44c-14.6,41.8-38.7,78-66.6,113.4C142.4,374.3,141.9,324.6,143.2,282z"/>
	</g>
	<g class="st1">
		<path class="st7" d="M139.7,677.5c10.8,0,21.1,3.9,28.8,11.6c14.1,14.1,14.1,41.6,0,55.7c-7.7,7.7-18,11.6-28.8,11.6h-19.5v-78.8
			L139.7,677.5L139.7,677.5z M139.8,740.5c6.5,0,12.4-1.8,17.1-6.4c4.6-4.6,6.4-10.7,6.4-17.2s-1.8-12.5-6.5-17.2
			c-4.6-4.7-10.7-6.5-17.2-6.5H136v47.3L139.8,740.5L139.8,740.5z"/>
		<path class="st7" d="M232.3,677.3v15.8h-31.6V709h23.7v15.8h-23.7v15.8h31.6v15.8h-31.6H185v-79L232.3,677.3L232.3,677.3z"/>
		<path class="st7" d="M263.1,740.7c4.4,0,8-3.6,8-8c0-3.4-1.3-5.5-4-6.5c-5.7-2.1-4.3-1.6-9.9-3.5c-5.8-2-11.2-6-14.8-10.9
			c-2.2-2.9-3.2-6.6-3.2-10.9c0-6.6,2.4-12.2,7.1-16.9c4.7-4.7,10.3-7.1,17-7.1c6.6,0,12.2,2.4,16.9,7.1c4.7,4.7,7.1,10.3,7.1,16.9
			h-15.9c0-4.3-3.6-7.9-7.9-7.9c-4.4,0-8,3.6-8,8c0,2.8,1.1,5,3.4,6.5c4.7,3,4.2,2.5,9.8,4.1c6.1,1.8,11.6,5.5,15.3,10.4
			c2.2,2.8,3.3,6.5,3.3,11c0,6.6-2.4,12.3-7.1,17s-10.3,7.1-16.9,7.1s-12.3-2.4-17-7.1c-4.7-4.7-7.1-10.3-7.1-17h16
			C255.2,737.2,258.8,740.8,263.1,740.7L263.1,740.7z"/>
		<path class="st7" d="M294.4,677.3h15.8v79h-15.8V677.3z"/>
		<path class="st7" d="M356.1,677.1c5.5,0,10.6,1,15.5,3.1s9.1,4.9,12.8,8.5L373.1,700c-4.8-4.7-10.4-7.1-16.9-7.1
			c-6.6,0-12.3,2.4-16.9,7.1c-4.7,4.7-7,10.3-7,16.9c0,6.6,2.4,12.3,7,16.9c4.7,4.7,10.3,7,16.9,7c5.2,0,9.9-1.5,13.9-4.5
			s7-6.8,8.6-11.5h-22.6V709h22.6h9.3h7.3c0.5,2.5,0.8,5.1,0.8,7.9c0,11-3.9,20.4-11.8,28.2c-7.8,7.8-17.2,11.7-28.2,11.7
			s-20.4-3.9-28.2-11.7c-7.8-7.8-11.7-17.2-11.7-28.2s3.9-20.4,11.7-28.2c7.8-7.8,17.2-11.8,28.2-11.8L356.1,677.1z"/>
		<path class="st7" d="M449.2,721v-43.7H465v80.5l-47.4-45.2v43.7h-15.8v-80.5L449.2,721z"/>
		<path class="st7" d="M496.3,740.7c4.4,0,8-3.6,8-8c0-3.4-1.3-5.5-4-6.5c-5.7-2.1-4.3-1.6-9.9-3.5c-5.8-2-11.2-6-14.8-10.9
			c-2.2-2.9-3.2-6.6-3.2-10.9c0-6.6,2.4-12.2,7.1-16.9s10.3-7.1,17-7.1c6.6,0,12.2,2.4,16.9,7.1c4.7,4.7,7.1,10.3,7.1,16.9h-15.9
			c0-4.3-3.6-7.9-7.9-7.9c-4.4,0-8,3.6-8,8c0,2.8,1.1,5,3.4,6.5c4.7,3,4.2,2.5,9.8,4.1c6.1,1.8,11.6,5.5,15.3,10.4
			c2.2,2.8,3.3,6.5,3.3,11c0,6.6-2.4,12.3-7.1,17c-4.7,4.7-10.3,7.1-16.9,7.1s-12.3-2.4-17-7.1c-4.7-4.7-7.1-10.3-7.1-17h16
			C488.4,737.2,491.9,740.8,496.3,740.7L496.3,740.7z"/>
	</g>
</g>
<g>
	<g>
		<path class="st8" d="M610.5,502c24.8,2.7,45.9,10.3,66.3,17.6c25.9,9.3,50.3,18,82.9,18c26.1,0,54.6-5.7,87-17.5
			c12.7-4.6,23.1-13.9,27.3-18c10.4-20.3,16.3-43.4,16.3-67.8c0-43-18.2-81.7-47.2-109c-6.3-5.9,55-12.4,58.3-28.8
			c-8.4,1.3-92.9,4.3-100.4,1c-4.9-2.2-10-4.1-15.2-5.7c-14.1-4.4-29.2-6.8-44.8-6.8c-82.5,0-149.4,66.9-149.4,149.4
			c0,24.3,5.8,47.2,16.1,67.4C608.4,501.9,609.5,501.9,610.5,502z M740.8,352.5c45.1,0,81.8,36.7,81.8,81.8s-36.7,81.8-81.8,81.8
			S659,479.4,659,434.3C658.9,389.2,695.6,352.5,740.8,352.5z"/>
		<path class="st8" d="M314.9,563.3c11.3,1.5,22.7,2.5,33.7,2.5c14.7,0,28.2-1.6,40.1-4.9c11.8-3.2,24.1-7.6,37-12.5
			c-43.7-1.7-78.7-37.7-78.7-81.8c0-45.1,36.7-81.8,81.8-81.8c25.4,0,48.2,11.7,63.2,29.9l-117.3,83.6l135.1-43.8l64.8-21
			c-4.9-21.5-14.3-41.3-27.4-58.1c-27.3-35.4-70.1-58.2-118.3-58.2c-82.5,0-149.4,66.9-149.4,149.4
			C279.4,503.6,292.8,537.3,314.9,563.3z"/>
		<path class="st8" d="M913.3,255c1.5,0.3,2.6,2.3,2.9,3.7c0.5,1.7-0.2,2.5,0.5,3.2c1.1,1,3.2-0.7,4.6,0.2c1.3,0.9,1.7,3.7,0.5,5.1
			c-1.5,1.8-4.2-0.3-8.3,1c-3.8,1.1-7.4,4.6-7.1,7.6c0.2,1.4,1.3,2.5,1.7,2.9c1.9,1.9,3.5,1,4.6,2.4c1.5,1.8-3.2,2.2-1.8,5
			c0.7,1.5,5.3,3.4,7.3,5.3c2.9,2.9,1,4.1,3.5,7c1.4,1.5-0.2,4.7,1.7,3.8c1.7-0.8,6.6-5,6.1-7.2c-0.7-3.7-2.6-4.7-1.9-6.6
			c0.6-2,2.9-1.6,4.6-4.1c1.2-1.8,6.4-10.1,5.3-12.2c-1.3-2.5-6.6,0.8-8.5-1.9c-2-2.9-2.8-3.7-2.7-3.9c0.9-3.4,3.5-3.8,3.4-6.1
			c-0.1-3-4.7-3.9-4.4-5.8c0.3-1.9,8.2,4,12.3,0.3c1.1-1,4-8.1,4.6-10.4c0.8-3.1-5.7-5.7-6.4-7.2c-1.5-3,6.8-2.5,6.5-4.7
			c-0.4-2.7-8.4-4.6-9.2-5.8c-0.9-1.3-3.6-0.1-9,0c-0.8,0-2.3,0-4.1-0.2c-9.3,6.6-16,16.4-18.7,27.8c3.4,3.1,4.3,4.2,6,4
			C910.2,257.9,911.1,254.5,913.3,255z"/>
		<path class="st8" d="M984.1,261.7c0.1-0.1,1.5-2,3.9-2.2c1.8-0.1,4.6,0.7,6.9,1.1c-1-10.9-5.7-20.7-12.8-28.2
			c-0.3,0-0.6,0-0.8,0.1c-2.1,0.9-1.2,3.6-3.9,5.1c-3,1.7-5.6-0.9-8.5,1c-1.9,1.3-1.5,2.9-3.4,3.7c-2.3,0.9-4.1-1.1-5.4,0
			c-0.9,0.8-0.9,2.7-0.2,3.9c0.7,1.4,2,1.5,1.9,2.2c0,1.3-4,1.2-4.6,3.2c-0.4,1.2,0.6,3,1.9,3.7c2.4,1.2,4.7-1.4,6.6-0.2
			c1.6,1,0.6,3.5,2.2,4.6c2.1,1.4,5.3-1.6,6.6-0.5c1.1,1,0.2,5.1-2.2,6.3c-2.9,1.4-5.7-2.5-9.3-1.2c-2.4,0.9-4.2,3.7-3.7,5.6
			c0.4,1.4,1.9,2.1,4.9,3.4c4.5,2,1.5,4.7,3.3,6.4c2,1.9,0.8,3.8,0.9,5.2c0.4,3.7,7.3,8.3,8.3,9c0.9,0.6,0.4-5.3,1.6-6.7
			c2.3-2.7,3.6-3.9,5.7-6.5c1.9-2.4,3.5-7,4.3-9c0.6-1.7-6.7-2.6-7.7-6.5C980.1,263.1,982.5,263.9,984.1,261.7z"/>
		<path class="st8" d="M952.2,308.5c-2.8,0.6-3.7-1.3-7.3-1.7c-4.4-0.5-9.5,1.5-11,3.7c4.3,1.3,8.9,2,13.7,2
			c9.6,0,18.4-2.8,25.9-7.7c-1.5-2-1.2-4.4-2.5-4.6c-1.5-0.3-2.1,2.9-5.1,3.9c-2.6,0.8-3.5-1-6.3-0.5
			C955.9,304.3,955.7,307.7,952.2,308.5z"/>
		<path class="st8" d="M945.2,222.4c5.6-0.1,7.4-1.3,9,0c2,1.7,0.8,5.1,2.4,5.7c1.2,0.4,2-1.5,4.7-2.4c3-0.9,4.3,0.7,6.6,0
			c1.1-0.3,2.2-1.1,3-2.1c-6.9-3.9-14.8-6.1-23.3-6.1c-3.5,0-6.9,0.4-10.2,1.1c-0.2,0.9-0.2,1.7,0.2,2.4
			C938.6,222.5,941.4,222.4,945.2,222.4z"/>
		<path class="st8" d="M915,475.2l25.2-21.4L915,484.7v61.4c0,0,0.1,18.7-11.6,35.9c-6.4,9.4-19.4,17.9-29.6,23.5
			c11.6,6,23.5,13.4,35.8,22.5c8.4,6.2,15.2,13.4,20.4,21.4c7.6-5,18.2-12.5,25.9-20.2c13.2-13.2,29.4-41.9,29.4-61.5s0-77.7,0-77.7
			V344.9H915L915,475.2L915,475.2z"/>
		<path class="st8" d="M901.6,638.9c-74.1-54.8-131.7-43.9-203.9-48.4c-72.2-4.6-54.9-46.6-54.9-46.6c42.2,17.3,71,25.6,104.5,25.6
			c14.4,0,29.7-1.5,47.3-4.6c58.5-10.1,91.4-55.8,91.4-55.8s-14.6,16.5-34.7,23.8c-36.9,13.4-66.5,18.4-91.7,18.4
			c-62,0-97.3-29.9-150.6-35.7c-5.7-0.6-11.4-0.9-17.1-0.9c-47,0-94.6,19.8-138.8,37.6c-21.2,8.5-41.6,16.6-60.8,21.8
			c-6.9,1.9-14,3.2-21.3,4.1c-7.3,0.9-14.8,1.3-22.4,1.3c-17.4,0-35.3-2.1-52.9-5.4c-46.4-15.6-82.2-43.3-108.1-83.8
			c39.8-47.7,78.3-98.3,100.3-161.2c2.2-6.3,5.8-18.8,12-55.2c19-112.1-44.7-221.8-151.5-260.9c-9.8-3.6-20.6-2.6-29.6,2.8
			c-8.9,5.3-15,14.4-16.5,24.7c-1.1,7.4-26.5,181.3-28.3,239.7c-1.5,48.3-0.7,105,15.9,159.8c4.4,14.6,9.4,28.4,15,41.3
			c-35.6,42.1-71.2,86.2-96.5,139.1c-8.2,17.2-1,37.9,16.2,46.1c4.8,2.3,9.9,3.4,14.9,3.4c12.9,0,25.3-7.2,31.2-19.6
			c18.2-38,43.2-71.5,70.8-105c1.3,2,3.1,4.3,5.5,6.9c26.4,32.9,59.1,58.3,97.6,76.1c54.2,27.4,96.7,23.4,125.2,16.7
			c43.2-10.2,103.8-49.4,124.7-63.3c22.7-15.1,54.1-30.4,80.3-36.7c13.9-3.3,26.3-4.1,35-4.1c7.6,0,12.3,0.6,12.3,0.6
			S618.4,557,613,590c-5.1,28.1,18.9,43,46.7,43c4.2,0,8.5-0.3,12.8-1c10.3-1.6,20.3-2.3,29.9-2.3c35.3,0,66,9.1,88.4,14.1
			c44.2,9.9,73,40.6,73,73s-21.6,61.2-62.9,82.4c-21.2,10.9-47.9,18.7-76.5,18.7c-27.3,0-56.3-7.1-84-25.4
			c-56.7-37.5-19.6-102.4-7.7-116.1c11.9-13.7,10.1-48.5-22.9-48.5c-30.7,0-49.9,59.6-52.4,87.7c-0.2,2-0.3,3.9-0.3,5.6
			c0,2.1,0.1,4.3,0.2,6.7c1.5,26.3,12.5,71.4,66.2,101.2c22.1,12.2,54.4,20.3,91.4,20.3c40,0,85.4-9.4,129.1-33
			C886,793.8,975.6,693.8,901.6,638.9z M143.1,282c1.1-34.6,12.3-122.2,20.8-183.7c51.1,36.3,78.7,99.5,67.8,163.8
			c-5.5,32.4-8.3,41.8-9.1,44c-14.6,41.8-38.7,78-66.6,113.4C142.3,374.3,141.8,324.6,143.1,282z"/>
	</g>
	<g>
		<path class="st8" d="M139.6,677.5c10.8,0,21.1,3.9,28.8,11.6c14.1,14.1,14.1,41.6,0,55.7c-7.7,7.7-18,11.6-28.8,11.6h-19.5v-78.8
			L139.6,677.5L139.6,677.5z M139.7,740.5c6.5,0,12.4-1.8,17.1-6.4c4.6-4.6,6.4-10.7,6.4-17.2s-1.8-12.5-6.5-17.2
			c-4.6-4.7-10.7-6.5-17.2-6.5h-3.6v47.3L139.7,740.5L139.7,740.5z"/>
		<path class="st8" d="M232.2,677.3v15.8h-31.6V709h23.7v15.8h-23.7v15.8h31.6v15.8h-31.6h-15.7v-79L232.2,677.3L232.2,677.3z"/>
		<path class="st8" d="M263,740.7c4.4,0,8-3.6,8-8c0-3.4-1.3-5.5-4-6.5c-5.7-2.1-4.3-1.6-9.9-3.5c-5.8-2-11.2-6-14.8-10.9
			c-2.2-2.9-3.2-6.6-3.2-10.9c0-6.6,2.4-12.2,7.1-16.9c4.7-4.7,10.3-7.1,17-7.1c6.6,0,12.2,2.4,16.9,7.1c4.7,4.7,7.1,10.3,7.1,16.9
			h-15.9c0-4.3-3.6-7.9-7.9-7.9c-4.4,0-8,3.6-8,8c0,2.8,1.1,5,3.4,6.5c4.7,3,4.2,2.5,9.8,4.1c6.1,1.8,11.6,5.5,15.3,10.4
			c2.2,2.8,3.3,6.5,3.3,11c0,6.6-2.4,12.3-7.1,17s-10.3,7.1-16.9,7.1s-12.3-2.4-17-7.1c-4.7-4.7-7.1-10.3-7.1-17h16
			C255.1,737.2,258.7,740.8,263,740.7L263,740.7z"/>
		<path class="st8" d="M294.3,677.3h15.8v79h-15.8V677.3z"/>
		<path class="st8" d="M356,677.1c5.5,0,10.6,1,15.5,3.1s9.1,4.9,12.8,8.5L373,700c-4.8-4.7-10.4-7.1-16.9-7.1
			c-6.6,0-12.3,2.4-16.9,7.1c-4.7,4.7-7,10.3-7,16.9c0,6.6,2.4,12.3,7,16.9c4.7,4.7,10.3,7,16.9,7c5.2,0,9.9-1.5,13.9-4.5
			s7-6.8,8.6-11.5H356V709h22.6h9.3h7.3c0.5,2.5,0.8,5.1,0.8,7.9c0,11-3.9,20.4-11.8,28.2c-7.8,7.8-17.2,11.7-28.2,11.7
			s-20.4-3.9-28.2-11.7c-7.8-7.8-11.7-17.2-11.7-28.2s3.9-20.4,11.7-28.2c7.8-7.8,17.2-11.8,28.2-11.8L356,677.1z"/>
		<path class="st8" d="M449.1,721v-43.7h15.8v80.5l-47.4-45.2v43.7h-15.8v-80.5L449.1,721z"/>
		<path class="st8" d="M496.2,740.7c4.4,0,8-3.6,8-8c0-3.4-1.3-5.5-4-6.5c-5.7-2.1-4.3-1.6-9.9-3.5c-5.8-2-11.2-6-14.8-10.9
			c-2.2-2.9-3.2-6.6-3.2-10.9c0-6.6,2.4-12.2,7.1-16.9s10.3-7.1,17-7.1c6.6,0,12.2,2.4,16.9,7.1c4.7,4.7,7.1,10.3,7.1,16.9h-15.9
			c0-4.3-3.6-7.9-7.9-7.9c-4.4,0-8,3.6-8,8c0,2.8,1.1,5,3.4,6.5c4.7,3,4.2,2.5,9.8,4.1c6.1,1.8,11.6,5.5,15.3,10.4
			c2.2,2.8,3.3,6.5,3.3,11c0,6.6-2.4,12.3-7.1,17c-4.7,4.7-10.3,7.1-16.9,7.1s-12.3-2.4-17-7.1c-4.7-4.7-7.1-10.3-7.1-17h16
			C488.3,737.2,491.8,740.8,496.2,740.7L496.2,740.7z"/>
	</g>
</g>
</svg>
