<?xml version="1.0" encoding="utf-8"?>
<!-- Generator: Adobe Illustrator 21.0.2, SVG Export Plug-In . SVG Version: 6.00 Build 0)  -->
<svg version="1.1" id="Layer_1" xmlns="http://www.w3.org/2000/svg" xmlns:xlink="http://www.w3.org/1999/xlink" x="0px" y="0px"
	 viewBox="0 0 1000 1000" style="enable-background:new 0 0 1000 1000;" xml:space="preserve">
<style type="text/css">
	.st0{fill:none;}
	.st1{fill:#231F20;}
	.st2{fill:url(#SVGID_1_);}
	.st3{opacity:0.1;fill:url(#Sticks);enable-background:new    ;}
	.st4{display:none;fill:#DDC7E0;enable-background:new    ;}
	.st5{font-family:'MyriadPro-Regular';}
	.st6{font-size:50px;}
</style>
<pattern  y="1000" width="72" height="72" patternUnits="userSpaceOnUse" id="Sticks" viewBox="29.1 -99.7 72 72" style="overflow:visible;">
	<g>
		<rect x="29.1" y="-99.7" class="st0" width="72" height="72"/>
		<g>
			
				<rect x="104.5" y="-37.8" transform="matrix(0.8908 -0.4544 0.4544 0.8908 21.596 45.2816)" class="st1" width="1" height="31.1"/>
		</g>
		<g>
			
				<rect x="86.5" y="-42.2" transform="matrix(0.5705 -0.8213 0.8213 0.5705 59.3226 60.0239)" class="st1" width="1" height="31.1"/>
			
				<rect x="79.8" y="-15.4" transform="matrix(0.4544 -0.8908 0.8908 0.4544 65.3256 76.8441)" class="st1" width="31.1" height="1"/>
			
				<rect x="92.2" y="-30.7" transform="matrix(0.9125 -0.4091 0.4091 0.9125 14.3017 36.5912)" class="st1" width="1" height="31.1"/>
			
				<rect x="31.5" y="-24.7" transform="matrix(0.9264 -0.3766 0.3766 0.9264 12.5784 15.9528)" class="st1" width="31.1" height="1"/>
			
				<rect x="51.8" y="-34.2" transform="matrix(0.8254 -0.5646 0.5646 0.8254 19.6726 26.2831)" class="st1" width="1" height="31.1"/>
			<rect x="70.3" y="-17" transform="matrix(0.5374 -0.8434 0.8434 0.5374 53.625 64.8027)" class="st1" width="31.1" height="1"/>
			<polygon class="st1" points="51.9,-2.5 66.1,-30.2 65.1,-30.7 51,-3 			"/>
			
				<rect x="32.5" y="-37.8" transform="matrix(0.8908 -0.4544 0.4544 0.8908 13.7321 12.5622)" class="st1" width="1" height="31.1"/>
			
				<rect x="65.3" y="-35.4" transform="matrix(0.9794 -0.2019 0.2019 0.9794 5.3725 12.8848)" class="st1" width="1" height="31.1"/>
			
				<rect x="59.4" y="-36.4" transform="matrix(0.4864 -0.8737 0.8737 0.4864 48.9883 41.5937)" class="st1" width="1" height="31.1"/>
			
				<rect x="20.2" y="-20.1" transform="matrix(0.1922 -0.9814 0.9814 0.1922 48.0522 19.3017)" class="st1" width="31.1" height="1"/>
			<rect x="44.5" y="-30.8" transform="matrix(0.9762 -0.2171 0.2171 0.9762 4.3909 9.4032)" class="st1" width="1" height="31.1"/>
		</g>
		<g>
			
				<rect x="7.8" y="-15.4" transform="matrix(0.4544 -0.8908 0.8908 0.4544 26.0413 12.7061)" class="st1" width="31.1" height="1"/>
		</g>
		<g>
			
				<rect x="95.9" y="-83.2" transform="matrix(0.9884 -0.1517 0.1517 0.9884 13.8341 15.9503)" class="st1" width="31.1" height="1"/>
			
				<rect x="104.4" y="-74.4" transform="matrix(0.9292 -0.3695 0.3695 0.9292 29.1863 34.5808)" class="st1" width="1" height="31.1"/>
			<rect x="95.8" y="-51" transform="matrix(0.9863 -0.1648 0.1648 0.9863 9.8383 17.663)" class="st1" width="31.1" height="1"/>
			<rect x="95.3" y="-33" transform="matrix(0.9171 -0.3987 0.3987 0.9171 22.1268 41.5021)" class="st1" width="31.1" height="1"/>
			
				<rect x="109.5" y="-108.6" transform="matrix(0.2736 -0.9618 0.9618 0.2736 169.4441 38.2364)" class="st1" width="1" height="31.1"/>
			
				<rect x="104.5" y="-109.8" transform="matrix(0.8908 -0.4544 0.4544 0.8908 54.3154 37.4177)" class="st1" width="1" height="31.1"/>
			
				<rect x="107.9" y="-53.4" transform="matrix(0.4864 -0.8737 0.8737 0.4864 88.7499 75.2385)" class="st1" width="1" height="31.1"/>
			
				<rect x="102.5" y="-86.3" transform="matrix(0.9717 -0.2364 0.2364 0.9717 19.6529 22.3428)" class="st1" width="1" height="31.1"/>
		</g>
		<g>
			<rect x="23.9" y="-83.2" transform="matrix(0.9884 -0.1517 0.1517 0.9884 13.0007 5.027)" class="st1" width="31.1" height="1"/>
			
				<rect x="73.1" y="-94.5" transform="matrix(0.9884 -0.1517 0.1517 0.9884 15.2814 12.3552)" class="st1" width="31.1" height="1"/>
			
				<rect x="86.5" y="-114.2" transform="matrix(0.5705 -0.8213 0.8213 0.5705 118.4574 29.0979)" class="st1" width="1" height="31.1"/>
			
				<rect x="30.9" y="-58.9" transform="matrix(0.8838 -0.4678 0.4678 0.8838 32.6883 14.9602)" class="st1" width="31.1" height="1"/>
			
				<rect x="75.4" y="-53.8" transform="matrix(0.8852 -0.4652 0.4652 0.8852 35.2136 36.1911)" class="st1" width="31.1" height="1"/>
			
				<rect x="79.8" y="-87.4" transform="matrix(0.4544 -0.8908 0.8908 0.4544 129.4636 37.5598)" class="st1" width="31.1" height="1"/>
			
				<rect x="74.6" y="-79.7" transform="matrix(0.8883 -0.4593 0.4593 0.8883 37.8674 27.3197)" class="st1" width="1" height="31.1"/>
			
				<rect x="94.3" y="-90.6" transform="matrix(0.9125 -0.4092 0.4092 0.9125 39.0094 32.2377)" class="st1" width="1" height="31.1"/>
			<polygon class="st1" points="58.5,-54.8 45.8,-26.4 44.9,-26.8 57.6,-55.2 			"/>
			
				<rect x="92.2" y="-102.7" transform="matrix(0.9125 -0.4091 0.4091 0.9125 43.7569 30.2905)" class="st1" width="1" height="31.1"/>
			<rect x="63.7" y="-49.8" transform="matrix(0.421 -0.9071 0.9071 0.421 90.6504 43.354)" class="st1" width="31.1" height="1"/>
			
				<rect x="29.3" y="-30.9" transform="matrix(0.6585 -0.7526 0.7526 0.6585 38.202 23.3804)" class="st1" width="31.1" height="1"/>
			
				<rect x="59.3" y="-40.7" transform="matrix(0.6525 -0.7578 0.7578 0.6525 56.4936 42.782)" class="st1" width="31.1" height="1"/>
			<rect x="37" y="-67" transform="matrix(0.9919 -0.1268 0.1268 0.9919 6.8235 4.3402)" class="st1" width="1" height="31.1"/>
			
				<rect x="43.5" y="-67.1" transform="matrix(0.3661 -0.9306 0.9306 0.3661 99.4057 12.7287)" class="st1" width="31.1" height="1"/>
			<rect x="29.4" y="-66.3" transform="matrix(0.7366 -0.6763 0.6763 0.7366 56.328 13.095)" class="st1" width="31.1" height="1"/>
			
				<rect x="31.6" y="-45.7" transform="matrix(0.5092 -0.8606 0.8606 0.5092 61.9985 18.3928)" class="st1" width="31.1" height="1"/>
			
				<rect x="32.4" y="-74.4" transform="matrix(0.9292 -0.3695 0.3695 0.9292 24.0909 7.9769)" class="st1" width="1" height="31.1"/>
			<rect x="32" y="-78.2" transform="matrix(0.5434 -0.8394 0.8394 0.5434 86.9454 4.4665)" class="st1" width="31.1" height="1"/>
			<polygon class="st1" points="83.3,-70.9 112.4,-60.1 112.1,-59.1 82.9,-69.9 			"/>
			
				<rect x="31.5" y="-96.7" transform="matrix(0.9264 -0.3766 0.3766 0.9264 39.6932 10.652)" class="st1" width="31.1" height="1"/>
			
				<rect x="82.1" y="-62.1" transform="matrix(0.3991 -0.9169 0.9169 0.3991 92.3786 47.7778)" class="st1" width="1" height="31.1"/>
			
				<rect x="74.3" y="-75.7" transform="matrix(0.9264 -0.3766 0.3766 0.9264 34.9321 28.2975)" class="st1" width="31.1" height="1"/>
			
				<rect x="51.8" y="-106.2" transform="matrix(0.8254 -0.5646 0.5646 0.8254 60.3241 13.7091)" class="st1" width="1" height="31.1"/>
			
				<rect x="71.7" y="-63.5" transform="matrix(0.9727 -0.2322 0.2322 0.9727 17.0087 18.5396)" class="st1" width="31.1" height="1"/>
			<rect x="23.8" y="-51" transform="matrix(0.9863 -0.1648 0.1648 0.9863 8.8534 5.7947)" class="st1" width="31.1" height="1"/>
			<rect x="23.3" y="-33" transform="matrix(0.9171 -0.3987 0.3987 0.9171 16.1565 12.7955)" class="st1" width="31.1" height="1"/>
			
				<rect x="66.7" y="-84.1" transform="matrix(0.8426 -0.5385 0.5385 0.8426 57.9442 31.1652)" class="st1" width="31.1" height="1"/>
			<polygon class="st1" points="58.3,-58.6 87.1,-46.9 86.7,-46 57.9,-57.7 			"/>
			<polygon class="st1" points="78.5,-30.6 99.2,-53.8 100,-53.1 79.3,-29.9 			"/>
			
				<rect x="37.5" y="-108.6" transform="matrix(0.2736 -0.9618 0.9618 0.2736 117.1451 -31.0158)" class="st1" width="1" height="31.1"/>
			
				<rect x="79.3" y="-52.6" transform="matrix(0.2736 -0.9618 0.9618 0.2736 93.6084 49.8178)" class="st1" width="1" height="31.1"/>
			<rect x="60" y="-95.4" transform="matrix(0.2736 -0.9618 0.9618 0.2736 120.7442 0.25)" class="st1" width="1" height="31.1"/>
			
				<rect x="49.6" y="-37.1" transform="matrix(0.8585 -0.5128 0.5128 0.8585 27.9589 28.2438)" class="st1" width="31.1" height="1"/>
			<rect x="61.1" y="-77.7" transform="matrix(0.146 -0.9893 0.9893 0.146 114.1128 7.8287)" class="st1" width="1" height="31.1"/>
			
				<rect x="49.7" y="-37.7" transform="matrix(0.2214 -0.9752 0.9752 0.2214 87.0437 34.6629)" class="st1" width="31.1" height="1"/>
			
				<rect x="68.8" y="-70.7" transform="matrix(0.1138 -0.9935 0.9935 0.1138 144.5476 21.5935)" class="st1" width="31.1" height="1"/>
			
				<rect x="47.8" y="-73.3" transform="matrix(0.5374 -0.8434 0.8434 0.5374 90.6472 19.7241)" class="st1" width="31.1" height="1"/>
			
				<rect x="70.3" y="-89" transform="matrix(0.5374 -0.8434 0.8434 0.5374 114.3464 31.4927)" class="st1" width="31.1" height="1"/>
			<polygon class="st1" points="51.9,-74.5 66.1,-102.2 65.1,-102.7 51,-75 			"/>
			
				<rect x="32.5" y="-109.8" transform="matrix(0.8908 -0.4544 0.4544 0.8908 46.4515 4.6983)" class="st1" width="1" height="31.1"/>
			<rect x="82" y="-38.9" transform="matrix(0.4593 -0.8883 0.8883 0.4593 86.859 65.8522)" class="st1" width="31.1" height="1"/>
			
				<rect x="65.3" y="-107.4" transform="matrix(0.9794 -0.2019 0.2019 0.9794 19.9059 11.4028)" class="st1" width="1" height="31.1"/>
			
				<rect x="71.1" y="-91.2" transform="matrix(0.3766 -0.9264 0.9264 0.3766 114.7255 19.1562)" class="st1" width="1" height="31.1"/>
			<rect x="95.2" y="-57" transform="matrix(0.9935 -0.1138 0.1138 0.9935 5.3433 10.6277)" class="st1" width="1" height="31.1"/>
			
				<rect x="41.8" y="-69.1" transform="matrix(0.6655 -0.7464 0.7464 0.6655 54.1131 13.6843)" class="st1" width="1" height="31.1"/>
			<rect x="63.1" y="-56.3" transform="matrix(0.6656 -0.7463 0.7463 0.6656 51.72 33.8311)" class="st1" width="1" height="31.1"/>
			
				<rect x="35.9" y="-53.4" transform="matrix(0.4864 -0.8737 0.8737 0.4864 51.7726 12.3305)" class="st1" width="1" height="31.1"/>
			
				<rect x="34.2" y="-37.1" transform="matrix(0.8852 -0.4651 0.4651 0.8852 22.7267 18.9509)" class="st1" width="31.1" height="1"/>
			<rect x="88.8" y="-49" transform="matrix(0.4864 -0.8737 0.8737 0.4864 75.1522 60.8741)" class="st1" width="1" height="31.1"/>
			
				<rect x="59.4" y="-108.4" transform="matrix(0.4864 -0.8737 0.8737 0.4864 111.8962 4.6164)" class="st1" width="1" height="31.1"/>
			
				<rect x="20.2" y="-92.1" transform="matrix(0.1922 -0.9814 0.9814 0.1922 118.7103 -38.8625)" class="st1" width="31.1" height="1"/>
			<rect x="76.8" y="-98.6" transform="matrix(0.9762 -0.217 0.217 0.9762 19.8781 14.8051)" class="st1" width="1" height="31.1"/>
			
				<rect x="45.4" y="-71.2" transform="matrix(0.9762 -0.2171 0.2171 0.9762 13.1673 8.6315)" class="st1" width="1" height="31.1"/>
			
				<rect x="44.5" y="-102.8" transform="matrix(0.9762 -0.2171 0.2171 0.9762 20.0191 7.6866)" class="st1" width="1" height="31.1"/>
			
				<rect x="69.5" y="-94.6" transform="matrix(0.9762 -0.2171 0.2171 0.9762 18.8244 13.3097)" class="st1" width="1" height="31.1"/>
			
				<rect x="84.2" y="-71.6" transform="matrix(0.6655 -0.7464 0.7464 0.6655 70.1615 44.4886)" class="st1" width="1" height="31.1"/>
			<rect x="43" y="-103.7" transform="matrix(0.6656 -0.7463 0.7463 0.6656 80.3525 3.0083)" class="st1" width="1" height="31.1"/>
			
				<rect x="30.5" y="-86.3" transform="matrix(0.9717 -0.2364 0.2364 0.9717 17.6122 5.3223)" class="st1" width="1" height="31.1"/>
		</g>
		<g>
			<rect x="1.1" y="-94.5" transform="matrix(0.9884 -0.1517 0.1517 0.9884 14.4479 1.4319)" class="st1" width="31.1" height="1"/>
			<rect x="3.4" y="-53.8" transform="matrix(0.8852 -0.4652 0.4652 0.8852 26.9487 2.6974)" class="st1" width="31.1" height="1"/>
			
				<rect x="7.8" y="-87.4" transform="matrix(0.4544 -0.8908 0.8908 0.4544 90.1793 -26.5782)" class="st1" width="31.1" height="1"/>
			<rect x="22.3" y="-90.6" transform="matrix(0.9125 -0.4092 0.4092 0.9125 32.707 2.7789)" class="st1" width="1" height="31.1"/>
			<polygon class="st1" points="11.3,-70.9 40.4,-60.1 40.1,-59.1 10.9,-69.9 			"/>
			<rect x="2.3" y="-75.7" transform="matrix(0.9264 -0.3766 0.3766 0.9264 29.6313 1.1826)" class="st1" width="31.1" height="1"/>
			<rect x="-0.3" y="-63.5" transform="matrix(0.9727 -0.2322 0.2322 0.9727 15.04 1.8176)" class="st1" width="31.1" height="1"/>
			<rect x="10" y="-38.9" transform="matrix(0.4593 -0.8883 0.8883 0.4593 47.9309 1.8972)" class="st1" width="31.1" height="1"/>
			<rect x="16.8" y="-49" transform="matrix(0.4864 -0.8737 0.8737 0.4864 38.175 -2.0339)" class="st1" width="1" height="31.1"/>
		</g>
		<g>
			
				<rect x="95.3" y="-105" transform="matrix(0.9171 -0.3987 0.3987 0.9171 50.8335 35.5319)" class="st1" width="31.1" height="1"/>
		</g>
		<g>
			<polygon class="st1" points="58.5,-126.8 45.8,-98.4 44.9,-98.8 57.6,-127.2 			"/>
			
				<rect x="29.3" y="-102.9" transform="matrix(0.6585 -0.7526 0.7526 0.6585 92.3865 -1.2061)" class="st1" width="31.1" height="1"/>
			<rect x="23.3" y="-105" transform="matrix(0.9171 -0.3987 0.3987 0.9171 44.8632 6.8252)" class="st1" width="31.1" height="1"/>
			
				<rect x="49.7" y="-109.7" transform="matrix(0.2214 -0.9752 0.9752 0.2214 157.2574 -21.3984)" class="st1" width="31.1" height="1"/>
			
				<rect x="82" y="-110.9" transform="matrix(0.4593 -0.8883 0.8883 0.4593 150.814 26.9242)" class="st1" width="31.1" height="1"/>
			<rect x="95.2" y="-129" transform="matrix(0.9935 -0.1138 0.1138 0.9935 13.539 10.1597)" class="st1" width="1" height="31.1"/>
			
				<rect x="88.8" y="-121" transform="matrix(0.4864 -0.8737 0.8737 0.4864 138.0601 23.8968)" class="st1" width="1" height="31.1"/>
		</g>
		<g>
			
				<rect x="10" y="-110.9" transform="matrix(0.4593 -0.8883 0.8883 0.4593 111.8859 -37.0308)" class="st1" width="31.1" height="1"/>
			
				<rect x="16.8" y="-121" transform="matrix(0.4864 -0.8737 0.8737 0.4864 101.0829 -39.0111)" class="st1" width="1" height="31.1"/>
		</g>
	</g>
</pattern>
<radialGradient id="SVGID_1_" cx="654.1667" cy="681.25" r="1014.9809" gradientTransform="matrix(1 0 0 -1 0 1000)" gradientUnits="userSpaceOnUse">
	<stop  offset="0" style="stop-color:#FF1070"/>
	<stop  offset="0.5068" style="stop-color:#781F81"/>
	<stop  offset="1" style="stop-color:#662D91"/>
</radialGradient>
<rect class="st2" width="1000" height="1000"/>
<rect class="st3" width="1000" height="1000"/>
<text transform="matrix(1 0 0 1 213.605 545.0879)" class="st4 st5 st6">kjjchlcdkhclckhcldhklkhdcdcd</text>
</svg>
