<?xml version="1.0" encoding="utf-8"?>
<!-- Generator: Adobe Illustrator 21.0.2, SVG Export Plug-In . SVG Version: 6.00 Build 0)  -->
<svg version="1.1" id="Layer_1" xmlns="http://www.w3.org/2000/svg" xmlns:xlink="http://www.w3.org/1999/xlink" x="0px" y="0px"
	 viewBox="0 0 1000 500" style="enable-background:new 0 0 1000 500;" xml:space="preserve">
<style type="text/css">
	.st0{fill:none;}
	.st1{fill:#231F20;}
	.st2{fill:#BA365D;}
	.st3{opacity:0.1;fill:url(#SVGID_1_);enable-background:new    ;}
	.st4{display:none;fill:#DDC7E0;enable-background:new    ;}
	.st5{font-family:'MyriadPro-Regular';}
	.st6{font-size:50px;}
</style>
<pattern  y="750" width="72" height="72" patternUnits="userSpaceOnUse" id="Sticks" viewBox="29.1 -101.2 72 72" style="overflow:visible;">
	<g>
		<rect x="29.1" y="-101.2" class="st0" width="72" height="72"/>
		<g>
			<rect x="29.1" y="-101.2" class="st0" width="72" height="72"/>
			<g>
				
					<rect x="104.5" y="-122.2" transform="matrix(0.8908 -0.4544 0.4544 0.8908 59.9517 36.0675)" class="st1" width="1" height="31.1"/>
			</g>
			<g>
				
					<rect x="86.6" y="-117.9" transform="matrix(0.5705 -0.8213 0.8213 0.5705 121.4267 27.5613)" class="st1" width="1" height="31.1"/>
				
					<rect x="79.8" y="-114.6" transform="matrix(0.4544 -0.8908 0.8908 0.4544 153.6642 22.716)" class="st1" width="31.1" height="1"/>
				
					<rect x="92.2" y="-129.3" transform="matrix(0.9125 -0.4091 0.4091 0.9125 54.6632 27.9609)" class="st1" width="1" height="31.1"/>
				
					<rect x="31.5" y="-105.3" transform="matrix(0.9264 -0.3766 0.3766 0.9264 42.9171 10.0052)" class="st1" width="31.1" height="1"/>
				
					<rect x="51.8" y="-125.9" transform="matrix(0.8254 -0.5646 0.5646 0.8254 71.4135 10.2693)" class="st1" width="1" height="31.1"/>
				
					<rect x="70.3" y="-113" transform="matrix(0.5374 -0.8433 0.8433 0.5374 134.572 20.3575)" class="st1" width="31.1" height="1"/>
				<polygon class="st1" points="51.9,-126.4 66.1,-98.7 65.1,-98.2 51,-125.9 				"/>
				
					<rect x="32.5" y="-122.2" transform="matrix(0.8908 -0.4544 0.4544 0.8908 52.0878 3.3504)" class="st1" width="1" height="31.1"/>
				
					<rect x="65.3" y="-124.7" transform="matrix(0.9794 -0.2019 0.2019 0.9794 23.3843 11.0393)" class="st1" width="1" height="31.1"/>
				
					<rect x="59.4" y="-123.6" transform="matrix(0.4864 -0.8737 0.8737 0.4864 125.1866 -3.1622)" class="st1" width="1" height="31.1"/>
				
					<rect x="20.1" y="-109.9" transform="matrix(0.1922 -0.9814 0.9814 0.1922 136.1856 -53.3542)" class="st1" width="31.1" height="1"/>
				
					<rect x="44.5" y="-129.2" transform="matrix(0.9762 -0.2171 0.2171 0.9762 25.7555 7.0588)" class="st1" width="1" height="31.1"/>
			</g>
			<g>
				
					<rect x="7.8" y="-114.6" transform="matrix(0.4544 -0.8908 0.8908 0.4544 114.38 -41.4222)" class="st1" width="31.1" height="1"/>
			</g>
			<g>
				
					<rect x="95.9" y="-46.8" transform="matrix(0.9884 -0.1517 0.1517 0.9884 8.3065 16.3709)" class="st1" width="31.1" height="1"/>
				
					<rect x="104.4" y="-85.6" transform="matrix(0.9292 -0.3695 0.3695 0.9292 33.3225 33.8054)" class="st1" width="1" height="31.1"/>
				
					<rect x="95.8" y="-79" transform="matrix(0.9863 -0.1648 0.1648 0.9863 14.4519 17.2761)" class="st1" width="31.1" height="1"/>
				
					<rect x="95.3" y="-96.9" transform="matrix(0.9171 -0.3987 0.3987 0.9171 47.6431 36.1884)" class="st1" width="31.1" height="1"/>
				
					<rect x="109.5" y="-51.5" transform="matrix(0.2736 -0.9618 0.9618 0.2736 114.4908 79.7434)" class="st1" width="1" height="31.1"/>
				
					<rect x="104.5" y="-50.2" transform="matrix(0.8908 -0.4544 0.4544 0.8908 27.2346 43.9314)" class="st1" width="1" height="31.1"/>
				
					<rect x="107.9" y="-106.6" transform="matrix(0.4864 -0.8737 0.8737 0.4864 135.243 47.943)" class="st1" width="1" height="31.1"/>
				
					<rect x="102.5" y="-73.7" transform="matrix(0.9717 -0.2364 0.2364 0.9717 16.6762 22.701)" class="st1" width="1" height="31.1"/>
			</g>
			<g>
				<rect x="23.9" y="-46.8" transform="matrix(0.9884 -0.1517 0.1517 0.9884 7.473 5.4485)" class="st1" width="31.1" height="1"/>
				
					<rect x="73.1" y="-35.4" transform="matrix(0.9884 -0.1517 0.1517 0.9884 6.3275 13.0425)" class="st1" width="31.1" height="1"/>
				
					<rect x="86.6" y="-45.9" transform="matrix(0.5705 -0.8213 0.8213 0.5705 62.2921 58.4873)" class="st1" width="1" height="31.1"/>
				
					<rect x="30.9" y="-71.1" transform="matrix(0.8838 -0.4678 0.4678 0.8838 38.4044 13.517)" class="st1" width="31.1" height="1"/>
				
					<rect x="75.4" y="-76.1" transform="matrix(0.8852 -0.4652 0.4652 0.8852 45.6299 33.6138)" class="st1" width="31.1" height="1"/>
				
					<rect x="79.8" y="-42.6" transform="matrix(0.4544 -0.8908 0.8908 0.4544 89.5259 62.0002)" class="st1" width="31.1" height="1"/>
				
					<rect x="74.6" y="-80.3" transform="matrix(0.8883 -0.4593 0.4593 0.8883 38.1491 27.2598)" class="st1" width="1" height="31.1"/>
				
					<rect x="94.3" y="-69.5" transform="matrix(0.9125 -0.4092 0.4092 0.9125 30.359 34.0706)" class="st1" width="1" height="31.1"/>
				<polygon class="st1" points="58.5,-74.1 45.8,-102.5 44.9,-102.1 57.6,-73.7 				"/>
				
					<rect x="92.2" y="-57.3" transform="matrix(0.9125 -0.4091 0.4091 0.9125 25.208 34.2616)" class="st1" width="1" height="31.1"/>
				
					<rect x="63.7" y="-80.2" transform="matrix(0.421 -0.9071 0.9071 0.421 118.1681 25.7979)" class="st1" width="31.1" height="1"/>
				
					<rect x="29.3" y="-99.1" transform="matrix(0.6585 -0.7526 0.7526 0.6585 89.4909 9.778416e-02)" class="st1" width="31.1" height="1"/>
				
					<rect x="59.3" y="-89.3" transform="matrix(0.6525 -0.7578 0.7578 0.6525 93.293 25.8817)" class="st1" width="31.1" height="1"/>
				<rect x="37" y="-93.1" transform="matrix(0.9919 -0.1268 0.1268 0.9919 10.1301 4.1286)" class="st1" width="1" height="31.1"/>
				
					<rect x="43.5" y="-62.8" transform="matrix(0.3661 -0.9306 0.9306 0.3661 95.4434 15.4234)" class="st1" width="31.1" height="1"/>
				
					<rect x="29.4" y="-63.7" transform="matrix(0.7366 -0.6763 0.6763 0.7366 54.562 13.7498)" class="st1" width="31.1" height="1"/>
				
					<rect x="31.6" y="-84.2" transform="matrix(0.5092 -0.8606 0.8606 0.5092 95.1954 -0.5623)" class="st1" width="31.1" height="1"/>
				
					<rect x="32.4" y="-85.6" transform="matrix(0.9292 -0.3695 0.3695 0.9292 28.227 7.2015)" class="st1" width="1" height="31.1"/>
				
					<rect x="32" y="-51.8" transform="matrix(0.5434 -0.8395 0.8395 0.5434 64.7612 16.5109)" class="st1" width="31.1" height="1"/>
				<polygon class="st1" points="83.3,-58 112.4,-68.8 112.1,-69.8 82.9,-59 				"/>
				
					<rect x="31.5" y="-33.3" transform="matrix(0.9264 -0.3766 0.3766 0.9264 15.8018 15.3058)" class="st1" width="31.1" height="1"/>
				
					<rect x="82.2" y="-98" transform="matrix(0.3991 -0.9169 0.9169 0.3991 125.2347 26.2688)" class="st1" width="1" height="31.1"/>
				
					<rect x="74.3" y="-54.2" transform="matrix(0.9264 -0.3766 0.3766 0.9264 26.854 29.8783)" class="st1" width="31.1" height="1"/>
				
					<rect x="51.8" y="-53.9" transform="matrix(0.8254 -0.5646 0.5646 0.8254 30.762 22.8429)" class="st1" width="1" height="31.1"/>
				
					<rect x="71.7" y="-66.4" transform="matrix(0.9727 -0.2322 0.2322 0.9727 17.6974 18.4552)" class="st1" width="31.1" height="1"/>
				<rect x="23.8" y="-79" transform="matrix(0.9863 -0.1648 0.1648 0.9863 13.467 5.4104)" class="st1" width="31.1" height="1"/>
				
					<rect x="23.3" y="-96.9" transform="matrix(0.9171 -0.3987 0.3987 0.9171 41.673 7.4819)" class="st1" width="31.1" height="1"/>
				
					<rect x="66.7" y="-45.9" transform="matrix(0.8426 -0.5385 0.5385 0.8426 37.3794 37.1374)" class="st1" width="31.1" height="1"/>
				<polygon class="st1" points="58.3,-70.3 87.1,-82 86.7,-82.9 57.9,-71.2 				"/>
				<polygon class="st1" points="78.5,-98.3 99.2,-75.1 100,-75.8 79.3,-99 				"/>
				
					<rect x="37.5" y="-51.5" transform="matrix(0.2736 -0.9618 0.9618 0.2736 62.1897 10.4945)" class="st1" width="1" height="31.1"/>
				
					<rect x="79.3" y="-107.4" transform="matrix(0.2736 -0.9618 0.9618 0.2736 146.3409 10.0186)" class="st1" width="1" height="31.1"/>
				
					<rect x="60" y="-64.7" transform="matrix(0.2736 -0.9618 0.9618 0.2736 91.2294 22.4736)" class="st1" width="1" height="31.1"/>
				
					<rect x="49.6" y="-92.9" transform="matrix(0.8585 -0.5128 0.5128 0.8585 56.578 20.324)" class="st1" width="31.1" height="1"/>
				
					<rect x="61.1" y="-82.3" transform="matrix(0.146 -0.9893 0.9893 0.146 118.6697 3.9417)" class="st1" width="1" height="31.1"/>
				
					<rect x="49.7" y="-92.2" transform="matrix(0.2214 -0.9752 0.9752 0.2214 140.2397 -7.8416)" class="st1" width="31.1" height="1"/>
				
					<rect x="68.8" y="-59.3" transform="matrix(0.1138 -0.9935 0.9935 0.1138 133.1655 31.7848)" class="st1" width="31.1" height="1"/>
				
					<rect x="47.7" y="-56.6" transform="matrix(0.5374 -0.8433 0.8433 0.5374 76.6092 27.4107)" class="st1" width="31.1" height="1"/>
				<rect x="70.3" y="-41" transform="matrix(0.5374 -0.8433 0.8433 0.5374 73.847 53.6655)" class="st1" width="31.1" height="1"/>
				<polygon class="st1" points="51.9,-54.4 66.1,-26.7 65.1,-26.2 51,-53.9 				"/>
				
					<rect x="32.5" y="-50.2" transform="matrix(0.8908 -0.4544 0.4544 0.8908 19.3707 11.2143)" class="st1" width="1" height="31.1"/>
				<rect x="82" y="-91" transform="matrix(0.4593 -0.8883 0.8883 0.4593 133.1451 37.7119)" class="st1" width="31.1" height="1"/>
				
					<rect x="65.3" y="-52.7" transform="matrix(0.9794 -0.2019 0.2019 0.9794 8.8475 12.5214)" class="st1" width="1" height="31.1"/>
				
					<rect x="71.1" y="-68.8" transform="matrix(0.3766 -0.9264 0.9264 0.3766 94.0014 33.1142)" class="st1" width="1" height="31.1"/>
				
					<rect x="95.2" y="-103.1" transform="matrix(0.9935 -0.1138 0.1138 0.9935 10.5799 10.3223)" class="st1" width="1" height="31.1"/>
				<rect x="41.8" y="-91" transform="matrix(0.6655 -0.7464 0.7464 0.6655 70.4422 6.3364)" class="st1" width="1" height="31.1"/>
				
					<rect x="63.1" y="-103.7" transform="matrix(0.6656 -0.7463 0.7463 0.6656 87.0985 18.0013)" class="st1" width="1" height="31.1"/>
				
					<rect x="35.9" y="-106.6" transform="matrix(0.4864 -0.8737 0.8737 0.4864 98.2645 -14.9629)" class="st1" width="1" height="31.1"/>
				
					<rect x="34.2" y="-92.9" transform="matrix(0.8852 -0.4651 0.4651 0.8852 48.6681 12.5358)" class="st1" width="31.1" height="1"/>
				
					<rect x="88.9" y="-111.1" transform="matrix(0.4864 -0.8737 0.8737 0.4864 129.3623 29.0117)" class="st1" width="1" height="31.1"/>
				
					<rect x="59.4" y="-51.6" transform="matrix(0.4864 -0.8737 0.8737 0.4864 62.2807 33.8163)" class="st1" width="1" height="31.1"/>
				
					<rect x="20.1" y="-37.9" transform="matrix(0.1922 -0.9814 0.9814 0.1922 65.5231 4.8075)" class="st1" width="31.1" height="1"/>
				
					<rect x="76.8" y="-61.5" transform="matrix(0.9762 -0.217 0.217 0.9762 11.8037 15.6826)" class="st1" width="1" height="31.1"/>
				
					<rect x="45.4" y="-88.8" transform="matrix(0.9762 -0.2171 0.2171 0.9762 17.005 8.2143)" class="st1" width="1" height="31.1"/>
				
					<rect x="44.5" y="-57.2" transform="matrix(0.9762 -0.2171 0.2171 0.9762 10.1243 8.7753)" class="st1" width="1" height="31.1"/>
				
					<rect x="69.5" y="-65.4" transform="matrix(0.9762 -0.2171 0.2171 0.9762 12.5005 14.0049)" class="st1" width="1" height="31.1"/>
				
					<rect x="84.2" y="-88.5" transform="matrix(0.6655 -0.7464 0.7464 0.6655 82.7538 38.8219)" class="st1" width="1" height="31.1"/>
				<rect x="43" y="-56.4" transform="matrix(0.6656 -0.7463 0.7463 0.6656 45.0165 18.826)" class="st1" width="1" height="31.1"/>
				
					<rect x="30.5" y="-73.7" transform="matrix(0.9717 -0.2364 0.2364 0.9717 14.6356 5.6802)" class="st1" width="1" height="31.1"/>
			</g>
			<g>
				<rect x="1.1" y="-35.4" transform="matrix(0.9884 -0.1517 0.1517 0.9884 5.494 2.1201)" class="st1" width="31.1" height="1"/>
				<rect x="3.4" y="-76.2" transform="matrix(0.8852 -0.4652 0.4652 0.8852 37.365 0.1195)" class="st1" width="31.1" height="1"/>
				
					<rect x="7.8" y="-42.6" transform="matrix(0.4544 -0.8908 0.8908 0.4544 50.2417 -2.138)" class="st1" width="31.1" height="1"/>
				
					<rect x="22.3" y="-69.5" transform="matrix(0.9125 -0.4092 0.4092 0.9125 24.0569 4.6084)" class="st1" width="1" height="31.1"/>
				<polygon class="st1" points="11.3,-58 40.4,-68.8 40.1,-69.8 10.9,-59 				"/>
				
					<rect x="2.3" y="-54.2" transform="matrix(0.9264 -0.3766 0.3766 0.9264 21.5533 2.7631)" class="st1" width="31.1" height="1"/>
				
					<rect x="-0.3" y="-66.4" transform="matrix(0.9727 -0.2322 0.2322 0.9727 15.7287 1.7367)" class="st1" width="31.1" height="1"/>
				<rect x="10" y="-91" transform="matrix(0.4593 -0.8883 0.8883 0.4593 94.2177 -26.244)" class="st1" width="31.1" height="1"/>
				
					<rect x="16.9" y="-111.1" transform="matrix(0.4864 -0.8737 0.8737 0.4864 92.3839 -33.8942)" class="st1" width="1" height="31.1"/>
			</g>
			<g>
				
					<rect x="95.3" y="-24.9" transform="matrix(0.9171 -0.3987 0.3987 0.9171 18.9367 42.1586)" class="st1" width="31.1" height="1"/>
			</g>
			<g>
				<polygon class="st1" points="58.5,-2.1 45.8,-30.5 44.9,-30.1 57.6,-1.7 				"/>
				
					<rect x="29.3" y="-27.1" transform="matrix(0.6585 -0.7526 0.7526 0.6585 35.3047 24.6839)" class="st1" width="31.1" height="1"/>
				
					<rect x="23.3" y="-24.9" transform="matrix(0.9171 -0.3987 0.3987 0.9171 12.9665 13.4521)" class="st1" width="31.1" height="1"/>
				
					<rect x="49.7" y="-20.2" transform="matrix(0.2214 -0.9752 0.9752 0.2214 70.0239 48.2188)" class="st1" width="31.1" height="1"/>
				<rect x="82" y="-19" transform="matrix(0.4593 -0.8883 0.8883 0.4593 69.1893 76.6393)" class="st1" width="31.1" height="1"/>
				
					<rect x="95.2" y="-31.1" transform="matrix(0.9935 -0.1138 0.1138 0.9935 2.3863 10.7903)" class="st1" width="1" height="31.1"/>
				
					<rect x="88.9" y="-39.1" transform="matrix(0.4864 -0.8737 0.8737 0.4864 66.4563 65.9901)" class="st1" width="1" height="31.1"/>
			</g>
			<g>
				<rect x="10" y="-19" transform="matrix(0.4593 -0.8883 0.8883 0.4593 30.2619 12.6834)" class="st1" width="31.1" height="1"/>
				
					<rect x="16.9" y="-39.1" transform="matrix(0.4864 -0.8737 0.8737 0.4864 29.478 3.0842)" class="st1" width="1" height="31.1"/>
			</g>
		</g>
	</g>
</pattern>
<rect y="-250" class="st2" width="1000" height="1000"/>
<pattern  id="SVGID_1_" xlink:href="#Sticks" patternTransform="matrix(1 0 0 -1 -29.1 -18186.1973)">
</pattern>
<rect y="-250" class="st3" width="1000" height="1000"/>
<text transform="matrix(1 0 0 1 213.605 295.0879)" class="st4 st5 st6">kjjchlcdkhclckhcldhklkhdcdcd</text>
</svg>
