<?xml version="1.0" encoding="utf-8"?>
<!-- Generator: Adobe Illustrator 21.0.2, SVG Export Plug-In . SVG Version: 6.00 Build 0)  -->
<svg version="1.1" id="Layer_1" xmlns="http://www.w3.org/2000/svg" xmlns:xlink="http://www.w3.org/1999/xlink" x="0px" y="0px"
	 viewBox="0 0 600 230" style="enable-background:new 0 0 600 230;" xml:space="preserve">
<style type="text/css">
	.st0{display:none;}
	.st1{display:inline;}
	.st2{fill:#FFFFFF;stroke:#000000;stroke-miterlimit:10;}
	.st3{fill:none;}
	.st4{display:inline;fill:#FFFFFF;stroke:#000000;stroke-miterlimit:10;}
	.st5{fill:#114684;}
	.st6{fill:#62AEC9;}
	.st7{display:inline;fill:#114684;}
	.st8{fill:#0071BC;}
	.st9{display:inline;fill:#0071BC;}
	.st10{display:inline;fill:#62AEC9;}
	.st11{fill:#333333;}
	.st12{display:inline;fill:#333333;}
	.st13{display:inline;fill:#FFFFFF;}
	.st14{fill:#FFFFFF;}
	.st15{display:inline;fill:#114684;stroke:#000000;stroke-width:0.25;stroke-miterlimit:10;}
	.st16{display:none;fill:#114684;}
	.st17{display:none;fill:#62AEC9;}
	.st18{fill:none;stroke:#114684;stroke-width:10;stroke-miterlimit:10;}
	.st19{fill:#114684;stroke:#62AEC9;stroke-width:10;stroke-linejoin:round;stroke-miterlimit:10;}
	.st20{fill:#62AEC9;stroke:#62AEC9;stroke-width:10;stroke-linejoin:round;stroke-miterlimit:10;}
	.st21{display:none;fill:none;stroke:#FFFFFF;stroke-width:0.75;stroke-miterlimit:10;}
</style>
<g class="st0">
	<g class="st1">
		<g>
			<rect x="97.5" y="103.2" class="st2" width="45" height="86.8"/>
			<polygon class="st2" points="97.5,40 97.5,58.2 97.5,80.7 142.5,80.7 142.5,58.2 142.5,40 			"/>
		</g>
	</g>
	<g class="st1">
		<g>
			<rect x="37.5" y="103.2" class="st2" width="45" height="86.8"/>
			<polygon class="st2" points="37.5,40 37.5,58.2 37.5,80.7 82.5,80.7 82.5,58.2 82.5,40 			"/>
		</g>
	</g>
	<g class="st1">
		<rect x="187.5" y="134.3" class="st2" width="30" height="15"/>
		<path class="st2" d="M217.5,40h-30h-30v30.6v25.1v12.8v25.9v15v18.2V190h30h30h30v-40.7v-15V127v-23.8v-7.5v-15v-1.8V40H217.5z
			 M217.5,149.3h-30v-15h30V149.3z M217.5,95.7h-30v-15h30V95.7z"/>
	</g>
	<g class="st1">
		<polygon class="st2" points="502.5,134.3 502.5,95.7 502.5,91.4 502.5,80.7 562.5,80.7 562.5,78.9 562.5,40 532.5,40 502.5,40 
			472.5,40 472.5,70.6 472.5,95.7 472.5,108.5 472.5,134.3 472.5,149.3 472.5,167.5 472.5,190 502.5,190 532.5,190 562.5,190 
			562.5,149.3 502.5,149.3 		"/>
	</g>
	<g class="st1">
		<rect x="292.5" y="80.7" class="st3" width="30" height="15"/>
		<path class="st2" d="M322.5,40h-30h-30v30.6v25.1v12.8v25.9v15v18.2V190h30v-40.7v-15h30v15V190h30v-40.7v-15V127v-23.8v-7.5v-15
			v-1.8V40H322.5z M322.5,95.7h-30v-15h30V95.7z"/>
	</g>
	<polygon class="st4" points="427.5,40 427.5,80.7 427.5,95.7 427.5,112 418.9,91.4 413.1,77.5 397.5,40 397.5,40 397.5,40 
		367.5,40 367.5,70.6 367.5,95.7 367.5,108.5 367.5,134.3 367.5,149.3 367.5,167.5 367.5,190 397.5,190 397.5,149.3 397.5,134.3 
		397.5,118 406.1,138.6 411.9,152.5 427.5,190 427.5,190 427.5,190 457.5,190 457.5,149.3 457.5,134.3 457.5,127 457.5,103.2 
		457.5,95.7 457.5,80.7 457.5,78.9 457.5,40 	"/>
</g>
<g class="st0">
	<g class="st1">
		<rect x="100" y="117.2" class="st5" width="31" height="65.1"/>
		<rect x="100" y="154.2" class="st5" width="75.9" height="28.1"/>
		<polygon class="st5" points="100,78.8 100,91.3 100,106.8 131,106.8 131,91.3 131,78.8 		"/>
	</g>
	<g class="st1">
		<rect x="144.8" y="86.2" class="st6" width="31" height="57.7"/>
		<polygon class="st6" points="144.8,47.8 144.8,60.3 144.8,75.8 175.9,75.8 175.9,60.3 175.9,47.8 		"/>
	</g>
	<g class="st1">
		<polygon class="st5" points="231,78.8 231,91.3 231,106.8 262.1,106.8 262.1,91.3 262.1,78.8 		"/>
		<path class="st5" d="M220.7,117.2V78.8H200h-10.3v103.4H200h20.7H231h10.3h20.7v-28.1v-10.3v-5.1v-16.4v-5.2H220.7z M231,154.2
			h-10.3v-10.3H231V154.2z"/>
	</g>
	<polygon class="st7" points="479.3,78.8 458.6,78.8 437.9,78.8 437.9,96 437.9,99.9 437.9,117.2 437.9,126 437.9,143.8 
		437.9,154.2 437.9,166.7 437.9,182.2 458.6,182.2 469,182.2 479.3,182.2 500,182.2 500,154.2 469,154.2 469,106.8 500,106.8 
		500,105.6 500,78.8 	"/>
	<path class="st7" d="M327.6,78.8h-20.7h-31v28.1h41.4v10.3h-10.3h-20.7h-10.3v65.1h10.3h20.7h0h10.3h10.3h0h20.7v-28.1v-10.3v-5.1
		v-16.4v-5.2v-10.3v-1.3v-8.9V78.8H327.6z M317.2,154.2h-10.3v-10.3h10.3V154.2z"/>
	<polygon class="st7" points="393.1,78.8 393.1,103.6 382.8,78.8 382.8,78.8 382.8,78.8 362.1,78.8 362.1,99.9 362.1,117.2 
		362.1,122.4 362.1,126 362.1,143.8 362.1,154.2 362.1,166.7 362.1,182.2 382.8,182.2 393.1,182.2 393.1,157.4 403.4,182.2 
		403.4,182.2 403.4,182.2 424.1,182.2 424.1,154.2 424.1,143.8 424.1,138.8 424.1,138.7 424.1,122.4 424.1,117.2 424.1,106.8 
		424.1,105.6 424.1,78.8 424.1,78.8 	"/>
</g>
<g class="st0">
	<g class="st1">
		<rect x="144.8" y="75.8" class="st8" width="31" height="49.9"/>
		<polygon class="st8" points="144.8,32.2 144.8,44.8 144.8,60.3 175.9,60.3 175.9,44.8 175.9,32.2 		"/>
	</g>
</g>
<g class="st0">
	<g class="st1">
		<g>
			<rect x="144.8" y="306.8" class="st8" width="31" height="59.9"/>
			<polygon class="st8" points="144.8,263.3 144.8,275.8 144.8,291.3 175.9,291.3 175.9,275.8 175.9,263.3 			"/>
		</g>
	</g>
	<g class="st1">
		<g>
			<rect x="100" y="316.8" class="st8" width="31" height="49.9"/>
			<polygon class="st8" points="100,273.3 100,285.8 100,301.3 131,301.3 131,285.8 131,273.3 			"/>
		</g>
	</g>
	<g class="st1">
		<polygon class="st8" points="231,263.3 231,275.8 231,291.3 262.1,291.3 262.1,275.8 262.1,263.3 		"/>
		<path class="st8" d="M220.7,301.7v-38.4H200h-10.3v103.4H200h20.7H231h10.3h20.7v-28.1v-10.3v-5.1v-16.4v-5.2H220.7z M231,338.7
			h-10.3v-10.3H231V338.7z"/>
	</g>
	<polygon class="st9" points="479.3,263.3 458.6,263.3 437.9,263.3 437.9,280.5 437.9,284.4 437.9,301.7 437.9,310.5 437.9,328.3 
		437.9,338.7 437.9,351.2 437.9,366.7 458.6,366.7 469,366.7 479.3,366.7 500,366.7 500,338.7 469,338.7 469,291.3 500,291.3 
		500,290.1 500,263.3 	"/>
	<path class="st9" d="M327.6,263.3h-20.7h-31v28.1h41.4v10.3h-10.3h-20.7h-10.3v65.1h10.3h20.7h0h10.3h10.3h0h20.7v-28.1v-10.3v-5.1
		v-16.4v-5.2v-10.3v-1.3v-8.9v-17.9H327.6z M317.2,338.7h-10.3v-10.3h10.3V338.7z"/>
	<polygon class="st9" points="393.1,263.3 393.1,288.1 382.8,263.3 382.8,263.3 382.8,263.3 362.1,263.3 362.1,284.4 362.1,301.7 
		362.1,306.8 362.1,310.5 362.1,328.3 362.1,338.7 362.1,351.2 362.1,366.7 382.8,366.7 393.1,366.7 393.1,341.9 403.4,366.7 
		403.4,366.7 403.4,366.7 424.1,366.7 424.1,338.7 424.1,328.3 424.1,323.2 424.1,323.2 424.1,306.8 424.1,301.7 424.1,291.3 
		424.1,290.1 424.1,263.3 424.1,263.3 	"/>
</g>
<g class="st0">
	<polygon class="st5" points="510,116.8 510,68.8 434.1,68.8 427.9,68.8 358.3,68.8 352.1,68.8 272.1,68.8 265.9,68.8 230.7,68.8 
		221,68.8 185.9,68.8 185.9,37.8 134.8,37.8 134.8,68.8 90,68.8 90,107.2 90,116.8 90,192.2 179.7,192.2 185.9,192.2 265.9,192.2 
		272.1,192.2 352.1,192.2 358.3,192.2 427.9,192.2 434.1,192.2 510,192.2 510,144.2 479,144.2 479,116.8 	"/>
	<g>
		<polygon class="st7" points="131,117.2 100,117.2 100,154.2 100,154.2 100,182.2 100,182.2 131,182.2 175.9,182.2 175.9,154.2 
			131,154.2 		"/>
		<polygon class="st7" points="131,91.3 131,78.8 100,78.8 100,91.3 100,106.8 131,106.8 		"/>
		<rect x="144.8" y="86.2" class="st10" width="31" height="57.7"/>
		<polygon class="st10" points="144.8,60.3 144.8,75.8 175.9,75.8 175.9,60.3 175.9,47.8 144.8,47.8 		"/>
		<polygon class="st7" points="231,91.3 231,106.8 262.1,106.8 262.1,91.3 262.1,78.8 231,78.8 		"/>
		<path class="st7" d="M220.7,78.8H200h-10.3v103.4H200h20.7H231h10.3h20.7v-28.1v-10.3v-5.1v-16.4v-5.2h-41.4V78.8z M231,143.8
			v10.3h-10.3v-10.3H231z"/>
		<polygon class="st7" points="479.3,78.8 458.6,78.8 437.9,78.8 437.9,96 437.9,99.9 437.9,117.2 437.9,126 437.9,143.8 
			437.9,154.2 437.9,166.7 437.9,182.2 458.6,182.2 469,182.2 479.3,182.2 500,182.2 500,154.2 469,154.2 469,106.8 500,106.8 
			500,105.6 500,78.8 		"/>
		<path class="st7" d="M306.9,78.8h-31v28.1h41.4v10.3h-10.3h-20.7h-10.3v65.1h10.3h20.7h10.3h10.3h20.7v-28.1v-10.3v-5.1v-16.4
			v-5.2v-10.3v-1.3v-8.9V78.8h-20.7H306.9z M317.2,154.2h-10.3v-10.3h10.3V154.2z"/>
		<polygon class="st7" points="393.1,103.6 382.8,78.8 382.8,78.8 382.8,78.8 362.1,78.8 362.1,99.9 362.1,117.2 362.1,122.4 
			362.1,126 362.1,143.8 362.1,154.2 362.1,166.7 362.1,182.2 382.8,182.2 393.1,182.2 393.1,157.4 403.4,182.2 403.4,182.2 
			403.4,182.2 424.1,182.2 424.1,154.2 424.1,143.8 424.1,138.8 424.1,138.7 424.1,122.4 424.1,117.2 424.1,106.8 424.1,105.6 
			424.1,78.8 424.1,78.8 393.1,78.8 		"/>
	</g>
	<g>
		<polygon class="st7" points="131,117.2 100,117.2 100,154.2 100,154.2 100,182.2 100,182.2 131,182.2 175.9,182.2 175.9,154.2 
			131,154.2 		"/>
		<polygon class="st7" points="131,91.3 131,78.8 100,78.8 100,91.3 100,106.8 131,106.8 		"/>
		<rect x="144.8" y="86.2" class="st10" width="31" height="57.7"/>
		<polygon class="st10" points="144.8,60.3 144.8,75.8 175.9,75.8 175.9,60.3 175.9,47.8 144.8,47.8 		"/>
		<polygon class="st7" points="231,91.3 231,106.8 262.1,106.8 262.1,91.3 262.1,78.8 231,78.8 		"/>
		<path class="st7" d="M220.7,78.8H200h-10.3v103.4H200h20.7H231h10.3h20.7v-28.1v-10.3v-5.1v-16.4v-5.2h-41.4V78.8z M231,143.8
			v10.3h-10.3v-10.3H231z"/>
		<polygon class="st7" points="479.3,78.8 458.6,78.8 437.9,78.8 437.9,96 437.9,99.9 437.9,117.2 437.9,126 437.9,143.8 
			437.9,154.2 437.9,166.7 437.9,182.2 458.6,182.2 469,182.2 479.3,182.2 500,182.2 500,154.2 469,154.2 469,106.8 500,106.8 
			500,105.6 500,78.8 		"/>
		<path class="st7" d="M306.9,78.8h-31v28.1h41.4v10.3h-10.3h-20.7h-10.3v65.1h10.3h20.7h10.3h10.3h20.7v-28.1v-10.3v-5.1v-16.4
			v-5.2v-10.3v-1.3v-8.9V78.8h-20.7H306.9z M317.2,154.2h-10.3v-10.3h10.3V154.2z"/>
		<polygon class="st7" points="393.1,103.6 382.8,78.8 382.8,78.8 382.8,78.8 362.1,78.8 362.1,99.9 362.1,117.2 362.1,122.4 
			362.1,126 362.1,143.8 362.1,154.2 362.1,166.7 362.1,182.2 382.8,182.2 393.1,182.2 393.1,157.4 403.4,182.2 403.4,182.2 
			403.4,182.2 424.1,182.2 424.1,154.2 424.1,143.8 424.1,138.8 424.1,138.7 424.1,122.4 424.1,117.2 424.1,106.8 424.1,105.6 
			424.1,78.8 424.1,78.8 393.1,78.8 		"/>
	</g>
	<g>
		<g class="st1">
			<rect x="225" y="475.8" class="st11" width="11.6" height="24.4"/>
			<rect x="225" y="489.7" class="st11" width="28.4" height="10.5"/>
			<polygon class="st11" points="225,461.4 225,466.1 225,471.9 236.6,471.9 236.6,466.1 236.6,461.4 			"/>
		</g>
		<g class="st1">
			<rect x="241.8" y="464.2" class="st11" width="11.6" height="21.6"/>
			<polygon class="st11" points="241.8,449.8 241.8,454.5 241.8,460.3 253.4,460.3 253.4,454.5 253.4,449.8 			"/>
		</g>
		<g class="st1">
			<polygon class="st11" points="274.1,461.4 274.1,466.1 274.1,471.9 285.8,471.9 285.8,466.1 285.8,461.4 			"/>
			<path class="st11" d="M270.3,475.8v-14.4h-7.8h-3.9v38.8h3.9h7.8h3.9h3.9h7.8v-10.5v-3.9v-1.9v-6.1v-1.9H270.3z M274.1,489.7
				h-3.9v-3.9h3.9V489.7z"/>
		</g>
		<polygon class="st12" points="367.2,461.4 359.5,461.4 351.7,461.4 351.7,467.9 351.7,469.3 351.7,475.8 351.7,479.1 351.7,485.8 
			351.7,489.7 351.7,494.4 351.7,500.2 359.5,500.2 363.4,500.2 367.2,500.2 375,500.2 375,489.7 363.4,489.7 363.4,471.9 
			375,471.9 375,471.5 375,461.4 		"/>
		<path class="st12" d="M310.3,461.4h-7.8h-11.6v10.5h15.5v3.9h-3.9h-7.8h-3.9v24.4h3.9h7.8l0,0h3.9h3.9l0,0h7.8v-10.5v-3.9v-1.9
			v-6.1v-1.9v-3.9v-0.5v-3.3v-6.7H310.3z M306.5,489.7h-3.9v-3.9h3.9V489.7z"/>
		<polygon class="st12" points="334.9,461.4 334.9,470.7 331,461.4 331,461.4 331,461.4 323.3,461.4 323.3,469.3 323.3,475.8 
			323.3,477.8 323.3,479.1 323.3,485.8 323.3,489.7 323.3,494.4 323.3,500.2 331,500.2 334.9,500.2 334.9,490.9 338.8,500.2 
			338.8,500.2 338.8,500.2 346.6,500.2 346.6,489.7 346.6,485.8 346.6,483.9 346.6,483.9 346.6,477.8 346.6,475.8 346.6,471.9 
			346.6,471.5 346.6,461.4 346.6,461.4 		"/>
	</g>
</g>
<g class="st0">
	<polygon class="st7" points="800,57.9 773.2,57.9 767.4,57.9 734.8,57.9 728.9,57.9 702.1,57.9 702.1,102.1 728.9,102.1 728.9,221 
		773.2,221 773.2,102.1 800,102.1 	"/>
	<path class="st7" d="M663.7,57.9h-32.6h-16.3h-16.3h-32.6v44.2v16.3v8v25.9v8.2v16.3v2v14V221h48.9v-44.2v-8.9v-7.4h16.3V221H680
		V57.9H663.7z M614.8,118.5v-9.3v-7.1h16.3v16.3H614.8z"/>
	<path class="st7" d="M511.5,57.9h-16.3h-16.3h-32.6h-16.3V221h16.3h32.6v-60.5l16.3,60.5h48.9l-16.3-60.5h16.3v-8.2v-25.9v-8v-16.3
		V57.9H511.5z M478.8,102.1h16.3v16.3h-16.3V102.1z"/>
	<polygon class="st7" points="342.9,102.1 342.9,57.9 294,57.9 294,86.2 294,100.2 294,102.1 294,118.5 294,126.6 294,152.5 
		294,160.5 294,176.8 294,221 326.6,221 342.9,221 359.2,221 391.8,221 408.1,221 408.1,57.9 359.2,57.9 359.2,176.8 342.9,176.8 
		342.9,169.7 342.9,160.5 342.9,118.5 342.9,111.1 	"/>
	<polygon class="st7" points="71,102.1 136.3,102.1 136.3,57.9 87.3,57.9 54.7,57.9 22.1,57.9 22.1,86.2 22.1,100.2 22.1,102.1 
		22.1,118.5 22.1,126.6 22.1,152.5 22.1,160.5 22.1,176.8 22.1,221 54.7,221 71,221 87.3,221 120,221 136.3,221 136.3,118.5 
		120,118.5 87.3,118.5 82.1,118.5 82.1,160.5 87.3,160.5 87.3,176.8 71,176.8 71,169.7 71,160.5 71,118.5 71,111.1 	"/>
	<polygon class="st7" points="207,102.1 272.2,102.1 272.2,57.9 223.3,57.9 190.7,57.9 158,57.9 158,86.2 158,100.2 158,102.1 
		158,118.5 158,126.6 158,152.5 158,160.5 158,176.8 158,221 190.7,221 207,221 223.3,221 255.9,221 272.2,221 272.2,118.5 
		255.9,118.5 223.3,118.5 218,118.5 218,160.5 223.3,160.5 223.3,176.8 207,176.8 207,169.7 207,160.5 207,118.5 207,111.1 	"/>
	<g class="st1">
		<rect x="-48.6" y="9" class="st6" width="44.2" height="27.2"/>
		<rect x="-48.6" y="57.9" class="st6" width="48.9" height="97.1"/>
	</g>
	<polygon class="st7" points="-124,176.8 -70.3,102.1 -70.3,100.2 -70.3,57.9 -103,57.9 -135.6,57.9 -168.2,57.9 -168.2,85.1 
		-168.2,91.2 -168.2,102.1 -114.6,102.1 -168.2,176.8 -200,221 0.3,221 0.3,176.8 	"/>
</g>
<g class="st0">
	<polygon class="st13" points="800,57.9 773.2,57.9 767.4,57.9 734.8,57.9 728.9,57.9 702.1,57.9 702.1,102.1 728.9,102.1 
		728.9,221 773.2,221 773.2,102.1 800,102.1 	"/>
	<path class="st13" d="M663.7,57.9h-32.6h-16.3h-16.3h-32.6v44.2v16.3v8v25.9v8.2v16.3v2v14V221h48.9v-44.2v-8.9v-7.4h16.3V221H680
		V57.9H663.7z M614.8,118.5v-9.3v-7.1h16.3v16.3H614.8z"/>
	<path class="st13" d="M511.5,57.9h-16.3h-16.3h-32.6h-16.3V221h16.3h32.6v-60.5l16.3,60.5h48.9l-16.3-60.5h16.3v-8.2v-25.9v-8
		v-16.3V57.9H511.5z M478.8,102.1h16.3v16.3h-16.3V102.1z"/>
	<polygon class="st13" points="342.9,102.1 342.9,57.9 294,57.9 294,86.2 294,100.2 294,102.1 294,118.5 294,126.6 294,152.5 
		294,160.5 294,176.8 294,221 326.6,221 342.9,221 359.2,221 391.8,221 408.1,221 408.1,57.9 359.2,57.9 359.2,176.8 342.9,176.8 
		342.9,169.7 342.9,160.5 342.9,118.5 342.9,111.1 	"/>
	<polygon class="st13" points="71,102.1 136.3,102.1 136.3,57.9 87.3,57.9 54.7,57.9 22.1,57.9 22.1,86.2 22.1,100.2 22.1,102.1 
		22.1,118.5 22.1,126.6 22.1,152.5 22.1,160.5 22.1,176.8 22.1,221 54.7,221 71,221 87.3,221 120,221 136.3,221 136.3,118.5 
		120,118.5 87.3,118.5 82.1,118.5 82.1,160.5 87.3,160.5 87.3,176.8 71,176.8 71,169.7 71,160.5 71,118.5 71,111.1 	"/>
	<polygon class="st13" points="207,102.1 272.2,102.1 272.2,57.9 223.3,57.9 190.7,57.9 158,57.9 158,86.2 158,100.2 158,102.1 
		158,118.5 158,126.6 158,152.5 158,160.5 158,176.8 158,221 190.7,221 207,221 223.3,221 255.9,221 272.2,221 272.2,118.5 
		255.9,118.5 223.3,118.5 218,118.5 218,160.5 223.3,160.5 223.3,176.8 207,176.8 207,169.7 207,160.5 207,118.5 207,111.1 	"/>
	<g class="st1">
		<rect x="-48.6" y="9" class="st14" width="44.2" height="27.2"/>
		<rect x="-48.6" y="57.9" class="st14" width="48.9" height="97.1"/>
	</g>
	<polygon class="st13" points="-124,176.8 -70.3,102.1 -70.3,100.2 -70.3,57.9 -103,57.9 -135.6,57.9 -168.2,57.9 -168.2,85.1 
		-168.2,91.2 -168.2,102.1 -114.6,102.1 -168.2,176.8 -200,221 0.3,221 0.3,176.8 	"/>
</g>
<g class="st0">
	<line class="st15" x1="48.5" y1="-57" x2="48.5" y2="98.1"/>
	<line class="st15" x1="34.7" y1="-53" x2="34.7" y2="102.1"/>
</g>
<g class="st0">
	<g class="st1">
		<polygon points="17.9,433.4 17.9,303.4 27.9,303.4 27.9,323.4 47.9,323.4 47.9,343.4 67.9,343.4 67.9,363.4 87.9,363.4 
			87.9,383.4 107.9,383.4 107.9,403.4 127.9,403.4 127.9,423.4 147.9,423.4 147.9,433.4 		"/>
		<path class="st14" d="M22.9,308.4v10v10h10h10v10v10h10h10v10v10h10h10v10v10h10h10v10v10h10h10v10v10h10h10h-120V308.4
			 M32.9,298.4h-20v140h140v-20h-20v-20h-20v-20h-20v-20h-20v-20h-20v-20h-20V298.4L32.9,298.4z"/>
	</g>
	<g class="st1">
		<polygon points="-147.3,442.9 -147.3,432.9 -127.3,432.9 -127.3,412.9 -107.3,412.9 -107.3,392.9 -87.3,392.9 -87.3,372.9 
			-67.3,372.9 -67.3,352.9 -47.3,352.9 -47.3,332.9 -27.3,332.9 -27.3,312.9 -7.3,312.9 -7.3,292.9 23.4,292.9 23.4,442.9 		"/>
		<path class="st14" d="M18.4,297.9v140h-140.7v-10v-10h10h10v-10v-10h10h10v-10v-10h10h10v-10v-10h10h10v-10v-10h10h10v-10v-10h10
			h10v-10v-10H18.4 M28.4,287.9H-2.3h10h-20v20h-20v20h-20v20h-20v20h-20v20h-20v20h-20v20h-20v20h20H28.4V287.9L28.4,287.9z"/>
	</g>
	<polygon class="st1" points="-132.3,408.4 -112.3,408.4 -112.3,388.4 -92.3,388.4 -92.3,368.4 -72.3,368.4 -72.3,348.4 
		-52.3,348.4 -52.3,328.4 -32.3,328.4 -32.3,308.4 -162.3,308.4 -162.3,448.4 -132.3,448.4 	"/>
</g>
<g class="st0">
	<rect x="94" y="-11" class="st1" width="20" height="20"/>
	<rect x="114" y="-31" class="st1" width="20" height="20"/>
	<rect x="134" y="-51" class="st1" width="20" height="20"/>
	<rect x="154" y="-71" class="st1" width="20" height="20"/>
	<rect x="174" y="-91" class="st1" width="20" height="20"/>
	<rect x="194" y="-111" class="st1" width="20" height="20"/>
	<rect x="214" y="-131" class="st1" width="20" height="20"/>
	<rect x="234" y="-151" class="st1" width="20" height="20"/>
</g>
<g class="st0">
	<polygon class="st1" points="20.9,296 20.9,439.1 31.5,450.2 31.5,343.9 31.5,301.3 20.9,290.2 	"/>
</g>
<polygon class="st0" points="116.5,77.9 116.5,90.2 128.8,90.2 141.2,90.2 141.2,102.6 141.2,114.9 153.5,114.9 165.9,114.9 
	165.9,127.3 165.9,139.6 190.6,139.6 190.6,164.3 202.9,164.3 215.3,164.3 215.3,190 90.9,189 90.9,72.3 90.9,66.1 90.9,65.5 
	116.5,65.5 "/>
<g class="st0">
	<polygon class="st1" points="65.9,28.4 65.9,40.9 65.9,53.3 65.9,65.2 41,65.2 41,65.8 41,78.2 28.6,78.2 16.2,78.2 16.2,90.7 
		16.2,103.1 3.7,103.1 -8.7,103.1 -8.7,115.5 -8.7,128 -21.2,128 -33.6,128 -33.6,152.9 91.7,152.9 91.7,35.2 91.7,29 91.7,28.4 	
		"/>
	<polygon class="st1" points="-22.2,114.4 -22.2,90.1 2.7,90.1 2.7,89.5 2.7,65.2 -96.8,65.2 -122.3,65.2 -122.3,152.9 
		-122.3,164.1 -122.3,188.4 -96.8,188.4 -96.8,152.9 -71.9,152.9 -71.9,139.8 -47,139.8 -47,139.3 -47,115 -22.2,115 	"/>
</g>
<g class="st0">
	<rect x="116.5" y="61.5" class="st1" width="40.8" height="25.3"/>
	<rect x="116.5" y="111" class="st1" width="29.4" height="41.5"/>
</g>
<g class="st0">
	<polygon class="st7" points="22.3,91.6 44.3,91.6 44.3,113.6 55.3,113.6 66.3,113.6 66.3,124.6 66.3,135.6 77.3,135.6 88.3,135.6 
		88.3,146.6 88.3,157.6 99.3,157.6 110,157.6 110,9.8 110,0.8 110,0 73,0 73,17.9 73,35.8 73,52.8 37.2,52.8 37.2,53.7 37.2,71.5 
		22.3,71.5 22.3,80.6 	"/>
	<polygon class="st10" points="-16.4,107.3 -34.3,107.3 -34.3,125.2 -34.3,143.1 -52.2,143.1 -70.1,143.1 -70.1,178.8 -0.4,178.8 
		-0.4,107.3 	"/>
	<polygon class="st7" points="-53.7,123.5 -53.7,88.6 -17.9,88.6 -17.9,87.8 -17.9,52.8 -161,52.8 -197.6,52.8 -197.6,178.8 
		-197.6,195.1 -197.6,230 -161,230 -161,178.8 -125.2,178.8 -125.2,160.1 -89.4,160.1 -89.4,159.3 -89.4,124.4 -53.7,124.4 	"/>
</g>
<g>
	<g>
		<g>
			<path class="st5" d="M286.6,53.9v11.9l-21.7,54.7h21.7v11.7h-34.5v-11.8l21.8-54.7l-21.8,0.1V53.9H286.6z"/>
			<path class="st5" d="M308.2,132.2h-11.8V53.9h11.8V132.2z"/>
			<path class="st5" d="M337.4,133.2c-5.2,0-9.6-1.8-13.3-5.5c-3.6-3.7-5.5-8.1-5.5-13.2V71.8c0-5.2,1.8-9.6,5.5-13.3
				c3.7-3.6,8.1-5.5,13.2-5.5c5.2,0,9.6,1.8,13.2,5.5c3.6,3.7,5.4,8.1,5.4,13.2l-12.2-0.2c0-1.9-0.7-3.5-2-4.8c-1.3-1.3-2.9-2-4.8-2
				c-1.9,0-3.5,0.7-4.8,2c-1.3,1.3-2,2.9-2,4.8v42.9c0,1.9,0.7,3.5,2,4.8c1.3,1.3,2.9,2,4.8,2c1.9,0,3.5-0.7,4.8-2
				c1.3-1.3,2-2.9,2-4.8V99h-6.6V87.2H356v27.4c0,5.2-1.8,9.6-5.5,13.2C346.9,131.4,342.5,133.2,337.4,133.2z"/>
			<path class="st5" d="M384.9,133.2c-5.2,0-9.6-1.8-13.3-5.5c-3.6-3.7-5.5-8.1-5.5-13.2V71.8c0-5.2,1.8-9.6,5.5-13.3
				c3.7-3.6,8.1-5.5,13.2-5.5c5.2,0,9.6,1.8,13.2,5.5c3.6,3.7,5.4,8.1,5.4,13.2l-12.2-0.2c0-1.9-0.7-3.5-2-4.8c-1.3-1.3-2.9-2-4.8-2
				c-1.9,0-3.5,0.7-4.8,2c-1.3,1.3-2,2.9-2,4.8v42.9c0,1.9,0.7,3.5,2,4.8c1.3,1.3,2.9,2,4.8,2c1.9,0,3.5-0.7,4.8-2
				c1.3-1.3,2-2.9,2-4.8V99h-6.6V87.2h18.8v27.4c0,5.2-1.8,9.6-5.5,13.2C394.4,131.4,390,133.2,384.9,133.2z"/>
			<path class="st5" d="M432.3,133.1c-5.2,0-9.6-1.8-13.2-5.4s-5.4-8-5.4-13.2V53.9h11.6v60.4c0,1.9,0.7,3.5,2,4.8
				c1.3,1.3,2.9,2,4.8,2c1.9,0,3.5-0.7,4.8-2c1.3-1.3,2-2.9,2-4.8V53.9h12.3v60.5c0,5.2-1.8,9.7-5.5,13.2
				C441.9,131.3,437.5,133.1,432.3,133.1z"/>
			<path class="st5" d="M480.2,53.9c6.6,0,11.4,1.8,14.5,5.4c2.7,3.2,4.1,7.6,4.1,13.2V84c0,5.5-2.1,10.2-6.3,14.1l8.7,34.2h-12.8
				l-7.2-29.5c-0.3,0-0.7,0-1.1,0h-6.8v29.5h-11.8V53.9H480.2z M487.2,72.8c0-4.5-2.2-6.8-6.7-6.8h-7.1V91h7.1c1.9,0,3.5-0.7,4.8-2
				c1.3-1.3,2-2.9,2-4.8V72.8z"/>
			<path class="st5" d="M525.8,114.2l-2.9,18h-12.3L524,53.9h16.2l13.1,78.3h-12.4l-2.8-18H525.8z M532,71.9l-4.4,30.9h8.7L532,71.9
				z"/>
			<g>
				<polygon class="st5" points="548.3,53.9 550.3,65.8 564.8,65.8 564.8,132.2 576.6,132.2 576.6,65.8 589.1,65.8 589.1,53.9 				
					"/>
			</g>
		</g>
		<g>
			<path class="st5" d="M252.3,172.6v-31.1h14.8v4h-10.8v8.8h6.7l-1.4,3.9h-5.3v14.4H252.3z"/>
			<path class="st5" d="M313.9,141.5h4v22.9c0,6.5-4.9,8.6-9.3,8.6s-9.4-2-9.4-8.6v-22.9h4v21.7c0,3.7,1.6,5.8,5.3,5.8
				c3.7,0,5.3-2.1,5.3-5.8V141.5z"/>
			<path class="st5" d="M370.5,172.6l-13.7-22.9v22.9h-4v-31.1h4l13.7,22.8v-22.8h4.1v31.1H370.5z"/>
			<path class="st5" d="M409.6,172.6v-31.1h8.4c6.9,0,10.3,4.2,10.3,10.1v12.2c0,6.9-4.3,8.9-9.4,8.9H409.6z M424.2,151.1
				c0-4-2.5-5.6-5.8-5.6h-4.8v23.5h4.5c2.7,0,6.1-0.4,6.1-4.8V151.1z"/>
			<path class="st5" d="M463.4,172.6v-27.2l-2.8-0.1v-3.8h6.9v31.1H463.4z"/>
			<path class="st5" d="M520.3,172.6l-13.7-22.9v22.9h-4v-31.1h4l13.7,22.8v-22.8h4.1v31.1H520.3z"/>
			<path class="st5" d="M573.2,172.6l-0.4-0.9c-1.2,0.8-2.7,1.3-4.8,1.3c-4.7,0-9.4-2.5-9.4-8.8v-13.9c0-4.4,1.5-6.6,3.9-8
				c2.9-1.7,7.6-1.4,11.1,0.4l-1.2,3.5c-1.6-0.6-2.8-0.8-4.3-0.8c-2.5,0-5.4,0.6-5.4,4.7v14.4c0,3.4,2.2,4.7,5.3,4.7
				c2.6,0,4.9-1.3,4.9-4.7v-1.2h-2.7l-1.3-3.9h8v13.3H573.2z"/>
		</g>
	</g>
</g>
<polygon class="st16" points="22.3,40.4 44.3,40.4 44.3,62.4 55.3,62.4 66.3,62.4 66.3,73.4 66.3,84.4 77.3,84.4 88.3,84.4 
	88.3,95.4 88.3,106.4 99.3,106.4 110,106.4 110,2.5 110,2.5 110,2.5 73,2.5 22.3,2.5 22.3,2.5 22.3,20.4 22.3,20.4 22.3,29.4 "/>
<g class="st0">
	<g class="st1">
		<g>
			<path class="st14" d="M217.8,1.7v22.8l-41.7,104.8h41.7v22.5h-66.1v-22.7l41.8-104.8l-41.8,0.1V1.7H217.8z"/>
			<path class="st14" d="M259.2,151.7h-22.6V1.7h22.6V151.7z"/>
			<path class="st14" d="M315.2,153.6c-10,0-18.5-3.5-25.4-10.5c-7-7-10.5-15.4-10.5-25.3V35.9c0-10,3.5-18.5,10.5-25.4
				c7-7,15.5-10.5,25.4-10.5c10,0,18.4,3.5,25.4,10.5c6.9,7,10.4,15.5,10.4,25.4V53h-23.5V35.4c0-3.6-1.3-6.7-3.8-9.2
				c-2.6-2.6-5.6-3.8-9.2-3.8c-3.6,0-6.6,1.3-9.2,3.8c-2.5,2.6-3.8,5.6-3.8,9.2v82.1c0,3.6,1.3,6.6,3.8,9.2c2.5,2.5,5.6,3.8,9.2,3.8
				c3.6,0,6.7-1.3,9.2-3.8c2.6-2.5,3.8-5.6,3.8-9.1V88.1h-12.6V65.4h36v52.4c0,10-3.5,18.4-10.5,25.4
				C333.4,150.2,325,153.6,315.2,153.6z"/>
			<path class="st14" d="M406.2,153.6c-10,0-18.5-3.5-25.4-10.5c-7-7-10.5-15.4-10.5-25.3V35.9c0-10,3.5-18.5,10.5-25.4
				c7-7,15.5-10.5,25.4-10.5c10,0,18.4,3.5,25.4,10.5c6.9,7,10.4,15.5,10.4,25.4V53h-23.5V35.4c0-3.6-1.3-6.7-3.8-9.2
				c-2.6-2.6-5.6-3.8-9.2-3.8c-3.6,0-6.6,1.3-9.2,3.8c-2.5,2.6-3.8,5.6-3.8,9.2v82.1c0,3.6,1.3,6.6,3.8,9.2c2.5,2.5,5.6,3.8,9.2,3.8
				c3.6,0,6.7-1.3,9.2-3.8c2.6-2.5,3.8-5.6,3.8-9.1V88.1h-12.6V65.4h36v52.4c0,10-3.5,18.4-10.5,25.4
				C424.4,150.2,416,153.6,406.2,153.6z"/>
			<path class="st14" d="M497.2,153.4c-10,0-18.4-3.5-25.4-10.4c-6.9-6.9-10.4-15.4-10.4-25.3V1.7h22.2v115.8c0,3.6,1.3,6.6,3.8,9.2
				c2.6,2.5,5.6,3.8,9.2,3.8c3.6,0,6.6-1.3,9.2-3.8s3.8-5.6,3.8-9.2V1.7h23.6v116c0,10.1-3.5,18.5-10.5,25.4
				C515.5,150,507.1,153.4,497.2,153.4z"/>
			<path class="st14" d="M588.9,1.7c12.6,0,21.9,3.5,27.8,10.4c5.2,6.1,7.8,14.5,7.8,25.4v21.8c0,10.6-4,19.6-12.1,26.9l16.8,65.5
				h-24.5l-13.7-56.5c-0.6,0-1.3,0-2,0h-13.1v56.5h-22.6V1.7H588.9z M602.4,37.8c0-8.7-4.3-13.1-12.9-13.1h-13.7v48h13.7
				c3.6,0,6.6-1.3,9.2-3.8c2.5-2.6,3.8-5.6,3.8-9.2V37.8z"/>
			<path class="st14" d="M676.4,117.2l-5.5,34.5h-23.6l25.5-150H704l25.1,150h-23.8l-5.3-34.5H676.4z M688.3,36l-8.4,59.2h16.8
				L688.3,36z"/>
			<path class="st14" d="M751,24.4H727V1.7h70.7v22.8h-23.9v127.3H751V24.4z"/>
		</g>
		<g>
			<path class="st14" d="M152.2,229.1v-59.6h28.4v7.7H160V194h12.9l-2.7,7.5H160v27.7H152.2z"/>
			<path class="st14" d="M270.1,169.5h7.7v43.8c0,12.5-9.5,16.4-17.9,16.4c-8.4,0-18-3.9-18-16.4v-43.8h7.7v41.6
				c0,7.2,3.1,11.2,10.1,11.2c7.2,0,10.2-4,10.2-11.2V169.5z"/>
			<path class="st14" d="M378.7,229.1l-26.3-43.9v43.9h-7.7v-59.6h7.7l26.3,43.8v-43.8h7.8v59.6H378.7z"/>
			<path class="st14" d="M453.6,229.1v-59.7h16c13.2,0,19.8,8.1,19.8,19.3v23.3c0,13.2-8.3,17-18,17H453.6z M481.6,187.9
				c0-7.7-4.8-10.8-11.2-10.8h-9.1v45h8.6c5.2,0,11.7-0.8,11.7-9.1V187.9z"/>
			<path class="st14" d="M556.7,229.1V177l-5.4-0.2v-7.3h13.2v59.6H556.7z"/>
			<path class="st14" d="M665.7,229.1l-26.3-43.9v43.9h-7.7v-59.6h7.7l26.3,43.8v-43.8h7.8v59.6H665.7z"/>
			<path class="st14" d="M767.2,229.1l-0.8-1.7c-2.4,1.6-5.2,2.6-9.3,2.6c-8.9,0-18-4.9-18-16.9v-26.7c0-8.3,2.9-12.7,7.4-15.4
				c5.5-3.2,14.6-2.7,21.2,0.7l-2.3,6.6c-3-1.1-5.4-1.6-8.3-1.6c-4.8,0-10.3,1.1-10.3,8.9v27.7c0,6.5,4.2,9,10.1,9
				c4.9,0,9.5-2.5,9.5-8.9v-2.2h-5.1l-2.6-7.5h15.3v25.5H767.2z"/>
		</g>
	</g>
	<g class="st1">
		<polygon class="st14" points="22.3,91.6 44.3,91.6 44.3,113.6 55.3,113.6 66.3,113.6 66.3,124.6 66.3,135.6 77.3,135.6 
			88.3,135.6 88.3,146.6 88.3,157.6 99.3,157.6 110,157.6 110,9.8 110,0.8 110,0 73,0 37.2,52.8 37.2,53.7 37.2,71.5 22.3,71.5 
			22.3,80.6 		"/>
		<polygon class="st14" points="-16.4,107.3 -34.3,107.3 -34.3,125.2 -34.3,143.1 -52.2,143.1 -70.1,143.1 -70.1,178.8 -0.4,178.8 
			-0.4,107.3 		"/>
		<polygon class="st14" points="-19.3,107.3 -1.4,107.3 -1.4,125.2 -1.4,143.1 16.5,143.1 34.4,143.1 34.4,178.8 -35.3,178.8 
			-35.3,107.3 		"/>
		<polygon class="st14" points="-53.7,123.5 -53.7,88.6 -17.9,88.6 -17.9,87.8 -17.9,52.8 -161,52.8 -197.6,52.8 -197.6,178.8 
			-197.6,195.1 -197.6,230 -161,230 -125.2,178.8 -125.2,160.1 -89.4,160.1 -89.4,159.3 -89.4,124.4 -53.7,124.4 		"/>
	</g>
</g>
<polygon class="st16" points="130,144.7 130,180.5 -48.9,180.5 -48.9,144.7 -47.2,144.7 -13.1,144.7 -13.1,120.9 -13.1,109 4,109 
	22.7,109 22.7,73.2 23.5,73.2 58.4,73.2 58.4,37.4 59.3,37.4 94.2,37.4 94.2,1.7 95,1.7 130,1.7 "/>
<g class="st0">
	<g class="st1">
		<polygon points="73,0 73,17.9 73,35.8 73,52.8 37.2,52.8 37.2,53.7 37.2,71.5 19.3,71.5 1.4,71.5 1.4,89.4 1.4,107.3 -16.4,107.3 
			-34.3,107.3 -34.3,125.2 -34.3,143.1 -52.2,143.1 -70.1,143.1 -70.1,178.8 110,178.8 110,9.8 110,0.8 110,0 		"/>
		<polygon class="st14" points="22.3,69.6 22.3,80.6 22.3,91.6 44.3,91.6 44.3,113.6 55.3,113.6 66.3,113.6 66.3,124.6 66.3,135.6 
			77.3,135.6 88.3,135.6 88.3,146.6 88.3,157.6 99.3,157.6 110.3,157.6 110.3,179.6 -0.4,179.6 -0.4,75.6 -0.4,70.1 -0.4,69.6 		"/>
		<polygon points="-53.7,123.5 -53.7,88.6 -17.9,88.6 -17.9,87.8 -17.9,52.8 -161,52.8 -197.6,52.8 -197.6,178.8 -197.6,195.1 
			-197.6,230 -161,230 -161,178.8 -125.2,178.8 -125.2,160.1 -89.4,160.1 -89.4,159.3 -89.4,124.4 -53.7,124.4 		"/>
	</g>
</g>
<path class="st17" d="M-161,180.5v-1.7v-34.1h23.8h11.9v-17.1V109h35.8v-0.8V73.2h35.8v-0.8V37.4h4.8h31h4.8v34.9v0.8h35.8v34.9v0.8
	h35.8v18.7v17.1h11.9h23.8v34.1v1.7H-161z"/>
<polygon class="st17" points="-104.2,159.5 -104.2,130 -68.4,130 -68.4,94.2 1.7,94.2 1.7,130 37.4,130 37.4,159.5 "/>
<polygon class="st17" points="16.5,91.9 -0.4,91.9 -0.4,56.2 -1.4,56.2 -35.3,56.2 -35.3,91.9 -52.2,91.9 -70.1,91.9 -70.1,127.7 
	-35.3,127.7 -0.4,127.7 34.4,127.7 34.4,91.9 "/>
<g class="st0">
	<g class="st1">
		<polygon class="st5" points="116.6,30.9 116.6,184 65.6,184 65.6,182.8 65.6,133 14.6,133 14.6,131.8 14.6,82 -36.4,82 
			-36.4,80.8 -36.4,30.9 		"/>
	</g>
	<g class="st1">
		<polygon class="st6" points="-19.2,162.3 -19.2,195.2 -183.4,195.2 -183.4,162.3 -181.8,162.3 -150.5,162.3 -150.5,140.4 
			-150.5,129.5 -134.9,129.5 -117.7,129.5 -117.7,96.6 -116.9,96.6 -84.8,96.6 -84.8,63.8 -84.1,63.8 -52,63.8 -52,30.9 -51.2,30.9 
			-19.2,30.9 		"/>
		<polygon class="st6" points="-47.6,162.3 -47.6,195.2 116.6,195.2 116.6,162.3 115.1,162.3 83.8,162.3 83.8,140.4 83.8,129.5 
			68.1,129.5 50.9,129.5 50.9,96.6 50.2,96.6 18.1,96.6 18.1,63.8 17.3,63.8 -14.7,63.8 -14.7,30.9 -15.5,30.9 -47.6,30.9 		"/>
		<rect x="-183.4" y="2" class="st5" width="300" height="14"/>
		<rect x="-183.4" y="210.1" class="st5" width="300" height="14"/>
	</g>
	<g class="st1">
		<polygon class="st5" points="-183.4,30.9 -183.4,129.5 -150.5,129.5 -150.5,128.7 -150.5,96.6 -117.7,96.6 -117.7,95.9 
			-117.7,63.8 -84.8,63.8 -84.8,63 -84.8,30.9 		"/>
	</g>
</g>
<g>
	<polygon class="st5" points="518.5,-258 518.5,-160.9 486.1,-160.9 486.1,-161.6 486.1,-193.3 453.7,-193.3 453.7,-194 
		453.7,-225.6 421.4,-225.6 421.4,-226.4 421.4,-258 	"/>
</g>
<polygon class="st6" points="403.4,-173.1 403.4,-152.3 507.6,-152.3 507.6,-173.1 506.6,-173.1 486.7,-173.1 486.7,-187 
	486.7,-193.9 476.8,-193.9 465.9,-193.9 465.9,-214.8 465.4,-214.8 445.1,-214.8 445.1,-235.6 444.6,-235.6 424.2,-235.6 
	424.2,-256.5 423.7,-256.5 403.4,-256.5 "/>
<g>
	<polygon class="st5" points="3.3,-219.8 3.3,-157.3 24.1,-157.3 24.1,-157.8 24.1,-178.1 44.9,-178.1 44.9,-178.6 44.9,-199 
		65.8,-199 65.8,-199.5 65.8,-219.8 	"/>
</g>
<path class="st18" d="M38.7,220.3c-15.3,0-27.7-12.4-27.7-27.7V40.8c0-15.3,12.4-27.7,27.7-27.7h160.1c15.3,0,27.7,12.4,27.7,27.7
	v151.8c0,15.3-12.4,27.7-27.7,27.7H38.7z"/>
<path class="st19" d="M31,192.6V40.8c0-4.2,3.4-7.7,7.7-7.7h160.1c4.2,0,7.7,3.4,7.7,7.7v151.8c0,4.2-3.4,7.7-7.7,7.7H38.7
	C34.4,200.3,31,196.9,31,192.6z"/>
<path class="st18" d="M-653,590h-153.4c-5.4,0-10.3-1.9-14.1-5.1c-4.8-4-7.9-10.1-7.9-16.9V414.6c0-6.1,2.5-11.6,6.4-15.6
	c4-4,9.5-6.4,15.6-6.4H-653c6.1,0,11.6,2.5,15.6,6.4c4,4,6.4,9.5,6.4,15.6V568c0,6.1-2.5,11.6-6.4,15.6
	C-641.4,587.5-646.9,590-653,590z"/>
<g>
	<g>
		<rect x="49.7" y="144.6" class="st19" width="138.1" height="27.9"/>
		<path class="st19" d="M31,172.4v20.2c0,4.2,3.4,7.7,7.7,7.7h160.1c4.2,0,7.7-3.4,7.7-7.7v-20.2H31z"/>
	</g>
	<g>
		<g>
			<rect x="83.7" y="97.9" class="st19" width="70" height="23.8"/>
			<rect x="63.7" y="121.7" class="st19" width="110" height="22.9"/>
		</g>
		<g>
			<rect x="103.7" y="70" class="st20" width="30" height="27.9"/>
		</g>
	</g>
</g>
<line class="st21" x1="339.9" y1="-163.6" x2="59.9" y2="-163.6"/>
<line class="st19" x1="87.3" y1="70" x2="150.1" y2="70"/>
</svg>
