<?xml version="1.0" encoding="utf-8"?>
<!-- Generator: Adobe Illustrator 21.0.2, SVG Export Plug-In . SVG Version: 6.00 Build 0)  -->
<svg version="1.1" id="Layer_1" xmlns="http://www.w3.org/2000/svg" xmlns:xlink="http://www.w3.org/1999/xlink" x="0px" y="0px"
	 viewBox="0 0 420 120" style="enable-background:new 0 0 420 120;" xml:space="preserve">
<style type="text/css">
	.st0{display:none;}
	.st1{display:inline;}
	.st2{fill:#FFFFFF;stroke:#000000;stroke-miterlimit:10;}
	.st3{fill:none;}
	.st4{display:inline;fill:#FFFFFF;stroke:#000000;stroke-miterlimit:10;}
	.st5{fill:#114684;}
	.st6{fill:#62AEC9;}
	.st7{display:inline;fill:#114684;}
	.st8{fill:#0071BC;}
	.st9{display:inline;fill:#0071BC;}
	.st10{fill:#333333;}
	.st11{display:inline;fill:#FFFFFF;}
	.st12{fill:#FFFFFF;}
	.st13{display:inline;fill:none;stroke:#000000;stroke-width:0.25;stroke-miterlimit:10;}
	.st14{display:inline;fill:#62AEC9;}
	.st15{display:none;fill:#114684;}
	.st16{display:none;fill:#62AEC9;}
	.st17{display:none;fill:none;stroke:#114684;stroke-width:10;stroke-miterlimit:10;}
	.st18{display:none;fill:none;stroke:#FFFFFF;stroke-width:0.75;stroke-miterlimit:10;}
	.st19{display:inline;fill:none;}
	.st20{display:inline;fill:none;stroke:#114684;stroke-width:10;stroke-miterlimit:10;}
	.st21{display:inline;fill:#114684;stroke:#62AEC9;stroke-width:10;stroke-linejoin:round;stroke-miterlimit:10;}
	.st22{fill:#114684;stroke:#62AEC9;stroke-width:10;stroke-linejoin:round;stroke-miterlimit:10;}
	.st23{fill:#62AEC9;stroke:#62AEC9;stroke-width:10;stroke-linejoin:round;stroke-miterlimit:10;}
	.st24{display:inline;fill:none;stroke:#62AEC9;stroke-width:10;stroke-linejoin:round;stroke-miterlimit:10;}
</style>
<g class="st0">
	<g class="st1">
		<g>
			<rect x="7.5" y="48.2" class="st2" width="45" height="86.8"/>
			<polygon class="st2" points="7.5,-15 7.5,3.2 7.5,25.7 52.5,25.7 52.5,3.2 52.5,-15 			"/>
		</g>
	</g>
	<g class="st1">
		<g>
			<rect x="-52.5" y="48.2" class="st2" width="45" height="86.8"/>
			<polygon class="st2" points="-52.5,-15 -52.5,3.2 -52.5,25.7 -7.5,25.7 -7.5,3.2 -7.5,-15 			"/>
		</g>
	</g>
	<g class="st1">
		<rect x="97.5" y="79.3" class="st2" width="30" height="15"/>
		<path class="st2" d="M127.5-15h-30h-30v30.6v25.1v12.8v25.9v15v18.2V135h30h30h30V94.3v-15V72V48.2v-7.5v-15v-1.8V-15H127.5z
			 M127.5,94.3h-30v-15h30V94.3z M127.5,40.7h-30v-15h30V40.7z"/>
	</g>
	<g class="st1">
		<polygon class="st2" points="412.5,79.3 412.5,40.7 412.5,36.4 412.5,25.7 472.5,25.7 472.5,23.9 472.5,-15 442.5,-15 412.5,-15 
			382.5,-15 382.5,15.6 382.5,40.7 382.5,53.5 382.5,79.3 382.5,94.3 382.5,112.5 382.5,135 412.5,135 442.5,135 472.5,135 
			472.5,94.3 412.5,94.3 		"/>
	</g>
	<g class="st1">
		<rect x="202.5" y="25.7" class="st3" width="30" height="15"/>
		<path class="st2" d="M232.5-15h-30h-30v30.6v25.1v12.8v25.9v15v18.2V135h30V94.3v-15h30v15V135h30V94.3v-15V72V48.2v-7.5v-15v-1.8
			V-15H232.5z M232.5,40.7h-30v-15h30V40.7z"/>
	</g>
	<polygon class="st4" points="337.5,-15 337.5,25.7 337.5,40.7 337.5,57 328.9,36.4 323.1,22.5 307.5,-15 307.5,-15 307.5,-15 
		277.5,-15 277.5,15.6 277.5,40.7 277.5,53.5 277.5,79.3 277.5,94.3 277.5,112.5 277.5,135 307.5,135 307.5,94.3 307.5,79.3 
		307.5,63 316.1,83.6 321.9,97.5 337.5,135 337.5,135 337.5,135 367.5,135 367.5,94.3 367.5,79.3 367.5,72 367.5,48.2 367.5,40.7 
		367.5,25.7 367.5,23.9 367.5,-15 	"/>
</g>
<g class="st0">
	<g class="st1">
		<rect x="10" y="62.2" class="st5" width="31" height="65.1"/>
		<rect x="10" y="99.2" class="st5" width="75.9" height="28.1"/>
		<polygon class="st5" points="10,23.8 10,36.3 10,51.8 41,51.8 41,36.3 41,23.8 		"/>
	</g>
	<g class="st1">
		<rect x="54.8" y="31.2" class="st6" width="31" height="57.7"/>
		<polygon class="st6" points="54.8,-7.2 54.8,5.3 54.8,20.8 85.9,20.8 85.9,5.3 85.9,-7.2 		"/>
	</g>
	<g class="st1">
		<polygon class="st5" points="141,23.8 141,36.3 141,51.8 172.1,51.8 172.1,36.3 172.1,23.8 		"/>
		<path class="st5" d="M130.7,62.2V23.8H110H99.7v103.4H110h20.7H141h10.3H172V99.1V88.8v-5.1V67.3v-5.2L130.7,62.2L130.7,62.2z
			 M141,99.2h-10.3V88.9H141V99.2z"/>
	</g>
	<polygon class="st7" points="389.3,23.8 368.6,23.8 347.9,23.8 347.9,41 347.9,44.9 347.9,62.2 347.9,71 347.9,88.8 347.9,99.2 
		347.9,111.7 347.9,127.2 368.6,127.2 379,127.2 389.3,127.2 410,127.2 410,99.2 379,99.2 379,51.8 410,51.8 410,50.6 410,23.8 	"/>
	<path class="st7" d="M237.6,23.8h-20.7h-31v28.1h41.4v10.3H217h-20.7H186v65.1h10.3H217l0,0h10.3h10.3l0,0h20.7V99.2V88.9v-5.1
		V67.4v-5.2V51.9v-1.3v-8.9V23.8H237.6z M227.2,99.2h-10.3V88.9h10.3V99.2z"/>
	<polygon class="st7" points="303.1,23.8 303.1,48.6 292.8,23.8 292.8,23.8 292.8,23.8 272.1,23.8 272.1,44.9 272.1,62.2 
		272.1,67.4 272.1,71 272.1,88.8 272.1,99.2 272.1,111.7 272.1,127.2 292.8,127.2 303.1,127.2 303.1,102.4 313.4,127.2 313.4,127.2 
		313.4,127.2 334.1,127.2 334.1,99.2 334.1,88.8 334.1,83.8 334.1,83.7 334.1,67.4 334.1,62.2 334.1,51.8 334.1,50.6 334.1,23.8 
		334.1,23.8 	"/>
</g>
<g class="st0">
	<g class="st1">
		<rect x="54.8" y="20.8" class="st8" width="31" height="49.9"/>
		<polygon class="st8" points="54.8,-22.8 54.8,-10.2 54.8,5.3 85.9,5.3 85.9,-10.2 85.9,-22.8 		"/>
	</g>
</g>
<g class="st0">
	<g class="st1">
		<g>
			<rect x="54.8" y="251.8" class="st8" width="31" height="59.9"/>
			<polygon class="st8" points="54.8,208.3 54.8,220.8 54.8,236.3 85.9,236.3 85.9,220.8 85.9,208.3 			"/>
		</g>
	</g>
	<g class="st1">
		<g>
			<rect x="10" y="261.8" class="st8" width="31" height="49.9"/>
			<polygon class="st8" points="10,218.3 10,230.8 10,246.3 41,246.3 41,230.8 41,218.3 			"/>
		</g>
	</g>
	<g class="st1">
		<polygon class="st8" points="141,208.3 141,220.8 141,236.3 172.1,236.3 172.1,220.8 172.1,208.3 		"/>
		<path class="st8" d="M130.7,246.7v-38.4H110H99.7v103.4H110h20.7H141h10.3H172v-28.1v-10.3v-5.1v-16.4v-5.2h-41.3V246.7z
			 M141,283.7h-10.3v-10.3H141V283.7z"/>
	</g>
	<polygon class="st9" points="389.3,208.3 368.6,208.3 347.9,208.3 347.9,225.5 347.9,229.4 347.9,246.7 347.9,255.5 347.9,273.3 
		347.9,283.7 347.9,296.2 347.9,311.7 368.6,311.7 379,311.7 389.3,311.7 410,311.7 410,283.7 379,283.7 379,236.3 410,236.3 
		410,235.1 410,208.3 	"/>
	<path class="st9" d="M237.6,208.3h-20.7h-31v28.1h41.4v10.3H217h-20.7H186v65.1h10.3H217l0,0h10.3h10.3l0,0h20.7v-28.1v-10.3v-5.1
		v-16.4v-5.2v-10.3v-1.3v-8.9v-17.9L237.6,208.3L237.6,208.3z M227.2,283.7h-10.3v-10.3h10.3V283.7z"/>
	<polygon class="st9" points="303.1,208.3 303.1,233.1 292.8,208.3 292.8,208.3 292.8,208.3 272.1,208.3 272.1,229.4 272.1,246.7 
		272.1,251.8 272.1,255.5 272.1,273.3 272.1,283.7 272.1,296.2 272.1,311.7 292.8,311.7 303.1,311.7 303.1,286.9 313.4,311.7 
		313.4,311.7 313.4,311.7 334.1,311.7 334.1,283.7 334.1,273.3 334.1,268.2 334.1,268.2 334.1,251.8 334.1,246.7 334.1,236.3 
		334.1,235.1 334.1,208.3 334.1,208.3 	"/>
</g>
<g class="st0">
	<polygon class="st7" points="420,61.8 420,13.8 344.1,13.8 337.9,13.8 268.3,13.8 262.1,13.8 182.1,13.8 175.9,13.8 140.7,13.8 
		131,13.8 95.9,13.8 95.9,-17.2 44.8,-17.2 44.8,13.8 0,13.8 0,52.2 0,61.8 0,137.2 89.7,137.2 95.9,137.2 175.9,137.2 182.1,137.2 
		262.1,137.2 268.3,137.2 337.9,137.2 344.1,137.2 420,137.2 420,89.2 389,89.2 389,61.8 	"/>
	<g class="st1">
		<polygon class="st5" points="41,62.2 10,62.2 10,99.2 10,99.2 10,127.2 10,127.2 41,127.2 85.9,127.2 85.9,99.2 41,99.2 		"/>
		<polygon class="st5" points="41,36.3 41,23.8 10,23.8 10,36.3 10,51.8 41,51.8 		"/>
		<rect x="54.8" y="31.2" class="st6" width="31" height="57.7"/>
		<polygon class="st6" points="54.8,5.3 54.8,20.8 85.9,20.8 85.9,5.3 85.9,-7.2 54.8,-7.2 		"/>
		<polygon class="st5" points="141,36.3 141,51.8 172.1,51.8 172.1,36.3 172.1,23.8 141,23.8 		"/>
		<path class="st5" d="M130.7,23.8H110H99.7v103.4H110h20.7H141h10.3H172V99.1V88.8v-5.1V67.3v-5.2h-41.4L130.7,23.8L130.7,23.8z
			 M141,88.8v10.3h-10.3V88.8H141z"/>
		<polygon class="st5" points="389.3,23.8 368.6,23.8 347.9,23.8 347.9,41 347.9,44.9 347.9,62.2 347.9,71 347.9,88.8 347.9,99.2 
			347.9,111.7 347.9,127.2 368.6,127.2 379,127.2 389.3,127.2 410,127.2 410,99.2 379,99.2 379,51.8 410,51.8 410,50.6 410,23.8 		
			"/>
		<path class="st5" d="M216.9,23.8h-31v28.1h41.4v10.3H217h-20.7H186v65.1h10.3H217h10.3h10.3h20.7V99.2V88.9v-5.1V67.4v-5.2V51.9
			v-1.3v-8.9V23.8h-20.7H216.9z M227.2,99.2h-10.3V88.9h10.3V99.2z"/>
		<polygon class="st5" points="303.1,48.6 292.8,23.8 292.8,23.8 292.8,23.8 272.1,23.8 272.1,44.9 272.1,62.2 272.1,67.4 272.1,71 
			272.1,88.8 272.1,99.2 272.1,111.7 272.1,127.2 292.8,127.2 303.1,127.2 303.1,102.4 313.4,127.2 313.4,127.2 313.4,127.2 
			334.1,127.2 334.1,99.2 334.1,88.8 334.1,83.8 334.1,83.7 334.1,67.4 334.1,62.2 334.1,51.8 334.1,50.6 334.1,23.8 334.1,23.8 
			303.1,23.8 		"/>
	</g>
	<g class="st1">
		<polygon class="st5" points="41,62.2 10,62.2 10,99.2 10,99.2 10,127.2 10,127.2 41,127.2 85.9,127.2 85.9,99.2 41,99.2 		"/>
		<polygon class="st5" points="41,36.3 41,23.8 10,23.8 10,36.3 10,51.8 41,51.8 		"/>
		<rect x="54.8" y="31.2" class="st6" width="31" height="57.7"/>
		<polygon class="st6" points="54.8,5.3 54.8,20.8 85.9,20.8 85.9,5.3 85.9,-7.2 54.8,-7.2 		"/>
		<polygon class="st5" points="141,36.3 141,51.8 172.1,51.8 172.1,36.3 172.1,23.8 141,23.8 		"/>
		<path class="st5" d="M130.7,23.8H110H99.7v103.4H110h20.7H141h10.3H172V99.1V88.8v-5.1V67.3v-5.2h-41.4L130.7,23.8L130.7,23.8z
			 M141,88.8v10.3h-10.3V88.8H141z"/>
		<polygon class="st5" points="389.3,23.8 368.6,23.8 347.9,23.8 347.9,41 347.9,44.9 347.9,62.2 347.9,71 347.9,88.8 347.9,99.2 
			347.9,111.7 347.9,127.2 368.6,127.2 379,127.2 389.3,127.2 410,127.2 410,99.2 379,99.2 379,51.8 410,51.8 410,50.6 410,23.8 		
			"/>
		<path class="st5" d="M216.9,23.8h-31v28.1h41.4v10.3H217h-20.7H186v65.1h10.3H217h10.3h10.3h20.7V99.2V88.9v-5.1V67.4v-5.2V51.9
			v-1.3v-8.9V23.8h-20.7H216.9z M227.2,99.2h-10.3V88.9h10.3V99.2z"/>
		<polygon class="st5" points="303.1,48.6 292.8,23.8 292.8,23.8 292.8,23.8 272.1,23.8 272.1,44.9 272.1,62.2 272.1,67.4 272.1,71 
			272.1,88.8 272.1,99.2 272.1,111.7 272.1,127.2 292.8,127.2 303.1,127.2 303.1,102.4 313.4,127.2 313.4,127.2 313.4,127.2 
			334.1,127.2 334.1,99.2 334.1,88.8 334.1,83.8 334.1,83.7 334.1,67.4 334.1,62.2 334.1,51.8 334.1,50.6 334.1,23.8 334.1,23.8 
			303.1,23.8 		"/>
	</g>
	<g class="st1">
		<g>
			<rect x="135" y="420.8" class="st10" width="11.6" height="24.4"/>
			<rect x="135" y="434.7" class="st10" width="28.4" height="10.5"/>
			<polygon class="st10" points="135,406.4 135,411.1 135,416.9 146.6,416.9 146.6,411.1 146.6,406.4 			"/>
		</g>
		<g>
			<rect x="151.8" y="409.2" class="st10" width="11.6" height="21.6"/>
			<polygon class="st10" points="151.8,394.8 151.8,399.5 151.8,405.3 163.4,405.3 163.4,399.5 163.4,394.8 			"/>
		</g>
		<g>
			<polygon class="st10" points="184.1,406.4 184.1,411.1 184.1,416.9 195.8,416.9 195.8,411.1 195.8,406.4 			"/>
			<path class="st10" d="M180.3,420.8v-14.4h-7.8h-3.9v38.8h3.9h7.8h3.9h3.9h7.8v-10.5v-3.9v-1.9v-6.1v-1.9h-15.6
				C180.3,420.9,180.3,420.8,180.3,420.8z M184.1,434.7h-3.9v-3.9h3.9V434.7z"/>
		</g>
		<polygon class="st10" points="277.2,406.4 269.5,406.4 261.7,406.4 261.7,412.9 261.7,414.3 261.7,420.8 261.7,424.1 261.7,430.8 
			261.7,434.7 261.7,439.4 261.7,445.2 269.5,445.2 273.4,445.2 277.2,445.2 285,445.2 285,434.7 273.4,434.7 273.4,416.9 
			285,416.9 285,416.5 285,406.4 		"/>
		<path class="st10" d="M220.3,406.4h-7.8h-11.6v10.5h15.5v3.9h-3.9h-7.8h-3.9v24.4h3.9h7.8l0,0h3.9h3.9l0,0h7.8v-10.5v-3.9v-1.9
			v-6.1v-1.9V417v-0.5v-3.3v-6.7h-7.8L220.3,406.4L220.3,406.4z M216.5,434.7h-3.9v-3.9h3.9V434.7z"/>
		<polygon class="st10" points="244.9,406.4 244.9,415.7 241,406.4 241,406.4 241,406.4 233.3,406.4 233.3,414.3 233.3,420.8 
			233.3,422.8 233.3,424.1 233.3,430.8 233.3,434.7 233.3,439.4 233.3,445.2 241,445.2 244.9,445.2 244.9,435.9 248.8,445.2 
			248.8,445.2 248.8,445.2 256.6,445.2 256.6,434.7 256.6,430.8 256.6,428.9 256.6,428.9 256.6,422.8 256.6,420.8 256.6,416.9 
			256.6,416.5 256.6,406.4 256.6,406.4 		"/>
	</g>
</g>
<g class="st0">
	<polygon class="st7" points="710,2.9 683.2,2.9 677.4,2.9 644.8,2.9 638.9,2.9 612.1,2.9 612.1,47.1 638.9,47.1 638.9,166 
		683.2,166 683.2,47.1 710,47.1 	"/>
	<path class="st7" d="M573.7,2.9h-32.6h-16.3h-16.3h-32.6v44.2v16.3v8v25.9v8.2v16.3v2v14V166h48.9v-44.2v-8.9v-7.4h16.3V166H590
		V2.9H573.7z M524.8,63.5v-9.3v-7.1h16.3v16.3L524.8,63.5L524.8,63.5z"/>
	<path class="st7" d="M421.5,2.9h-16.3h-16.3h-32.6H340V166h16.3h32.6v-60.5l16.3,60.5h48.9l-16.3-60.5h16.3v-8.2V71.4v-8V47.1V2.9
		H421.5z M388.8,47.1h16.3v16.3h-16.3V47.1z"/>
	<polygon class="st7" points="252.9,47.1 252.9,2.9 204,2.9 204,31.2 204,45.2 204,47.1 204,63.5 204,71.6 204,97.5 204,105.5 
		204,121.8 204,166 236.6,166 252.9,166 269.2,166 301.8,166 318.1,166 318.1,2.9 269.2,2.9 269.2,121.8 252.9,121.8 252.9,114.7 
		252.9,105.5 252.9,63.5 252.9,56.1 	"/>
	<polygon class="st7" points="-19,47.1 46.3,47.1 46.3,2.9 -2.7,2.9 -35.3,2.9 -67.9,2.9 -67.9,31.2 -67.9,45.2 -67.9,47.1 
		-67.9,63.5 -67.9,71.6 -67.9,97.5 -67.9,105.5 -67.9,121.8 -67.9,166 -35.3,166 -19,166 -2.7,166 30,166 46.3,166 46.3,63.5 
		30,63.5 -2.7,63.5 -7.9,63.5 -7.9,105.5 -2.7,105.5 -2.7,121.8 -19,121.8 -19,114.7 -19,105.5 -19,63.5 -19,56.1 	"/>
	<polygon class="st7" points="117,47.1 182.2,47.1 182.2,2.9 133.3,2.9 100.7,2.9 68,2.9 68,31.2 68,45.2 68,47.1 68,63.5 68,71.6 
		68,97.5 68,105.5 68,121.8 68,166 100.7,166 117,166 133.3,166 165.9,166 182.2,166 182.2,63.5 165.9,63.5 133.3,63.5 128,63.5 
		128,105.5 133.3,105.5 133.3,121.8 117,121.8 117,114.7 117,105.5 117,63.5 117,56.1 	"/>
	<g class="st1">
		<rect x="-138.6" y="-46" class="st6" width="44.2" height="27.2"/>
		<rect x="-138.6" y="2.9" class="st6" width="48.9" height="97.1"/>
	</g>
	<polygon class="st7" points="-214,121.8 -160.3,47.1 -160.3,45.2 -160.3,2.9 -193,2.9 -225.6,2.9 -258.2,2.9 -258.2,30.1 
		-258.2,36.2 -258.2,47.1 -204.6,47.1 -258.2,121.8 -290,166 -89.7,166 -89.7,121.8 	"/>
</g>
<g class="st0">
	<polygon class="st11" points="710,2.9 683.2,2.9 677.4,2.9 644.8,2.9 638.9,2.9 612.1,2.9 612.1,47.1 638.9,47.1 638.9,166 
		683.2,166 683.2,47.1 710,47.1 	"/>
	<path class="st11" d="M573.7,2.9h-32.6h-16.3h-16.3h-32.6v44.2v16.3v8v25.9v8.2v16.3v2v14V166h48.9v-44.2v-8.9v-7.4h16.3V166H590
		V2.9H573.7z M524.8,63.5v-9.3v-7.1h16.3v16.3L524.8,63.5L524.8,63.5z"/>
	<path class="st11" d="M421.5,2.9h-16.3h-16.3h-32.6H340V166h16.3h32.6v-60.5l16.3,60.5h48.9l-16.3-60.5h16.3v-8.2V71.4v-8V47.1V2.9
		H421.5z M388.8,47.1h16.3v16.3h-16.3V47.1z"/>
	<polygon class="st11" points="252.9,47.1 252.9,2.9 204,2.9 204,31.2 204,45.2 204,47.1 204,63.5 204,71.6 204,97.5 204,105.5 
		204,121.8 204,166 236.6,166 252.9,166 269.2,166 301.8,166 318.1,166 318.1,2.9 269.2,2.9 269.2,121.8 252.9,121.8 252.9,114.7 
		252.9,105.5 252.9,63.5 252.9,56.1 	"/>
	<polygon class="st11" points="-19,47.1 46.3,47.1 46.3,2.9 -2.7,2.9 -35.3,2.9 -67.9,2.9 -67.9,31.2 -67.9,45.2 -67.9,47.1 
		-67.9,63.5 -67.9,71.6 -67.9,97.5 -67.9,105.5 -67.9,121.8 -67.9,166 -35.3,166 -19,166 -2.7,166 30,166 46.3,166 46.3,63.5 
		30,63.5 -2.7,63.5 -7.9,63.5 -7.9,105.5 -2.7,105.5 -2.7,121.8 -19,121.8 -19,114.7 -19,105.5 -19,63.5 -19,56.1 	"/>
	<polygon class="st11" points="117,47.1 182.2,47.1 182.2,2.9 133.3,2.9 100.7,2.9 68,2.9 68,31.2 68,45.2 68,47.1 68,63.5 68,71.6 
		68,97.5 68,105.5 68,121.8 68,166 100.7,166 117,166 133.3,166 165.9,166 182.2,166 182.2,63.5 165.9,63.5 133.3,63.5 128,63.5 
		128,105.5 133.3,105.5 133.3,121.8 117,121.8 117,114.7 117,105.5 117,63.5 117,56.1 	"/>
	<g class="st1">
		<rect x="-138.6" y="-46" class="st12" width="44.2" height="27.2"/>
		<rect x="-138.6" y="2.9" class="st12" width="48.9" height="97.1"/>
	</g>
	<polygon class="st11" points="-214,121.8 -160.3,47.1 -160.3,45.2 -160.3,2.9 -193,2.9 -225.6,2.9 -258.2,2.9 -258.2,30.1 
		-258.2,36.2 -258.2,47.1 -204.6,47.1 -258.2,121.8 -290,166 -89.7,166 -89.7,121.8 	"/>
</g>
<g class="st0">
	<line class="st13" x1="-41.5" y1="-112" x2="-41.5" y2="43.1"/>
	<line class="st13" x1="-55.3" y1="-108" x2="-55.3" y2="47.1"/>
</g>
<g class="st0">
	<g class="st1">
		<polygon points="-72.1,378.4 -72.1,248.4 -62.1,248.4 -62.1,268.4 -42.1,268.4 -42.1,288.4 -22.1,288.4 -22.1,308.4 -2.1,308.4 
			-2.1,328.4 17.9,328.4 17.9,348.4 37.9,348.4 37.9,368.4 57.9,368.4 57.9,378.4 		"/>
		<path class="st12" d="M-67.1,253.4v10v10h10h10v10v10h10h10v10v10h10h10v10v10h10h10v10v10h10h10v10v10h10h10h-120V253.4
			 M-57.1,243.4h-20v140h140v-20h-20v-20h-20v-20h-20v-20h-20v-20h-20v-20h-20L-57.1,243.4L-57.1,243.4z"/>
	</g>
	<g class="st1">
		<polygon points="-237.3,387.9 -237.3,377.9 -217.3,377.9 -217.3,357.9 -197.3,357.9 -197.3,337.9 -177.3,337.9 -177.3,317.9 
			-157.3,317.9 -157.3,297.9 -137.3,297.9 -137.3,277.9 -117.3,277.9 -117.3,257.9 -97.3,257.9 -97.3,237.9 -66.6,237.9 
			-66.6,387.9 		"/>
		<path class="st12" d="M-71.6,242.9v140h-140.7v-10v-10h10h10v-10v-10h10h10v-10v-10h10h10v-10v-10h10h10v-10v-10h10h10v-10v-10h10
			h10v-10v-10H-71.6 M-61.6,232.9h-30.7h10h-20v20h-20v20h-20v20h-20v20h-20v20h-20v20h-20v20h-20v20h20h160.7L-61.6,232.9
			L-61.6,232.9z"/>
	</g>
	<polygon class="st1" points="-222.3,353.4 -202.3,353.4 -202.3,333.4 -182.3,333.4 -182.3,313.4 -162.3,313.4 -162.3,293.4 
		-142.3,293.4 -142.3,273.4 -122.3,273.4 -122.3,253.4 -252.3,253.4 -252.3,393.4 -222.3,393.4 	"/>
</g>
<g class="st0">
	<rect x="4" y="-66" class="st1" width="20" height="20"/>
	<rect x="24" y="-86" class="st1" width="20" height="20"/>
	<rect x="44" y="-106" class="st1" width="20" height="20"/>
	<rect x="64" y="-126" class="st1" width="20" height="20"/>
	<rect x="84" y="-146" class="st1" width="20" height="20"/>
	<rect x="104" y="-166" class="st1" width="20" height="20"/>
	<rect x="124" y="-186" class="st1" width="20" height="20"/>
	<rect x="144" y="-206" class="st1" width="20" height="20"/>
</g>
<g class="st0">
	<polygon class="st1" points="-69.1,241 -69.1,384.1 -58.5,395.2 -58.5,288.9 -58.5,246.3 -69.1,235.2 	"/>
</g>
<polygon class="st0" points="26.5,22.9 26.5,35.2 38.8,35.2 51.2,35.2 51.2,47.6 51.2,59.9 63.5,59.9 75.9,59.9 75.9,72.3 
	75.9,84.6 100.6,84.6 100.6,109.3 112.9,109.3 125.3,109.3 125.3,135 0.9,134 0.9,17.3 0.9,11.1 0.9,10.5 26.5,10.5 "/>
<g class="st0">
	<polygon class="st1" points="-24.1,-26.6 -24.1,-14.1 -24.1,-1.7 -24.1,10.2 -49,10.2 -49,10.8 -49,23.2 -61.4,23.2 -73.8,23.2 
		-73.8,35.7 -73.8,48.1 -86.3,48.1 -98.7,48.1 -98.7,60.5 -98.7,73 -111.2,73 -123.6,73 -123.6,97.9 1.7,97.9 1.7,-19.8 1.7,-26 
		1.7,-26.6 	"/>
	<polygon class="st1" points="-112.2,59.4 -112.2,35.1 -87.3,35.1 -87.3,34.5 -87.3,10.2 -186.8,10.2 -212.3,10.2 -212.3,97.9 
		-212.3,109.1 -212.3,133.4 -186.8,133.4 -186.8,97.9 -161.9,97.9 -161.9,84.8 -137,84.8 -137,84.3 -137,60 -112.2,60 	"/>
</g>
<g class="st0">
	<rect x="26.5" y="6.5" class="st1" width="40.8" height="25.3"/>
	<rect x="26.5" y="56" class="st1" width="29.4" height="41.5"/>
</g>
<g class="st0">
	<polygon class="st7" points="-67.7,36.6 -45.7,36.6 -45.7,58.6 -34.7,58.6 -23.7,58.6 -23.7,69.6 -23.7,80.6 -12.7,80.6 -1.7,80.6 
		-1.7,91.6 -1.7,102.6 9.3,102.6 20,102.6 20,-45.2 20,-54.2 20,-55 -17,-55 -17,-37.1 -17,-19.2 -17,-2.2 -52.8,-2.2 -52.8,-1.3 
		-52.8,16.5 -67.7,16.5 -67.7,25.6 	"/>
	<polygon class="st14" points="-106.4,52.3 -124.3,52.3 -124.3,70.2 -124.3,88.1 -142.2,88.1 -160.1,88.1 -160.1,123.8 -90.4,123.8 
		-90.4,52.3 	"/>
	<polygon class="st7" points="-143.7,68.5 -143.7,33.6 -107.9,33.6 -107.9,32.8 -107.9,-2.2 -251,-2.2 -287.6,-2.2 -287.6,123.8 
		-287.6,140.1 -287.6,175 -251,175 -251,123.8 -215.2,123.8 -215.2,105.1 -179.4,105.1 -179.4,104.3 -179.4,69.4 -143.7,69.4 	"/>
</g>
<polygon class="st15" points="-67.7,-14.6 -45.7,-14.6 -45.7,7.4 -34.7,7.4 -23.7,7.4 -23.7,18.4 -23.7,29.4 -12.7,29.4 -1.7,29.4 
	-1.7,40.4 -1.7,51.4 9.3,51.4 20,51.4 20,-52.5 20,-52.5 20,-52.5 -17,-52.5 -67.7,-52.5 -67.7,-52.5 -67.7,-34.6 -67.7,-34.6 
	-67.7,-25.6 "/>
<g class="st0">
	<g class="st1">
		<g>
			<path class="st12" d="M127.8-53.3v22.8L86.1,74.3h41.7v22.5H61.7V74.1l41.8-104.8l-41.8,0.1v-22.7
				C61.7-53.3,127.8-53.3,127.8-53.3z"/>
			<path class="st12" d="M169.2,96.7h-22.6v-150h22.6V96.7z"/>
			<path class="st12" d="M225.2,98.6c-10,0-18.5-3.5-25.4-10.5c-7-7-10.5-15.4-10.5-25.3v-81.9c0-10,3.5-18.5,10.5-25.4
				c7-7,15.5-10.5,25.4-10.5c10,0,18.4,3.5,25.4,10.5c6.9,7,10.4,15.5,10.4,25.4V-2h-23.5v-17.6c0-3.6-1.3-6.7-3.8-9.2
				c-2.6-2.6-5.6-3.8-9.2-3.8s-6.6,1.3-9.2,3.8c-2.5,2.6-3.8,5.6-3.8,9.2v82.1c0,3.6,1.3,6.6,3.8,9.2c2.5,2.5,5.6,3.8,9.2,3.8
				s6.7-1.3,9.2-3.8c2.6-2.5,3.8-5.6,3.8-9.1V33.1h-12.6V10.4h36v52.4c0,10-3.5,18.4-10.5,25.4S235,98.6,225.2,98.6z"/>
			<path class="st12" d="M316.2,98.6c-10,0-18.5-3.5-25.4-10.5c-7-7-10.5-15.4-10.5-25.3v-81.9c0-10,3.5-18.5,10.5-25.4
				c7-7,15.5-10.5,25.4-10.5c10,0,18.4,3.5,25.4,10.5c6.9,7,10.4,15.5,10.4,25.4V-2h-23.5v-17.6c0-3.6-1.3-6.7-3.8-9.2
				c-2.6-2.6-5.6-3.8-9.2-3.8s-6.6,1.3-9.2,3.8c-2.5,2.6-3.8,5.6-3.8,9.2v82.1c0,3.6,1.3,6.6,3.8,9.2c2.5,2.5,5.6,3.8,9.2,3.8
				s6.7-1.3,9.2-3.8c2.6-2.5,3.8-5.6,3.8-9.1V33.1h-12.6V10.4h36v52.4c0,10-3.5,18.4-10.5,25.4S326,98.6,316.2,98.6z"/>
			<path class="st12" d="M407.2,98.4c-10,0-18.4-3.5-25.4-10.4c-6.9-6.9-10.4-15.4-10.4-25.3v-116h22.2V62.5c0,3.6,1.3,6.6,3.8,9.2
				c2.6,2.5,5.6,3.8,9.2,3.8s6.6-1.3,9.2-3.8s3.8-5.6,3.8-9.2V-53.3h23.6v116c0,10.1-3.5,18.5-10.5,25.4
				C425.5,95,417.1,98.4,407.2,98.4z"/>
			<path class="st12" d="M498.9-53.3c12.6,0,21.9,3.5,27.8,10.4c5.2,6.1,7.8,14.5,7.8,25.4V4.3c0,10.6-4,19.6-12.1,26.9l16.8,65.5
				h-24.5L501,40.2c-0.6,0-1.3,0-2,0h-13.1v56.5h-22.6v-150C463.3-53.3,498.9-53.3,498.9-53.3z M512.4-17.2
				c0-8.7-4.3-13.1-12.9-13.1h-13.7v48h13.7c3.6,0,6.6-1.3,9.2-3.8c2.5-2.6,3.8-5.6,3.8-9.2L512.4-17.2L512.4-17.2z"/>
			<path class="st12" d="M586.4,62.2l-5.5,34.5h-23.6l25.5-150H614l25.1,150h-23.8L610,62.2C610,62.2,586.4,62.2,586.4,62.2z
				 M598.3-19l-8.4,59.2h16.8L598.3-19z"/>
			<path class="st12" d="M661-30.6h-24v-22.7h70.7v22.8h-23.9V96.8H661V-30.6z"/>
		</g>
		<g>
			<path class="st12" d="M62.2,174.1v-59.6h28.4v7.7H70V139h12.9l-2.7,7.5H70v27.7L62.2,174.1L62.2,174.1z"/>
			<path class="st12" d="M180.1,114.5h7.7v43.8c0,12.5-9.5,16.4-17.9,16.4c-8.4,0-18-3.9-18-16.4v-43.8h7.7v41.6
				c0,7.2,3.1,11.2,10.1,11.2c7.2,0,10.2-4,10.2-11.2v-41.6C179.9,114.5,180.1,114.5,180.1,114.5z"/>
			<path class="st12" d="M288.7,174.1l-26.3-43.9v43.9h-7.7v-59.6h7.7l26.3,43.8v-43.8h7.8v59.6H288.7z"/>
			<path class="st12" d="M363.6,174.1v-59.7h16c13.2,0,19.8,8.1,19.8,19.3V157c0,13.2-8.3,17-18,17L363.6,174.1L363.6,174.1z
				 M391.6,132.9c0-7.7-4.8-10.8-11.2-10.8h-9.1v45h8.6c5.2,0,11.7-0.8,11.7-9.1V132.9z"/>
			<path class="st12" d="M466.7,174.1V122l-5.4-0.2v-7.3h13.2v59.6H466.7z"/>
			<path class="st12" d="M575.7,174.1l-26.3-43.9v43.9h-7.7v-59.6h7.7l26.3,43.8v-43.8h7.8v59.6H575.7z"/>
			<path class="st12" d="M677.2,174.1l-0.8-1.7c-2.4,1.6-5.2,2.6-9.3,2.6c-8.9,0-18-4.9-18-16.9v-26.7c0-8.3,2.9-12.7,7.4-15.4
				c5.5-3.2,14.6-2.7,21.2,0.7l-2.3,6.6c-3-1.1-5.4-1.6-8.3-1.6c-4.8,0-10.3,1.1-10.3,8.9v27.7c0,6.5,4.2,9,10.1,9
				c4.9,0,9.5-2.5,9.5-8.9v-2.2h-5.1l-2.6-7.5H684v25.5h-6.8L677.2,174.1L677.2,174.1z"/>
		</g>
	</g>
	<g class="st1">
		<polygon class="st12" points="-67.7,36.6 -45.7,36.6 -45.7,58.6 -34.7,58.6 -23.7,58.6 -23.7,69.6 -23.7,80.6 -12.7,80.6 
			-1.7,80.6 -1.7,91.6 -1.7,102.6 9.3,102.6 20,102.6 20,-45.2 20,-54.2 20,-55 -17,-55 -52.8,-2.2 -52.8,-1.3 -52.8,16.5 
			-67.7,16.5 -67.7,25.6 		"/>
		<polygon class="st12" points="-106.4,52.3 -124.3,52.3 -124.3,70.2 -124.3,88.1 -142.2,88.1 -160.1,88.1 -160.1,123.8 
			-90.4,123.8 -90.4,52.3 		"/>
		<polygon class="st12" points="-109.3,52.3 -91.4,52.3 -91.4,70.2 -91.4,88.1 -73.5,88.1 -55.6,88.1 -55.6,123.8 -125.3,123.8 
			-125.3,52.3 		"/>
		<polygon class="st12" points="-143.7,68.5 -143.7,33.6 -107.9,33.6 -107.9,32.8 -107.9,-2.2 -251,-2.2 -287.6,-2.2 -287.6,123.8 
			-287.6,140.1 -287.6,175 -251,175 -215.2,123.8 -215.2,105.1 -179.4,105.1 -179.4,104.3 -179.4,69.4 -143.7,69.4 		"/>
	</g>
</g>
<polygon class="st15" points="40,89.7 40,125.5 -138.9,125.5 -138.9,89.7 -137.2,89.7 -103.1,89.7 -103.1,65.9 -103.1,54 -86,54 
	-67.3,54 -67.3,18.2 -66.5,18.2 -31.6,18.2 -31.6,-17.6 -30.7,-17.6 4.2,-17.6 4.2,-53.3 5,-53.3 40,-53.3 "/>
<g class="st0">
	<g class="st1">
		<polygon points="-17,-55 -17,-37.1 -17,-19.2 -17,-2.2 -52.8,-2.2 -52.8,-1.3 -52.8,16.5 -70.7,16.5 -88.6,16.5 -88.6,34.4 
			-88.6,52.3 -106.4,52.3 -124.3,52.3 -124.3,70.2 -124.3,88.1 -142.2,88.1 -160.1,88.1 -160.1,123.8 20,123.8 20,-45.2 20,-54.2 
			20,-55 		"/>
		<polygon class="st12" points="-67.7,14.6 -67.7,25.6 -67.7,36.6 -45.7,36.6 -45.7,58.6 -34.7,58.6 -23.7,58.6 -23.7,69.6 
			-23.7,80.6 -12.7,80.6 -1.7,80.6 -1.7,91.6 -1.7,102.6 9.3,102.6 20.3,102.6 20.3,124.6 -90.4,124.6 -90.4,20.6 -90.4,15.1 
			-90.4,14.6 		"/>
		<polygon points="-143.7,68.5 -143.7,33.6 -107.9,33.6 -107.9,32.8 -107.9,-2.2 -251,-2.2 -287.6,-2.2 -287.6,123.8 -287.6,140.1 
			-287.6,175 -251,175 -251,123.8 -215.2,123.8 -215.2,105.1 -179.4,105.1 -179.4,104.3 -179.4,69.4 -143.7,69.4 		"/>
	</g>
</g>
<path class="st16" d="M-251,125.5v-1.7V89.7h23.8h11.9V72.6V54h35.8v-0.8v-35h35.8v-0.8v-35h4.8h31h4.8v34.9v0.8h35.8V53v0.8h35.8
	v18.7v17.1h11.9H4.2v34.1v1.7L-251,125.5L-251,125.5z"/>
<polygon class="st16" points="-194.2,104.5 -194.2,75 -158.4,75 -158.4,39.2 -88.3,39.2 -88.3,75 -52.6,75 -52.6,104.5 "/>
<polygon class="st16" points="-73.5,36.9 -90.4,36.9 -90.4,1.2 -91.4,1.2 -125.3,1.2 -125.3,36.9 -142.2,36.9 -160.1,36.9 
	-160.1,72.7 -125.3,72.7 -90.4,72.7 -55.6,72.7 -55.6,36.9 "/>
<g class="st0">
	<g class="st1">
		<polygon class="st5" points="26.6,-24.1 26.6,129 -24.4,129 -24.4,127.8 -24.4,78 -75.4,78 -75.4,76.8 -75.4,27 -126.4,27 
			-126.4,25.8 -126.4,-24.1 		"/>
	</g>
	<g class="st1">
		<polygon class="st6" points="-109.2,107.3 -109.2,140.2 -273.4,140.2 -273.4,107.3 -271.8,107.3 -240.5,107.3 -240.5,85.4 
			-240.5,74.5 -224.9,74.5 -207.7,74.5 -207.7,41.6 -206.9,41.6 -174.8,41.6 -174.8,8.8 -174.1,8.8 -142,8.8 -142,-24.1 
			-141.2,-24.1 -109.2,-24.1 		"/>
		<polygon class="st6" points="-137.6,107.3 -137.6,140.2 26.6,140.2 26.6,107.3 25.1,107.3 -6.2,107.3 -6.2,85.4 -6.2,74.5 
			-21.9,74.5 -39.1,74.5 -39.1,41.6 -39.8,41.6 -71.9,41.6 -71.9,8.8 -72.7,8.8 -104.7,8.8 -104.7,-24.1 -105.5,-24.1 -137.6,-24.1 
					"/>
		<rect x="-273.4" y="-53" class="st5" width="300" height="14"/>
		<rect x="-273.4" y="155.1" class="st5" width="300" height="14"/>
	</g>
	<g class="st1">
		<polygon class="st5" points="-273.4,-24.1 -273.4,74.5 -240.5,74.5 -240.5,73.7 -240.5,41.6 -207.7,41.6 -207.7,40.9 -207.7,8.8 
			-174.8,8.8 -174.8,8 -174.8,-24.1 		"/>
	</g>
</g>
<g class="st0">
	<polygon class="st7" points="428.5,-313 428.5,-215.9 396.1,-215.9 396.1,-216.6 396.1,-248.3 363.7,-248.3 363.7,-249 
		363.7,-280.6 331.4,-280.6 331.4,-281.4 331.4,-313 	"/>
</g>
<polygon class="st16" points="313.4,-228.1 313.4,-207.3 417.6,-207.3 417.6,-228.1 416.6,-228.1 396.7,-228.1 396.7,-242 
	396.7,-248.9 386.8,-248.9 375.9,-248.9 375.9,-269.8 375.4,-269.8 355.1,-269.8 355.1,-290.6 354.6,-290.6 334.2,-290.6 
	334.2,-311.5 333.7,-311.5 313.4,-311.5 "/>
<g class="st0">
	<polygon class="st7" points="-86.7,-274.8 -86.7,-212.3 -65.9,-212.3 -65.9,-212.8 -65.9,-233.1 -45.1,-233.1 -45.1,-233.6 
		-45.1,-254 -24.2,-254 -24.2,-254.5 -24.2,-274.8 	"/>
</g>
<path class="st17" d="M-743,535h-153.4c-5.4,0-10.3-1.9-14.1-5.1c-4.8-4-7.9-10.1-7.9-16.9V359.6c0-6.1,2.5-11.6,6.4-15.6
	c4-4,9.5-6.4,15.6-6.4H-743c6.1,0,11.6,2.5,15.6,6.4c4,4,6.4,9.5,6.4,15.6V513c0,6.1-2.5,11.6-6.4,15.6
	C-731.4,532.5-736.9,535-743,535z"/>
<line class="st18" x1="249.9" y1="-218.6" x2="-30.1" y2="-218.6"/>
<g class="st0">
	<path class="st19" d="M274.1,85.9h-3.9v19.5h3.8c2.3,0,5.1-0.3,5.1-3.9V90.6l0,0C278.9,87.2,276.7,85.9,274.1,85.9z"/>
	<path class="st19" d="M325.7,19.7h-5.9v20.9h5.9c1.6,0,3-0.7,3.9-1.6c1.1-1.1,1.6-2.5,1.6-3.9v-9.5h-0.2
		C331.2,21.7,329.4,19.7,325.7,19.7z"/>
	<polygon class="st19" points="364.9,50.4 372.1,50.4 368.5,24.6 	"/>
	<path class="st19" d="M98.6,10.8h-81C11.2,10.8,6,16,6,22.3v76.8c0,6.3,5.2,11.5,11.5,11.5h81c6.3,0,11.5-5.2,11.5-11.5V22.3
		C110.1,15.9,104.9,10.8,98.6,10.8z M105,88.9v10.2c0,3.5-2.9,6.4-6.4,6.4h-81c-3.5,0-6.4-2.9-6.4-6.4V88.9V22.3
		c0-3.5,2.9-6.4,6.4-6.4h81c3.5,0,6.4,2.9,6.4,6.4V88.9z"/>
	<g class="st1">
		<polygon class="st5" points="135.8,19.5 153.9,19.5 135.8,65 135.8,74.7 164.4,74.7 164.4,65 146.3,65 164.4,19.5 164.4,9.7 
			135.8,9.7 		"/>
		<rect x="172.6" y="9.7" class="st5" width="9.9" height="65.2"/>
		<path class="st5" d="M222.2,37.4h-15.8v9.9h5.4v12.8c0,1.6-0.7,3-1.6,3.9c-1.1,1.1-2.5,1.6-3.9,1.6c-1.6,0-3-0.7-3.9-1.6
			c-1-1-1.6-2.5-1.6-3.9V24.3c0-1.6,0.7-3,1.6-3.9c1.1-1.1,2.5-1.6,3.9-1.6c1.6,0,3,0.7,3.9,1.6c1.1,1.1,1.6,2.5,1.6,3.9l10.2,0.2
			c0-4.3-1.5-7.9-4.4-11c-3-3.1-6.7-4.6-11-4.6c-4.3,0-7.9,1.6-11,4.6c-3.1,3.1-4.6,6.7-4.6,11v35.5c0,4.3,1.6,7.9,4.6,11
			c3.1,3.1,6.7,4.6,11,4.6c4.3,0,7.9-1.5,10.8-4.4c3.1-3,4.6-6.7,4.6-11V37.4H222.2z"/>
		<path class="st5" d="M241.7,20.3c1.1-1.1,2.5-1.6,3.9-1.6c1.6,0,3,0.7,3.9,1.6c1.1,1.1,1.6,2.5,1.6,3.9l10.2,0.2
			c0-4.3-1.5-7.9-4.4-11c-3-3.1-6.7-4.6-11-4.6c-4.3,0-7.9,1.6-11,4.6c-3.1,3.1-4.6,6.7-4.6,11v35.5c0,4.3,1.6,7.9,4.6,11
			c3.1,3.1,6.7,4.6,11,4.6c4.3,0,7.9-1.5,10.8-4.4c3.1-3,4.6-6.7,4.6-11V37.4h-15.6v9.9h5.4v12.8c0,1.6-0.7,3-1.6,3.9
			c-1,1-2.5,1.6-3.9,1.6c-1.6,0-3-0.7-3.9-1.6c-1-1-1.6-2.5-1.6-3.9V24.3C240.1,22.6,240.8,21.3,241.7,20.3z"/>
		<path class="st5" d="M291.2,59.9c0,1.6-0.7,3-1.6,3.9c-1.1,1.1-2.5,1.6-3.9,1.6c-1.6,0-3-0.7-3.9-1.6c-1.1-1.1-1.6-2.5-1.6-3.9
			V9.7h-9.7v50.4c0,4.3,1.5,8,4.4,11c3,3,6.7,4.4,11,4.4s8-1.5,11.2-4.6c3.1-3,4.6-6.7,4.6-11V9.7h-10.2v50.2H291.2z"/>
		<path class="st5" d="M340.9,34.6v-9.5c0-4.6-1.1-8.4-3.4-11c-2.6-3-6.6-4.4-12-4.4h-15.6v65.2h9.9V50.4h5.6c0.3,0,0.7,0,1,0
			l5.9,24.5h10.7l-7.2-28.4C339.1,43.2,340.9,39.2,340.9,34.6z M331.4,34.8c0,1.6-0.7,3-1.6,3.9c-1.1,1.1-2.5,1.6-3.9,1.6h-5.9V19.7
			h5.9c3.8,0,5.6,2,5.6,5.6h0.2v9.5H331.4z"/>
		<path class="st5" d="M361.9,9.7l-11.2,65H361l2.5-14.9h10.2l2.3,14.9h10.3l-10.8-65H361.9z M364.9,50.4l3.6-25.6l3.6,25.6
			C372.1,50.4,364.9,50.4,364.9,50.4z"/>
		<polygon class="st5" points="382.1,9.7 383.8,19.5 395.8,19.5 395.8,74.7 405.6,74.7 405.6,19.5 416,19.5 416,9.7 		"/>
		<polygon class="st5" points="136,108.4 139.3,108.4 139.3,96.4 143.7,96.4 144.9,93.1 139.3,93.1 139.3,85.9 148.3,85.9 
			148.3,82.6 136,82.6 		"/>
		<path class="st5" d="M187.1,82.6v18.1c0,3.1-1.3,4.8-4.4,4.8s-4.4-1.8-4.4-4.8V82.6h-3.3v19c0,5.4,4.1,7.2,7.9,7.2
			c3.6,0,7.7-1.8,7.7-7.2v-19H187.1L187.1,82.6z"/>
		<polygon class="st5" points="234.2,101.5 222.9,82.6 219.6,82.6 219.6,108.4 222.9,108.4 222.9,89.3 234.2,108.4 237.6,108.4 
			237.6,82.6 234.2,82.6 		"/>
		<path class="st5" d="M273.8,82.6h-7.1v25.8v0.2h7.7c4.3,0,7.9-1.6,7.9-7.4V91C282.3,86,279.5,82.6,273.8,82.6z M278.9,101.5
			c0,3.6-2.8,3.9-5.1,3.9H270V85.9h3.9c2.8,0,4.8,1.3,4.8,4.6l0,0v11H278.9z"/>
		<polygon class="st5" points="309.1,85.7 311.5,85.7 311.5,108.4 314.8,108.4 314.8,82.6 309.1,82.6 		"/>
		<polygon class="st5" points="358.8,101.5 347.3,82.6 344,82.6 344,108.4 347.3,108.4 347.3,89.3 358.8,108.4 362.3,108.4 
			362.3,82.6 358.8,82.6 		"/>
		<path class="st5" d="M400.4,100.6h2.3v1c0,2.8-2,3.9-4.1,3.9c-2.6,0-4.4-1.1-4.4-3.9v-12c0-3.4,2.5-3.9,4.4-3.9
			c1.3,0,2.3,0.2,3.6,0.7l1-3c-3-1.5-6.9-1.8-9.2-0.3c-2,1.1-3.3,3-3.3,6.7v11.5c0,5.3,3.9,7.4,7.9,7.4c1.8,0,3-0.5,3.9-1.1l0.3,0.8
			v0.2h3.1v-11h-6.7L400.4,100.6z"/>
		<path class="st5" d="M98.6,5.7h-81C8.4,5.7,1,13.1,1,22.3v76.8c0,9.1,7.4,16.6,16.6,16.6h81c9.1,0,16.6-7.4,16.6-16.6V22.3
			C115,13.1,107.7,5.7,98.6,5.7z M110.1,99.1c0,6.3-5.2,11.5-11.5,11.5h-81c-6.3,0-11.5-5.2-11.5-11.5V22.3
			c0-6.3,5.2-11.5,11.5-11.5h81c6.3,0,11.5,5.2,11.5,11.5V99.1z"/>
		<path class="st5" d="M98.6,20.9h-81c-0.8,0-1.4,0.6-1.4,1.4v64h4.4V74.8c0-1.4,1.1-2.5,2.5-2.5h4.6v-9.1c0-1.4,1.1-2.5,2.5-2.5
			h7.6v-9.5c0-1.4,1.1-2.5,2.5-2.5h7.6v-9.1H42v-5.1h8.3h15.2h8.3v5.1H68v9.1h7.6c1.4,0,2.5,1.1,2.5,2.5v9.5h7.6
			c1.4,0,2.5,1.1,2.5,2.5v9.1h4.6c1.4,0,2.5,1.1,2.5,2.5v11.5h4.4V22.3C99.9,21.5,99.3,20.9,98.6,20.9z"/>
		<polygon class="st5" points="25.6,77.4 25.6,86.4 90.5,86.4 90.5,77.4 85.8,77.4 30.1,77.4 		"/>
		<path class="st5" d="M22.5,91.4h-6.4v7.7c0,0.8,0.6,1.4,1.4,1.4h81c0.8,0,1.4-0.6,1.4-1.4v-7.7h-6.5H22.5z"/>
		<polygon class="st5" points="42.8,53.7 42.8,60.7 73.2,60.7 73.2,53.7 65.6,53.7 50.4,53.7 		"/>
		<polygon class="st5" points="32.7,65.8 32.7,72.3 83.3,72.3 83.3,65.8 75.7,65.8 40.3,65.8 		"/>
		<rect x="52.9" y="39.6" class="st5" width="10.1" height="9.1"/>
	</g>
	<path class="st14" d="M98.6,15.8h-81c-3.5,0-6.4,2.9-6.4,6.4v66.5V99c0,3.5,2.9,6.4,6.4,6.4h81c3.5,0,6.4-2.9,6.4-6.4V88.9V22.3
		C105,18.7,102.1,15.8,98.6,15.8z M17.5,100.5c-0.8,0-1.4-0.6-1.4-1.4v-7.7h6.4h70.9h6.4v7.7c0,0.8-0.6,1.4-1.4,1.4H17.5z
		 M40.3,65.8h35.5h7.6v6.5H32.7v-6.5H40.3z M50.4,53.7h15.2h7.6v7H42.8v-7H50.4z M52.9,39.6H63v9.1H52.9V39.6z M30.1,77.4h55.6h4.7
		v9H25.6v-9H30.1z M95.5,86.4V74.8c0-1.4-1.1-2.5-2.5-2.5h-4.6v-9.1c0-1.4-1.1-2.5-2.5-2.5h-7.6v-9.5c0-1.4-1.1-2.5-2.5-2.5h-7.6
		v-9.1H74v-5.1h-8.3H50.4h-8.3v5.1h5.8v9.1h-7.6c-1.4,0-2.5,1.1-2.5,2.5v9.5h-7.6c-1.4,0-2.5,1.1-2.5,2.5v9.1h-4.6
		c-1.4,0-2.5,1.1-2.5,2.5v11.5h-4.4V22.3c0-0.8,0.6-1.4,1.4-1.4h81c0.8,0,1.4,0.6,1.4,1.4v64C100.1,86.4,95.5,86.4,95.5,86.4z"/>
</g>
<g class="st0">
	<g class="st1">
		<g>
			<g>
				<path class="st5" d="M196.6-1.1v11.9l-21.7,54.7h21.7v11.7h-34.5V65.4l21.8-54.7l-21.8,0.1V-1.1H196.6z"/>
				<path class="st5" d="M218.2,77.2h-11.8V-1.1h11.8V77.2z"/>
				<path class="st5" d="M247.4,78.2c-5.2,0-9.6-1.8-13.3-5.5c-3.6-3.7-5.5-8.1-5.5-13.2V16.8c0-5.2,1.8-9.6,5.5-13.3
					c3.7-3.6,8.1-5.5,13.2-5.5c5.2,0,9.6,1.8,13.2,5.5c3.6,3.7,5.4,8.1,5.4,13.2l-12.2-0.2c0-1.9-0.7-3.5-2-4.8s-2.9-2-4.8-2
					s-3.5,0.7-4.8,2s-2,2.9-2,4.8v42.9c0,1.9,0.7,3.5,2,4.8s2.9,2,4.8,2s3.5-0.7,4.8-2s2-2.9,2-4.8V44h-6.6V32.2H266v27.4
					c0,5.2-1.8,9.6-5.5,13.2C256.9,76.4,252.5,78.2,247.4,78.2z"/>
				<path class="st5" d="M294.9,78.2c-5.2,0-9.6-1.8-13.3-5.5c-3.6-3.7-5.5-8.1-5.5-13.2V16.8c0-5.2,1.8-9.6,5.5-13.3
					c3.7-3.6,8.1-5.5,13.2-5.5c5.2,0,9.6,1.8,13.2,5.5c3.6,3.7,5.4,8.1,5.4,13.2l-12.2-0.2c0-1.9-0.7-3.5-2-4.8
					c-1.3-1.3-2.9-2-4.8-2s-3.5,0.7-4.8,2c-1.3,1.3-2,2.9-2,4.8v42.9c0,1.9,0.7,3.5,2,4.8c1.3,1.3,2.9,2,4.8,2s3.5-0.7,4.8-2
					c1.3-1.3,2-2.9,2-4.8V44h-6.6V32.2h18.8v27.4c0,5.2-1.8,9.6-5.5,13.2C304.4,76.4,300,78.2,294.9,78.2z"/>
				<path class="st5" d="M342.3,78.1c-5.2,0-9.6-1.8-13.2-5.4s-5.4-8-5.4-13.2V-1.1h11.6v60.4c0,1.9,0.7,3.5,2,4.8s2.9,2,4.8,2
					s3.5-0.7,4.8-2s2-2.9,2-4.8V-1.1h12.3v60.5c0,5.2-1.8,9.7-5.5,13.2C351.9,76.3,347.5,78.1,342.3,78.1z"/>
				<path class="st5" d="M390.2-1.1c6.6,0,11.4,1.8,14.5,5.4c2.7,3.2,4.1,7.6,4.1,13.2V29c0,5.5-2.1,10.2-6.3,14.1l8.7,34.2h-12.8
					l-7.2-29.5c-0.3,0-0.7,0-1.1,0h-6.8v29.5h-11.8V-1.1H390.2z M397.2,17.8c0-4.5-2.2-6.8-6.7-6.8h-7.1v25h7.1c1.9,0,3.5-0.7,4.8-2
					s2-2.9,2-4.8L397.2,17.8L397.2,17.8z"/>
				<path class="st5" d="M435.8,59.2l-2.9,18h-12.3L434-1.1h16.2l13.1,78.3h-12.4l-2.8-18L435.8,59.2L435.8,59.2z M442,16.9
					l-4.4,30.9h8.7L442,16.9z"/>
				<g>
					<polygon class="st5" points="458.3,-1.1 460.3,10.8 474.8,10.8 474.8,77.2 486.6,77.2 486.6,10.8 499.1,10.8 499.1,-1.1 					
						"/>
				</g>
			</g>
			<g>
				<path class="st5" d="M162.3,117.6V86.5h14.8v4h-10.8v8.8h6.7l-1.4,3.9h-5.3v14.4L162.3,117.6L162.3,117.6z"/>
				<path class="st5" d="M223.9,86.5h4v22.9c0,6.5-4.9,8.6-9.3,8.6s-9.4-2-9.4-8.6V86.5h4v21.7c0,3.7,1.6,5.8,5.3,5.8
					s5.3-2.1,5.3-5.8L223.9,86.5L223.9,86.5z"/>
				<path class="st5" d="M280.5,117.6l-13.7-22.9v22.9h-4V86.5h4l13.7,22.8V86.5h4.1v31.1H280.5z"/>
				<path class="st5" d="M319.6,117.6V86.5h8.4c6.9,0,10.3,4.2,10.3,10.1v12.2c0,6.9-4.3,8.9-9.4,8.9L319.6,117.6L319.6,117.6z
					 M334.2,96.1c0-4-2.5-5.6-5.8-5.6h-4.8V114h4.5c2.7,0,6.1-0.4,6.1-4.8L334.2,96.1L334.2,96.1z"/>
				<path class="st5" d="M373.4,117.6V90.4l-2.8-0.1v-3.8h6.9v31.1H373.4z"/>
				<path class="st5" d="M430.3,117.6l-13.7-22.9v22.9h-4V86.5h4l13.7,22.8V86.5h4.1v31.1H430.3z"/>
				<path class="st5" d="M483.2,117.6l-0.4-0.9c-1.2,0.8-2.7,1.3-4.8,1.3c-4.7,0-9.4-2.5-9.4-8.8V95.3c0-4.4,1.5-6.6,3.9-8
					c2.9-1.7,7.6-1.4,11.1,0.4l-1.2,3.5c-1.6-0.6-2.8-0.8-4.3-0.8c-2.5,0-5.4,0.6-5.4,4.7v14.4c0,3.4,2.2,4.7,5.3,4.7
					c2.6,0,4.9-1.3,4.9-4.7v-1.2h-2.7l-1.3-3.9h8v13.3h-3.7V117.6z"/>
			</g>
		</g>
	</g>
	<path class="st20" d="M-51.3,165.3c-15.3,0-27.7-12.4-27.7-27.7V-14.2c0-15.3,12.4-27.7,27.7-27.7h160.1
		c15.3,0,27.7,12.4,27.7,27.7v151.8c0,15.3-12.4,27.7-27.7,27.7H-51.3z"/>
	<path class="st21" d="M-59,137.6V-14.2c0-4.2,3.4-7.7,7.7-7.7h160.1c4.2,0,7.7,3.4,7.7,7.7v151.8c0,4.2-3.4,7.7-7.7,7.7H-51.3
		C-55.6,145.3-59,141.9-59,137.6z"/>
	<g class="st1">
		<g>
			<rect x="-40.3" y="89.6" class="st22" width="138.1" height="27.9"/>
			<path class="st22" d="M-59,117.4v20.2c0,4.2,3.4,7.7,7.7,7.7h160.1c4.2,0,7.7-3.4,7.7-7.7v-20.2C116.5,117.4-59,117.4-59,117.4z"
				/>
		</g>
		<g>
			<g>
				<rect x="-6.3" y="42.9" class="st22" width="70" height="23.8"/>
				<rect x="-26.3" y="66.7" class="st22" width="110" height="22.9"/>
			</g>
			<g>
				<rect x="13.7" y="15" class="st23" width="30" height="27.9"/>
			</g>
		</g>
	</g>
	<line class="st24" x1="-2.7" y1="15" x2="60.1" y2="15"/>
</g>
<g>
	<g>
		<g>
			<rect x="13.8" y="17.6" class="st5" width="92" height="79.5"/>
			<g>
				<path class="st5" d="M102.8,2.5H18c-9.5,0-17.3,7.7-17.3,17.3v80.4c0,9.5,7.7,17.3,17.3,17.3h84.7c9.5,0,17.3-7.7,17.3-17.3
					V19.8C120.1,10.2,112.3,2.5,102.8,2.5z M114.9,100.2c0,6.6-5.4,12-12,12H18c-6.6,0-12-5.4-12-12V19.8c0-6.6,5.4-12,12-12h84.7
					c6.6,0,12,5.4,12,12v80.4H114.9z"/>
				<polygon class="st5" points="26.5,77.4 26.5,86.8 94.3,86.8 94.3,77.4 89.4,77.4 31.2,77.4 				"/>
				<path class="st5" d="M23.3,92.1h-6.7v8c0,0.8,0.6,1.4,1.4,1.4h84.7c0.8,0,1.4-0.6,1.4-1.4v-8h-6.7H23.3z"/>
				<polygon class="st5" points="44.5,52.7 44.5,59.9 76.3,59.9 76.3,52.7 68.3,52.7 52.4,52.7 				"/>
				<polygon class="st5" points="33.9,65.3 33.9,72.1 86.9,72.1 86.9,65.3 78.9,65.3 41.8,65.3 				"/>
				<rect x="55.1" y="37.9" class="st5" width="10.6" height="9.5"/>
			</g>
			<path class="st6" d="M102.8,13.1H18c-3.7,0-6.7,3.1-6.7,6.7v69.7v10.7c0,3.7,3.1,6.7,6.7,6.7h84.7c3.7,0,6.7-3.1,6.7-6.7V89.5
				V19.8C109.5,16,106.4,13.1,102.8,13.1z M18,101.6c-0.8,0-1.4-0.6-1.4-1.4v-8h6.7h74.2h6.7v8c0,0.8-0.6,1.4-1.4,1.4H18z
				 M41.8,65.3h37.1h7.9v6.8h-53v-6.8H41.8z M52.4,52.7h15.9h7.9V60H44.5v-7.3H52.4z M55.1,37.9h10.6v9.5H55.1V37.9z M31.2,77.4
				h58.3h4.9v9.4H26.5v-9.4H31.2z M99.6,86.8V74.7c0-1.4-1.1-2.6-2.6-2.6h-4.8v-9.5c0-1.4-1.1-2.6-2.6-2.6h-7.9v-10
				c0-1.4-1.1-2.6-2.6-2.6H71v-9.5h6.1v-5.3h-8.7h-16h-8.7v5.3h6.1v9.5h-7.9c-1.4,0-2.6,1.1-2.6,2.6v10h-7.9c-1.4,0-2.6,1.1-2.6,2.6
				V72h-4.8c-1.4,0-2.6,1.1-2.6,2.6v12h-4.6V19.8c0-0.8,0.6-1.4,1.4-1.4h84.7c0.8,0,1.4,0.6,1.4,1.4v67
				C104.4,86.8,99.6,86.8,99.6,86.8z"/>
		</g>
	</g>
	<g>
		<polygon class="st5" points="133.8,20.1 152.2,20.1 133.8,66.3 133.8,76.2 162.8,76.2 162.8,66.3 144.4,66.3 162.8,20.1 162.8,10 
			133.8,10 		"/>
		<rect x="171.2" y="10" class="st5" width="10.1" height="66.2"/>
		<path class="st5" d="M221.7,38.3h-16.1v10.1h5.5v13c0,1.6-0.7,2.9-1.6,4.1c-1.1,1.1-2.4,1.6-4.1,1.6c-1.6,0-2.9-0.7-4.1-1.6
			c-1-1-1.6-2.4-1.6-4.1V24.8c0-1.6,0.7-2.9,1.6-4.1c1.1-1.1,2.4-1.6,4.1-1.6c1.6,0,2.9,0.7,4.1,1.6c1.1,1.1,1.6,2.4,1.6,4.1
			l10.4,0.2c0-4.4-1.5-8-4.6-11.2C214,10.5,210.1,9,205.7,9s-8,1.6-11.2,4.7c-3.3,3.3-4.7,6.8-4.7,11.2v36.1c0,4.4,1.6,8,4.7,11.2
			c3.3,3.3,6.8,4.7,11.2,4.7s8-1.5,11.1-4.6c3.3-2.9,4.7-6.8,4.7-11.2V38.3H221.7z"/>
		<path class="st5" d="M241.5,20.9c1.1-1.1,2.4-1.6,4.1-1.6c1.6,0,2.9,0.7,4.1,1.6c1.1,1.1,1.6,2.4,1.6,4.1l10.4,0.2
			c0-4.4-1.5-8-4.6-11.2c-2.9-3.3-6.8-4.7-11.2-4.7s-8,1.6-11.2,4.7c-3.3,3.3-4.7,6.8-4.7,11.2v36.1c0,4.4,1.6,8,4.7,11.2
			c3.3,3.3,6.8,4.7,11.2,4.7s8-1.5,11.1-4.6c3.3-2.9,4.7-6.8,4.7-11.2V38.3h-15.9v10.1h5.5v13c0,1.6-0.7,2.9-1.6,4.1
			c-1,1.1-2.4,1.6-4.1,1.6c-1.6,0-2.9-0.7-4.1-1.6c-1.1-1-1.6-2.4-1.6-4.1V24.8C239.7,23.2,240.5,21.9,241.5,20.9z"/>
		<path class="st5" d="M291.8,61.1c0,1.6-0.7,2.9-1.6,4.1c-1.1,1.1-2.4,1.6-4.1,1.6c-1.6,0-2.9-0.7-4.1-1.6
			c-1.1-1.1-1.6-2.4-1.6-4.1V10h-9.9v51.3c0,4.4,1.5,8.1,4.6,11.2c2.9,2.9,6.8,4.6,11.2,4.6s8.1-1.5,11.4-4.7
			c3.3-2.9,4.7-6.8,4.7-11.2V10H292v51.1C292,61.1,291.8,61.1,291.8,61.1z"/>
		<path class="st5" d="M342.4,35.4v-9.8c0-4.7-1.1-8.5-3.6-11.2c-2.6-2.9-6.7-4.6-12.2-4.6h-15.9v66.2h10.1V51.5h5.7
			c0.3,0,0.7,0,1,0l6,24.9h10.9l-7.3-29C340.5,44,342.4,40.1,342.4,35.4z M332.6,35.6c0,1.6-0.7,2.9-1.6,4.1
			c-1.1,1.1-2.4,1.6-4.1,1.6h-6v-21h6c3.9,0,5.7,2,5.7,5.7h0.2v9.8h-0.2V35.6z"/>
		<path class="st5" d="M363.7,10l-11.4,66.1h10.4l2.4-15.1h10.4l2.3,15.3h10.6l-11.1-66.1h-13.7V10z M366.7,51.5l3.7-26l3.7,26
			C374.1,51.5,366.7,51.5,366.7,51.5z"/>
		<polygon class="st5" points="384.2,10 385.9,20.1 398.1,20.1 398.1,76.2 408.1,76.2 408.1,20.1 418.7,20.1 418.7,10 		"/>
		<polygon class="st5" points="134,110.4 137.2,110.4 137.2,98.2 141.8,98.2 142.9,94.8 137.2,94.8 137.2,87.5 146.5,87.5 
			146.5,84.2 134,84.2 		"/>
		<path class="st5" d="M185.9,84.2v18.4c0,3.3-1.3,4.9-4.6,4.9s-4.6-1.8-4.6-4.9V84.2h-3.4v19.4c0,5.5,4.2,7.3,8,7.3
			c3.7,0,7.8-1.8,7.8-7.3V84.2H185.9L185.9,84.2z"/>
		<polygon class="st5" points="233.7,103.4 222.3,84.2 218.9,84.2 218.9,110.4 222.3,110.4 222.3,91.1 233.7,110.4 237.3,110.4 
			237.3,84.2 233.7,84.2 		"/>
		<path class="st5" d="M274.1,84.2h-7.2v26.2v0.2h7.8c4.4,0,8-1.6,8-7.5V92.7C282.7,87.6,279.9,84.2,274.1,84.2z M279.3,103.4
			c0,3.7-2.8,4.1-5.2,4.1h-3.9v-20h4.1c2.8,0,4.9,1.3,4.9,4.7l0,0v11.2C279.1,103.4,279.3,103.4,279.3,103.4z"/>
		<polygon class="st5" points="309.9,87.3 312.5,87.3 312.5,110.4 315.7,110.4 315.7,84.2 309.9,84.2 		"/>
		<polygon class="st5" points="360.5,103.4 348.9,84.2 345.5,84.2 345.5,110.4 348.9,110.4 348.9,91.1 360.5,110.4 364.1,110.4 
			364.1,84.2 360.5,84.2 		"/>
		<path class="st5" d="M402.8,102.6h2.3v1c0,2.8-2,4.1-4.2,4.1c-2.6,0-4.6-1.1-4.6-4.1V91.4c0-3.6,2.4-4.1,4.6-4.1
			c1.3,0,2.3,0.2,3.7,0.7l1-2.9c-2.9-1.5-7-1.8-9.3-0.3c-2,1.1-3.4,2.9-3.4,6.8v11.7c0,5.4,4.1,7.5,8,7.5c1.8,0,2.9-0.5,4.1-1.1
			l0.3,0.8v0.2h3.3V99.4h-6.8L402.8,102.6z"/>
	</g>
</g>
</svg>
