<?xml version="1.0" encoding="utf-8"?>
<!-- Generator: Adobe Illustrator 21.0.2, SVG Export Plug-In . SVG Version: 6.00 Build 0)  -->
<svg version="1.1" id="Layer_1" xmlns="http://www.w3.org/2000/svg" xmlns:xlink="http://www.w3.org/1999/xlink" x="0px" y="0px"
	 viewBox="0 0 313 120" style="enable-background:new 0 0 313 120;" xml:space="preserve">
<style type="text/css">
	.st0{display:none;}
	.st1{display:inline;}
	.st2{fill:#FFFFFF;stroke:#000000;stroke-miterlimit:10;}
	.st3{fill:none;}
	.st4{display:inline;fill:#FFFFFF;stroke:#000000;stroke-miterlimit:10;}
	.st5{fill:#114684;}
	.st6{fill:#62AEC9;}
	.st7{display:inline;fill:#114684;}
	.st8{fill:#0071BC;}
	.st9{display:inline;fill:#0071BC;}
	.st10{display:inline;fill:#62AEC9;}
	.st11{fill:#333333;}
	.st12{display:inline;fill:#333333;}
	.st13{display:inline;fill:#FFFFFF;}
	.st14{fill:#FFFFFF;}
	.st15{display:inline;fill:#114684;stroke:#000000;stroke-width:0.25;stroke-miterlimit:10;}
	.st16{display:none;fill:#114684;}
	.st17{display:none;fill:#62AEC9;}
	.st18{display:inline;fill:#340E30;}
	.st19{fill:none;stroke:#114684;stroke-width:10;stroke-miterlimit:10;}
	.st20{display:inline;fill:none;stroke:#114684;stroke-width:10;stroke-miterlimit:10;}
	.st21{display:inline;fill:#114684;stroke:#62AEC9;stroke-width:10;stroke-linejoin:round;stroke-miterlimit:10;}
	.st22{fill:#114684;stroke:#62AEC9;stroke-width:10;stroke-linejoin:round;stroke-miterlimit:10;}
	.st23{fill:#340E30;}
	.st24{display:inline;fill:none;stroke:#340E30;stroke-width:10;stroke-miterlimit:10;}
	.st25{display:inline;fill:#340E30;stroke:#9B7C9B;stroke-width:7;stroke-linejoin:round;stroke-miterlimit:10;}
	.st26{fill:#340E30;stroke:#9B7C9B;stroke-width:7;stroke-linejoin:round;stroke-miterlimit:10;}
	.st27{display:none;fill:none;stroke:#FFFFFF;stroke-width:0.75;stroke-miterlimit:10;}
	.st28{fill:#9B7C9B;}
	.st29{fill:#82567D;}
</style>
<g class="st0">
	<g class="st1">
		<g>
			<rect x="-46" y="48.2" class="st2" width="45" height="86.8"/>
			<polygon class="st2" points="-46,-15 -46,3.2 -46,25.7 -1,25.7 -1,3.2 -1,-15 			"/>
		</g>
	</g>
	<g class="st1">
		<g>
			<rect x="-106" y="48.2" class="st2" width="45" height="86.8"/>
			<polygon class="st2" points="-106,-15 -106,3.2 -106,25.7 -61,25.7 -61,3.2 -61,-15 			"/>
		</g>
	</g>
	<g class="st1">
		<rect x="44" y="79.3" class="st2" width="30" height="15"/>
		<path class="st2" d="M74-15H44H14v30.6v25.1v12.8v25.9v15v18.2V135h30h30h30V94.3v-15V72V48.2v-7.5v-15v-1.8V-15H74z M74,94.3H44
			v-15h30V94.3z M74,40.7H44v-15h30V40.7z"/>
	</g>
	<g class="st1">
		<polygon class="st2" points="359,79.3 359,40.7 359,36.4 359,25.7 419,25.7 419,23.9 419,-15 389,-15 359,-15 329,-15 329,15.6 
			329,40.7 329,53.5 329,79.3 329,94.3 329,112.5 329,135 359,135 389,135 419,135 419,94.3 359,94.3 		"/>
	</g>
	<g class="st1">
		<rect x="149" y="25.7" class="st3" width="30" height="15"/>
		<path class="st2" d="M179-15h-30h-30v30.6v25.1v12.8v25.9v15v18.2V135h30V94.3v-15h30v15V135h30V94.3v-15V72V48.2v-7.5v-15v-1.8
			V-15H179z M179,40.7h-30v-15h30V40.7z"/>
	</g>
	<polygon class="st4" points="284,-15 284,25.7 284,40.7 284,57 275.4,36.4 269.7,22.5 254,-15 254,-15 254,-15 224,-15 224,15.6 
		224,40.7 224,53.5 224,79.3 224,94.3 224,112.5 224,135 254,135 254,94.3 254,79.3 254,63 262.6,83.6 268.4,97.5 284,135 284,135 
		284,135 314,135 314,94.3 314,79.3 314,72 314,48.2 314,40.7 314,25.7 314,23.9 314,-15 	"/>
</g>
<g class="st0">
	<g class="st1">
		<rect x="-43.5" y="62.2" class="st5" width="31" height="65.1"/>
		<rect x="-43.5" y="99.2" class="st5" width="75.9" height="28.1"/>
		<polygon class="st5" points="-43.5,23.8 -43.5,36.3 -43.5,51.8 -12.4,51.8 -12.4,36.3 -12.4,23.8 		"/>
	</g>
	<g class="st1">
		<rect x="1.3" y="31.2" class="st6" width="31" height="57.7"/>
		<polygon class="st6" points="1.3,-7.2 1.3,5.3 1.3,20.8 32.4,20.8 32.4,5.3 32.4,-7.2 		"/>
	</g>
	<g class="st1">
		<polygon class="st5" points="87.6,23.8 87.6,36.3 87.6,51.8 118.6,51.8 118.6,36.3 118.6,23.8 		"/>
		<path class="st5" d="M77.2,62.2V23.8H56.5H46.2v103.4h10.3h20.7h10.3h10.3h20.7V99.2V88.8v-5.1V67.4v-5.2H77.2z M87.6,99.2H77.2
			V88.8h10.3V99.2z"/>
	</g>
	<polygon class="st7" points="335.8,23.8 315.1,23.8 294.5,23.8 294.5,41 294.5,44.9 294.5,62.2 294.5,71 294.5,88.8 294.5,99.2 
		294.5,111.7 294.5,127.2 315.1,127.2 325.5,127.2 335.8,127.2 356.5,127.2 356.5,99.2 325.5,99.2 325.5,51.8 356.5,51.8 
		356.5,50.6 356.5,23.8 	"/>
	<path class="st7" d="M184.1,23.8h-20.7h-31v28.1h41.4v10.3h-10.3h-20.7h-10.3v65.1h10.3h20.7h0h10.3h10.3h0h20.7V99.2V88.8v-5.1
		V67.4v-5.2V51.8v-1.3v-8.9V23.8H184.1z M173.8,99.2h-10.3V88.8h10.3V99.2z"/>
	<polygon class="st7" points="249.6,23.8 249.6,48.6 239.3,23.8 239.3,23.8 239.3,23.8 218.6,23.8 218.6,44.9 218.6,62.2 
		218.6,67.4 218.6,71 218.6,88.8 218.6,99.2 218.6,111.7 218.6,127.2 239.3,127.2 249.6,127.2 249.6,102.4 260,127.2 260,127.2 
		260,127.2 280.7,127.2 280.7,99.2 280.7,88.8 280.7,83.8 280.7,83.7 280.7,67.4 280.7,62.2 280.7,51.8 280.7,50.6 280.7,23.8 
		280.7,23.8 	"/>
</g>
<g class="st0">
	<g class="st1">
		<rect x="1.3" y="20.8" class="st8" width="31" height="49.9"/>
		<polygon class="st8" points="1.3,-22.8 1.3,-10.2 1.3,5.3 32.4,5.3 32.4,-10.2 32.4,-22.8 		"/>
	</g>
</g>
<g class="st0">
	<g class="st1">
		<g>
			<rect x="1.3" y="251.8" class="st8" width="31" height="59.9"/>
			<polygon class="st8" points="1.3,208.3 1.3,220.8 1.3,236.3 32.4,236.3 32.4,220.8 32.4,208.3 			"/>
		</g>
	</g>
	<g class="st1">
		<g>
			<rect x="-43.5" y="261.8" class="st8" width="31" height="49.9"/>
			<polygon class="st8" points="-43.5,218.3 -43.5,230.8 -43.5,246.3 -12.4,246.3 -12.4,230.8 -12.4,218.3 			"/>
		</g>
	</g>
	<g class="st1">
		<polygon class="st8" points="87.6,208.3 87.6,220.8 87.6,236.3 118.6,236.3 118.6,220.8 118.6,208.3 		"/>
		<path class="st8" d="M77.2,246.7v-38.4H56.5H46.2v103.4h10.3h20.7h10.3h10.3h20.7v-28.1v-10.3v-5.1v-16.4v-5.2H77.2z M87.6,283.7
			H77.2v-10.3h10.3V283.7z"/>
	</g>
	<polygon class="st9" points="335.8,208.3 315.1,208.3 294.5,208.3 294.5,225.5 294.5,229.4 294.5,246.7 294.5,255.5 294.5,273.3 
		294.5,283.7 294.5,296.2 294.5,311.7 315.1,311.7 325.5,311.7 335.8,311.7 356.5,311.7 356.5,283.7 325.5,283.7 325.5,236.3 
		356.5,236.3 356.5,235.1 356.5,208.3 	"/>
	<path class="st9" d="M184.1,208.3h-20.7h-31v28.1h41.4v10.3h-10.3h-20.7h-10.3v65.1h10.3h20.7h0h10.3h10.3h0h20.7v-28.1v-10.3v-5.1
		v-16.4v-5.2v-10.3v-1.3v-8.9v-17.9H184.1z M173.8,283.7h-10.3v-10.3h10.3V283.7z"/>
	<polygon class="st9" points="249.6,208.3 249.6,233.1 239.3,208.3 239.3,208.3 239.3,208.3 218.6,208.3 218.6,229.4 218.6,246.7 
		218.6,251.8 218.6,255.5 218.6,273.3 218.6,283.7 218.6,296.2 218.6,311.7 239.3,311.7 249.6,311.7 249.6,286.9 260,311.7 
		260,311.7 260,311.7 280.7,311.7 280.7,283.7 280.7,273.3 280.7,268.2 280.7,268.2 280.7,251.8 280.7,246.7 280.7,236.3 
		280.7,235.1 280.7,208.3 280.7,208.3 	"/>
</g>
<g class="st0">
	<polygon class="st5" points="366.5,61.8 366.5,13.8 290.7,13.8 284.5,13.8 214.8,13.8 208.6,13.8 128.6,13.8 122.4,13.8 87.2,13.8 
		77.6,13.8 42.4,13.8 42.4,-17.2 -8.7,-17.2 -8.7,13.8 -53.5,13.8 -53.5,52.2 -53.5,61.8 -53.5,137.2 36.2,137.2 42.4,137.2 
		122.4,137.2 128.6,137.2 208.6,137.2 214.8,137.2 284.5,137.2 290.7,137.2 366.5,137.2 366.5,89.2 335.5,89.2 335.5,61.8 	"/>
	<g>
		<polygon class="st7" points="-12.4,62.2 -43.5,62.2 -43.5,99.2 -43.5,99.2 -43.5,127.2 -43.5,127.2 -12.4,127.2 32.4,127.2 
			32.4,99.2 -12.4,99.2 		"/>
		<polygon class="st7" points="-12.4,36.3 -12.4,23.8 -43.5,23.8 -43.5,36.3 -43.5,51.8 -12.4,51.8 		"/>
		<rect x="1.3" y="31.2" class="st10" width="31" height="57.7"/>
		<polygon class="st10" points="1.3,5.3 1.3,20.8 32.4,20.8 32.4,5.3 32.4,-7.2 1.3,-7.2 		"/>
		<polygon class="st7" points="87.6,36.3 87.6,51.8 118.6,51.8 118.6,36.3 118.6,23.8 87.6,23.8 		"/>
		<path class="st7" d="M77.2,23.8H56.5H46.2v103.4h10.3h20.7h10.3h10.3h20.7V99.2V88.8v-5.1V67.4v-5.2H77.2V23.8z M87.6,88.8v10.3
			H77.2V88.8H87.6z"/>
		<polygon class="st7" points="335.8,23.8 315.1,23.8 294.5,23.8 294.5,41 294.5,44.9 294.5,62.2 294.5,71 294.5,88.8 294.5,99.2 
			294.5,111.7 294.5,127.2 315.1,127.2 325.5,127.2 335.8,127.2 356.5,127.2 356.5,99.2 325.5,99.2 325.5,51.8 356.5,51.8 
			356.5,50.6 356.5,23.8 		"/>
		<path class="st7" d="M163.4,23.8h-31v28.1h41.4v10.3h-10.3h-20.7h-10.3v65.1h10.3h20.7h10.3h10.3h20.7V99.2V88.8v-5.1V67.4v-5.2
			V51.8v-1.3v-8.9V23.8h-20.7H163.4z M173.8,99.2h-10.3V88.8h10.3V99.2z"/>
		<polygon class="st7" points="249.6,48.6 239.3,23.8 239.3,23.8 239.3,23.8 218.6,23.8 218.6,44.9 218.6,62.2 218.6,67.4 218.6,71 
			218.6,88.8 218.6,99.2 218.6,111.7 218.6,127.2 239.3,127.2 249.6,127.2 249.6,102.4 260,127.2 260,127.2 260,127.2 280.7,127.2 
			280.7,99.2 280.7,88.8 280.7,83.8 280.7,83.7 280.7,67.4 280.7,62.2 280.7,51.8 280.7,50.6 280.7,23.8 280.7,23.8 249.6,23.8 		
			"/>
	</g>
	<g>
		<polygon class="st7" points="-12.4,62.2 -43.5,62.2 -43.5,99.2 -43.5,99.2 -43.5,127.2 -43.5,127.2 -12.4,127.2 32.4,127.2 
			32.4,99.2 -12.4,99.2 		"/>
		<polygon class="st7" points="-12.4,36.3 -12.4,23.8 -43.5,23.8 -43.5,36.3 -43.5,51.8 -12.4,51.8 		"/>
		<rect x="1.3" y="31.2" class="st10" width="31" height="57.7"/>
		<polygon class="st10" points="1.3,5.3 1.3,20.8 32.4,20.8 32.4,5.3 32.4,-7.2 1.3,-7.2 		"/>
		<polygon class="st7" points="87.6,36.3 87.6,51.8 118.6,51.8 118.6,36.3 118.6,23.8 87.6,23.8 		"/>
		<path class="st7" d="M77.2,23.8H56.5H46.2v103.4h10.3h20.7h10.3h10.3h20.7V99.2V88.8v-5.1V67.4v-5.2H77.2V23.8z M87.6,88.8v10.3
			H77.2V88.8H87.6z"/>
		<polygon class="st7" points="335.8,23.8 315.1,23.8 294.5,23.8 294.5,41 294.5,44.9 294.5,62.2 294.5,71 294.5,88.8 294.5,99.2 
			294.5,111.7 294.5,127.2 315.1,127.2 325.5,127.2 335.8,127.2 356.5,127.2 356.5,99.2 325.5,99.2 325.5,51.8 356.5,51.8 
			356.5,50.6 356.5,23.8 		"/>
		<path class="st7" d="M163.4,23.8h-31v28.1h41.4v10.3h-10.3h-20.7h-10.3v65.1h10.3h20.7h10.3h10.3h20.7V99.2V88.8v-5.1V67.4v-5.2
			V51.8v-1.3v-8.9V23.8h-20.7H163.4z M173.8,99.2h-10.3V88.8h10.3V99.2z"/>
		<polygon class="st7" points="249.6,48.6 239.3,23.8 239.3,23.8 239.3,23.8 218.6,23.8 218.6,44.9 218.6,62.2 218.6,67.4 218.6,71 
			218.6,88.8 218.6,99.2 218.6,111.7 218.6,127.2 239.3,127.2 249.6,127.2 249.6,102.4 260,127.2 260,127.2 260,127.2 280.7,127.2 
			280.7,99.2 280.7,88.8 280.7,83.8 280.7,83.7 280.7,67.4 280.7,62.2 280.7,51.8 280.7,50.6 280.7,23.8 280.7,23.8 249.6,23.8 		
			"/>
	</g>
	<g>
		<g class="st1">
			<rect x="81.5" y="420.8" class="st11" width="11.6" height="24.4"/>
			<rect x="81.5" y="434.7" class="st11" width="28.4" height="10.5"/>
			<polygon class="st11" points="81.5,406.4 81.5,411.1 81.5,416.9 93.2,416.9 93.2,411.1 93.2,406.4 			"/>
		</g>
		<g class="st1">
			<rect x="98.3" y="409.2" class="st11" width="11.6" height="21.6"/>
			<polygon class="st11" points="98.3,394.8 98.3,399.5 98.3,405.3 110,405.3 110,399.5 110,394.8 			"/>
		</g>
		<g class="st1">
			<polygon class="st11" points="130.7,406.4 130.7,411.1 130.7,416.9 142.3,416.9 142.3,411.1 142.3,406.4 			"/>
			<path class="st11" d="M126.8,420.8v-14.4H119h-3.9v38.8h3.9h7.8h3.9h3.9h7.8v-10.5v-3.9v-1.9v-6.1v-1.9H126.8z M130.7,434.7h-3.9
				v-3.9h3.9V434.7z"/>
		</g>
		<polygon class="st12" points="223.8,406.4 216,406.4 208.2,406.4 208.2,412.9 208.2,414.3 208.2,420.8 208.2,424.1 208.2,430.8 
			208.2,434.7 208.2,439.4 208.2,445.2 216,445.2 219.9,445.2 223.8,445.2 231.5,445.2 231.5,434.7 219.9,434.7 219.9,416.9 
			231.5,416.9 231.5,416.5 231.5,406.4 		"/>
		<path class="st12" d="M166.9,406.4h-7.8h-11.6v10.5H163v3.9h-3.9h-7.8h-3.9v24.4h3.9h7.8h0h3.9h3.9h0h7.8v-10.5v-3.9v-1.9v-6.1
			v-1.9v-3.9v-0.5v-3.3v-6.7H166.9z M163,434.7h-3.9v-3.9h3.9V434.7z"/>
		<polygon class="st12" points="191.4,406.4 191.4,415.7 187.6,406.4 187.6,406.4 187.6,406.4 179.8,406.4 179.8,414.3 179.8,420.8 
			179.8,422.8 179.8,424.1 179.8,430.8 179.8,434.7 179.8,439.4 179.8,445.2 187.6,445.2 191.4,445.2 191.4,435.9 195.3,445.2 
			195.3,445.2 195.3,445.2 203.1,445.2 203.1,434.7 203.1,430.8 203.1,428.9 203.1,428.9 203.1,422.8 203.1,420.8 203.1,416.9 
			203.1,416.5 203.1,406.4 203.1,406.4 		"/>
	</g>
</g>
<g class="st0">
	<polygon class="st7" points="656.5,2.9 629.7,2.9 623.9,2.9 591.3,2.9 585.5,2.9 558.6,2.9 558.6,47.1 585.5,47.1 585.5,166 
		629.7,166 629.7,47.1 656.5,47.1 	"/>
	<path class="st7" d="M520.2,2.9h-32.6h-16.3H455h-32.6v44.2v16.3v8v25.9v8.2v16.3v2v14V166h48.9v-44.2v-8.9v-7.4h16.3V166h48.9V2.9
		H520.2z M471.3,63.5v-9.3v-7.1h16.3v16.3H471.3z"/>
	<path class="st7" d="M368,2.9h-16.3h-16.3h-32.6h-16.3V166h16.3h32.6v-60.5l16.3,60.5h48.9l-16.3-60.5h16.3v-8.2V71.5v-8V47.1V2.9
		H368z M335.4,47.1h16.3v16.3h-16.3V47.1z"/>
	<polygon class="st7" points="199.4,47.1 199.4,2.9 150.5,2.9 150.5,31.2 150.5,45.2 150.5,47.1 150.5,63.5 150.5,71.6 150.5,97.5 
		150.5,105.5 150.5,121.8 150.5,166 183.1,166 199.4,166 215.7,166 248.4,166 264.7,166 264.7,2.9 215.7,2.9 215.7,121.8 
		199.4,121.8 199.4,114.7 199.4,105.5 199.4,63.5 199.4,56.1 	"/>
	<polygon class="st7" points="-72.5,47.1 -7.2,47.1 -7.2,2.9 -56.1,2.9 -88.8,2.9 -121.4,2.9 -121.4,31.2 -121.4,45.2 -121.4,47.1 
		-121.4,63.5 -121.4,71.6 -121.4,97.5 -121.4,105.5 -121.4,121.8 -121.4,166 -88.8,166 -72.5,166 -56.1,166 -23.5,166 -7.2,166 
		-7.2,63.5 -23.5,63.5 -56.1,63.5 -61.4,63.5 -61.4,105.5 -56.1,105.5 -56.1,121.8 -72.5,121.8 -72.5,114.7 -72.5,105.5 -72.5,63.5 
		-72.5,56.1 	"/>
	<polygon class="st7" points="63.5,47.1 128.7,47.1 128.7,2.9 79.8,2.9 47.2,2.9 14.5,2.9 14.5,31.2 14.5,45.2 14.5,47.1 14.5,63.5 
		14.5,71.6 14.5,97.5 14.5,105.5 14.5,121.8 14.5,166 47.2,166 63.5,166 79.8,166 112.4,166 128.7,166 128.7,63.5 112.4,63.5 
		79.8,63.5 74.5,63.5 74.5,105.5 79.8,105.5 79.8,121.8 63.5,121.8 63.5,114.7 63.5,105.5 63.5,63.5 63.5,56.1 	"/>
	<g class="st1">
		<rect x="-192.1" y="-46" class="st6" width="44.2" height="27.2"/>
		<rect x="-192.1" y="2.9" class="st6" width="48.9" height="97.1"/>
	</g>
	<polygon class="st7" points="-267.5,121.8 -213.8,47.1 -213.8,45.2 -213.8,2.9 -246.4,2.9 -279.1,2.9 -311.7,2.9 -311.7,30.1 
		-311.7,36.2 -311.7,47.1 -258.1,47.1 -311.7,121.8 -343.5,166 -143.1,166 -143.1,121.8 	"/>
</g>
<g class="st0">
	<polygon class="st13" points="656.5,2.9 629.7,2.9 623.9,2.9 591.3,2.9 585.5,2.9 558.6,2.9 558.6,47.1 585.5,47.1 585.5,166 
		629.7,166 629.7,47.1 656.5,47.1 	"/>
	<path class="st13" d="M520.2,2.9h-32.6h-16.3H455h-32.6v44.2v16.3v8v25.9v8.2v16.3v2v14V166h48.9v-44.2v-8.9v-7.4h16.3V166h48.9
		V2.9H520.2z M471.3,63.5v-9.3v-7.1h16.3v16.3H471.3z"/>
	<path class="st13" d="M368,2.9h-16.3h-16.3h-32.6h-16.3V166h16.3h32.6v-60.5l16.3,60.5h48.9l-16.3-60.5h16.3v-8.2V71.5v-8V47.1V2.9
		H368z M335.4,47.1h16.3v16.3h-16.3V47.1z"/>
	<polygon class="st13" points="199.4,47.1 199.4,2.9 150.5,2.9 150.5,31.2 150.5,45.2 150.5,47.1 150.5,63.5 150.5,71.6 150.5,97.5 
		150.5,105.5 150.5,121.8 150.5,166 183.1,166 199.4,166 215.7,166 248.4,166 264.7,166 264.7,2.9 215.7,2.9 215.7,121.8 
		199.4,121.8 199.4,114.7 199.4,105.5 199.4,63.5 199.4,56.1 	"/>
	<polygon class="st13" points="-72.5,47.1 -7.2,47.1 -7.2,2.9 -56.1,2.9 -88.8,2.9 -121.4,2.9 -121.4,31.2 -121.4,45.2 -121.4,47.1 
		-121.4,63.5 -121.4,71.6 -121.4,97.5 -121.4,105.5 -121.4,121.8 -121.4,166 -88.8,166 -72.5,166 -56.1,166 -23.5,166 -7.2,166 
		-7.2,63.5 -23.5,63.5 -56.1,63.5 -61.4,63.5 -61.4,105.5 -56.1,105.5 -56.1,121.8 -72.5,121.8 -72.5,114.7 -72.5,105.5 -72.5,63.5 
		-72.5,56.1 	"/>
	<polygon class="st13" points="63.5,47.1 128.7,47.1 128.7,2.9 79.8,2.9 47.2,2.9 14.5,2.9 14.5,31.2 14.5,45.2 14.5,47.1 
		14.5,63.5 14.5,71.6 14.5,97.5 14.5,105.5 14.5,121.8 14.5,166 47.2,166 63.5,166 79.8,166 112.4,166 128.7,166 128.7,63.5 
		112.4,63.5 79.8,63.5 74.5,63.5 74.5,105.5 79.8,105.5 79.8,121.8 63.5,121.8 63.5,114.7 63.5,105.5 63.5,63.5 63.5,56.1 	"/>
	<g class="st1">
		<rect x="-192.1" y="-46" class="st14" width="44.2" height="27.2"/>
		<rect x="-192.1" y="2.9" class="st14" width="48.9" height="97.1"/>
	</g>
	<polygon class="st13" points="-267.5,121.8 -213.8,47.1 -213.8,45.2 -213.8,2.9 -246.4,2.9 -279.1,2.9 -311.7,2.9 -311.7,30.1 
		-311.7,36.2 -311.7,47.1 -258.1,47.1 -311.7,121.8 -343.5,166 -143.1,166 -143.1,121.8 	"/>
</g>
<g class="st0">
	<line class="st15" x1="-95" y1="-112" x2="-95" y2="43.1"/>
	<line class="st15" x1="-108.8" y1="-108" x2="-108.8" y2="47.1"/>
</g>
<g class="st0">
	<g class="st1">
		<polygon points="-125.5,378.4 -125.5,248.4 -115.5,248.4 -115.5,268.4 -95.5,268.4 -95.5,288.4 -75.5,288.4 -75.5,308.4 
			-55.5,308.4 -55.5,328.4 -35.5,328.4 -35.5,348.4 -15.5,348.4 -15.5,368.4 4.5,368.4 4.5,378.4 		"/>
		<path class="st14" d="M-120.5,253.4v10v10h10h10v10v10h10h10v10v10h10h10v10v10h10h10v10v10h10h10v10v10h10h10h-120V253.4
			 M-110.5,243.4h-20v140h140v-20h-20v-20h-20v-20h-20v-20h-20v-20h-20v-20h-20V243.4L-110.5,243.4z"/>
	</g>
	<g class="st1">
		<polygon points="-290.7,387.9 -290.7,377.9 -270.7,377.9 -270.7,357.9 -250.7,357.9 -250.7,337.9 -230.7,337.9 -230.7,317.9 
			-210.7,317.9 -210.7,297.9 -190.7,297.9 -190.7,277.9 -170.7,277.9 -170.7,257.9 -150.7,257.9 -150.7,237.9 -120,237.9 
			-120,387.9 		"/>
		<path class="st14" d="M-125,242.9v140h-140.7v-10v-10h10h10v-10v-10h10h10v-10v-10h10h10v-10v-10h10h10v-10v-10h10h10v-10v-10h10
			h10v-10v-10H-125 M-115,232.9h-30.7h10h-20v20h-20v20h-20v20h-20v20h-20v20h-20v20h-20v20h-20v20h20H-115V232.9L-115,232.9z"/>
	</g>
	<polygon class="st1" points="-275.7,353.4 -255.7,353.4 -255.7,333.4 -235.7,333.4 -235.7,313.4 -215.7,313.4 -215.7,293.4 
		-195.7,293.4 -195.7,273.4 -175.7,273.4 -175.7,253.4 -305.7,253.4 -305.7,393.4 -275.7,393.4 	"/>
</g>
<g class="st0">
	<rect x="-49.5" y="-66" class="st1" width="20" height="20"/>
	<rect x="-29.5" y="-86" class="st1" width="20" height="20"/>
	<rect x="-9.5" y="-106" class="st1" width="20" height="20"/>
	<rect x="10.5" y="-126" class="st1" width="20" height="20"/>
	<rect x="30.5" y="-146" class="st1" width="20" height="20"/>
	<rect x="50.5" y="-166" class="st1" width="20" height="20"/>
	<rect x="70.5" y="-186" class="st1" width="20" height="20"/>
	<rect x="90.5" y="-206" class="st1" width="20" height="20"/>
</g>
<g class="st0">
	<polygon class="st1" points="-122.6,241 -122.6,384.1 -112,395.2 -112,288.9 -112,246.3 -122.6,235.2 	"/>
</g>
<polygon class="st0" points="-27,22.9 -27,35.2 -14.7,35.2 -2.3,35.2 -2.3,47.6 -2.3,59.9 10,59.9 22.4,59.9 22.4,72.3 22.4,84.6 
	47.1,84.6 47.1,109.3 59.4,109.3 71.8,109.3 71.8,135 -52.6,134 -52.6,17.3 -52.6,11.1 -52.6,10.5 -27,10.5 "/>
<g class="st0">
	<polygon class="st1" points="-77.6,-26.6 -77.6,-14.1 -77.6,-1.7 -77.6,10.2 -102.4,10.2 -102.4,10.8 -102.4,23.2 -114.9,23.2 
		-127.3,23.2 -127.3,35.7 -127.3,48.1 -139.8,48.1 -152.2,48.1 -152.2,60.5 -152.2,73 -164.6,73 -177.1,73 -177.1,97.9 -51.8,97.9 
		-51.8,-19.8 -51.8,-26 -51.8,-26.6 	"/>
	<polygon class="st1" points="-165.6,59.4 -165.6,35.1 -140.8,35.1 -140.8,34.5 -140.8,10.2 -240.3,10.2 -265.8,10.2 -265.8,97.9 
		-265.8,109.1 -265.8,133.4 -240.3,133.4 -240.3,97.9 -215.4,97.9 -215.4,84.8 -190.5,84.8 -190.5,84.3 -190.5,60 -165.6,60 	"/>
</g>
<g class="st0">
	<rect x="-27" y="6.5" class="st1" width="40.8" height="25.3"/>
	<rect x="-27" y="56" class="st1" width="29.4" height="41.5"/>
</g>
<g class="st0">
	<polygon class="st7" points="-121.2,36.6 -99.2,36.6 -99.2,58.6 -88.2,58.6 -77.2,58.6 -77.2,69.6 -77.2,80.6 -66.2,80.6 
		-55.2,80.6 -55.2,91.6 -55.2,102.6 -44.2,102.6 -33.5,102.6 -33.5,-45.2 -33.5,-54.2 -33.5,-55 -70.5,-55 -70.5,-37.1 -70.5,-19.2 
		-70.5,-2.2 -106.3,-2.2 -106.3,-1.3 -106.3,16.5 -121.2,16.5 -121.2,25.6 	"/>
	<polygon class="st10" points="-159.9,52.3 -177.8,52.3 -177.8,70.2 -177.8,88.1 -195.7,88.1 -213.6,88.1 -213.6,123.8 
		-143.9,123.8 -143.9,52.3 	"/>
	<polygon class="st7" points="-197.1,68.5 -197.1,33.6 -161.4,33.6 -161.4,32.8 -161.4,-2.2 -304.4,-2.2 -341.1,-2.2 -341.1,123.8 
		-341.1,140.1 -341.1,175 -304.4,175 -304.4,123.8 -268.7,123.8 -268.7,105.1 -232.9,105.1 -232.9,104.3 -232.9,69.4 -197.1,69.4 	
		"/>
</g>
<polygon class="st16" points="-121.2,-14.6 -99.2,-14.6 -99.2,7.4 -88.2,7.4 -77.2,7.4 -77.2,18.4 -77.2,29.4 -66.2,29.4 
	-55.2,29.4 -55.2,40.4 -55.2,51.4 -44.2,51.4 -33.5,51.4 -33.5,-52.5 -33.5,-52.5 -33.5,-52.5 -70.5,-52.5 -121.2,-52.5 
	-121.2,-52.5 -121.2,-34.6 -121.2,-34.6 -121.2,-25.6 "/>
<g class="st0">
	<g class="st1">
		<g>
			<path class="st14" d="M74.3-53.3v22.8L32.7,74.2h41.7v22.5H8.2V74.1L50-30.7L8.2-30.6v-22.8H74.3z"/>
			<path class="st14" d="M115.8,96.7H93.1v-150h22.6V96.7z"/>
			<path class="st14" d="M171.7,98.6c-10,0-18.5-3.5-25.4-10.5c-7-7-10.5-15.4-10.5-25.3v-81.9c0-10,3.5-18.5,10.5-25.4
				c7-7,15.5-10.5,25.4-10.5c10,0,18.4,3.5,25.4,10.5c6.9,7,10.4,15.5,10.4,25.4V-2H184v-17.6c0-3.6-1.3-6.7-3.8-9.2
				c-2.6-2.6-5.6-3.8-9.2-3.8s-6.6,1.3-9.2,3.8c-2.5,2.6-3.8,5.6-3.8,9.2v82.1c0,3.6,1.3,6.6,3.8,9.2c2.5,2.5,5.6,3.8,9.2,3.8
				s6.7-1.3,9.2-3.8c2.6-2.5,3.8-5.6,3.8-9.1V33.1h-12.6V10.4h36v52.4c0,10-3.5,18.4-10.5,25.4C189.9,95.2,181.5,98.6,171.7,98.6z"
				/>
			<path class="st14" d="M262.7,98.6c-10,0-18.5-3.5-25.4-10.5c-7-7-10.5-15.4-10.5-25.3v-81.9c0-10,3.5-18.5,10.5-25.4
				c7-7,15.5-10.5,25.4-10.5c10,0,18.4,3.5,25.4,10.5c6.9,7,10.4,15.5,10.4,25.4V-2H275v-17.6c0-3.6-1.3-6.7-3.8-9.2
				c-2.6-2.6-5.6-3.8-9.2-3.8c-3.6,0-6.6,1.3-9.2,3.8c-2.5,2.6-3.8,5.6-3.8,9.2v82.1c0,3.6,1.3,6.6,3.8,9.2c2.5,2.5,5.6,3.8,9.2,3.8
				c3.6,0,6.7-1.3,9.2-3.8c2.6-2.5,3.8-5.6,3.8-9.1V33.1h-12.6V10.4h36v52.4c0,10-3.5,18.4-10.5,25.4
				C280.9,95.2,272.5,98.6,262.7,98.6z"/>
			<path class="st14" d="M353.7,98.4c-10,0-18.4-3.5-25.4-10.4c-6.9-6.9-10.4-15.4-10.4-25.3v-116H340V62.5c0,3.6,1.3,6.6,3.8,9.2
				c2.6,2.5,5.6,3.8,9.2,3.8s6.6-1.3,9.2-3.8c2.5-2.5,3.8-5.6,3.8-9.2V-53.3h23.6v116c0,10.1-3.5,18.5-10.5,25.4
				C372.1,95,363.6,98.4,353.7,98.4z"/>
			<path class="st14" d="M445.4-53.3c12.6,0,21.9,3.5,27.8,10.4c5.2,6.1,7.8,14.5,7.8,25.4V4.3c0,10.6-4,19.6-12.1,26.9l16.8,65.5
				h-24.5l-13.7-56.5c-0.6,0-1.3,0-2,0h-13.1v56.5h-22.6v-150H445.4z M459-17.2c0-8.7-4.3-13.1-12.9-13.1h-13.7v48H446
				c3.6,0,6.6-1.3,9.2-3.8c2.5-2.6,3.8-5.6,3.8-9.2V-17.2z"/>
			<path class="st14" d="M532.9,62.2l-5.5,34.5h-23.6l25.5-150h31.1l25.1,150h-23.8l-5.3-34.5H532.9z M544.8-19l-8.4,59.2h16.8
				L544.8-19z"/>
			<path class="st14" d="M607.6-30.6h-24.1v-22.8h70.7v22.8h-23.9V96.7h-22.6V-30.6z"/>
		</g>
		<g>
			<path class="st14" d="M8.7,174.1v-59.6h28.4v7.7H16.5V139h12.9l-2.7,7.5H16.5v27.7H8.7z"/>
			<path class="st14" d="M126.6,114.5h7.7v43.8c0,12.5-9.5,16.4-17.9,16.4s-18-3.9-18-16.4v-43.8h7.7v41.6c0,7.2,3.1,11.2,10.1,11.2
				c7.2,0,10.2-4,10.2-11.2V114.5z"/>
			<path class="st14" d="M235.2,174.1l-26.3-43.9v43.9h-7.7v-59.6h7.7l26.3,43.8v-43.8h7.8v59.6H235.2z"/>
			<path class="st14" d="M310.1,174.1v-59.7h16c13.2,0,19.8,8.1,19.8,19.3v23.3c0,13.2-8.3,17-18,17H310.1z M338.1,132.9
				c0-7.7-4.8-10.8-11.2-10.8h-9.1v45h8.6c5.2,0,11.7-0.8,11.7-9.1V132.9z"/>
			<path class="st14" d="M413.2,174.1V122l-5.4-0.2v-7.3h13.2v59.6H413.2z"/>
			<path class="st14" d="M522.2,174.1l-26.3-43.9v43.9h-7.7v-59.6h7.7l26.3,43.8v-43.8h7.8v59.6H522.2z"/>
			<path class="st14" d="M623.7,174.1l-0.8-1.7c-2.4,1.6-5.2,2.6-9.3,2.6c-8.9,0-18-4.9-18-16.9v-26.7c0-8.3,2.9-12.7,7.4-15.4
				c5.5-3.2,14.6-2.7,21.2,0.7l-2.3,6.6c-3-1.1-5.4-1.6-8.3-1.6c-4.8,0-10.3,1.1-10.3,8.9v27.7c0,6.5,4.2,9,10.1,9
				c4.9,0,9.5-2.5,9.5-8.9v-2.2h-5.1l-2.6-7.5h15.3v25.5H623.7z"/>
		</g>
	</g>
	<g class="st1">
		<polygon class="st14" points="-121.2,36.6 -99.2,36.6 -99.2,58.6 -88.2,58.6 -77.2,58.6 -77.2,69.6 -77.2,80.6 -66.2,80.6 
			-55.2,80.6 -55.2,91.6 -55.2,102.6 -44.2,102.6 -33.5,102.6 -33.5,-45.2 -33.5,-54.2 -33.5,-55 -70.5,-55 -106.3,-2.2 
			-106.3,-1.3 -106.3,16.5 -121.2,16.5 -121.2,25.6 		"/>
		<polygon class="st14" points="-159.9,52.3 -177.8,52.3 -177.8,70.2 -177.8,88.1 -195.7,88.1 -213.6,88.1 -213.6,123.8 
			-143.9,123.8 -143.9,52.3 		"/>
		<polygon class="st14" points="-162.7,52.3 -144.9,52.3 -144.9,70.2 -144.9,88.1 -127,88.1 -109.1,88.1 -109.1,123.8 -178.7,123.8 
			-178.7,52.3 		"/>
		<polygon class="st14" points="-197.1,68.5 -197.1,33.6 -161.4,33.6 -161.4,32.8 -161.4,-2.2 -304.4,-2.2 -341.1,-2.2 
			-341.1,123.8 -341.1,140.1 -341.1,175 -304.4,175 -268.7,123.8 -268.7,105.1 -232.9,105.1 -232.9,104.3 -232.9,69.4 -197.1,69.4 
					"/>
	</g>
</g>
<polygon class="st16" points="-13.5,89.7 -13.5,125.5 -192.3,125.5 -192.3,89.7 -190.7,89.7 -156.6,89.7 -156.6,65.9 -156.6,54 
	-139.5,54 -120.8,54 -120.8,18.2 -120,18.2 -85,18.2 -85,-17.6 -84.2,-17.6 -49.3,-17.6 -49.3,-53.3 -48.4,-53.3 -13.5,-53.3 "/>
<g class="st0">
	<g class="st1">
		<polygon points="-70.5,-55 -70.5,-37.1 -70.5,-19.2 -70.5,-2.2 -106.3,-2.2 -106.3,-1.3 -106.3,16.5 -124.1,16.5 -142,16.5 
			-142,34.4 -142,52.3 -159.9,52.3 -177.8,52.3 -177.8,70.2 -177.8,88.1 -195.7,88.1 -213.6,88.1 -213.6,123.8 -33.5,123.8 
			-33.5,-45.2 -33.5,-54.2 -33.5,-55 		"/>
		<polygon class="st14" points="-121.2,14.6 -121.2,25.6 -121.2,36.6 -99.2,36.6 -99.2,58.6 -88.2,58.6 -77.2,58.6 -77.2,69.6 
			-77.2,80.6 -66.2,80.6 -55.2,80.6 -55.2,91.6 -55.2,102.6 -44.2,102.6 -33.2,102.6 -33.2,124.6 -143.9,124.6 -143.9,20.6 
			-143.9,15.1 -143.9,14.6 		"/>
		<polygon points="-197.1,68.5 -197.1,33.6 -161.4,33.6 -161.4,32.8 -161.4,-2.2 -304.4,-2.2 -341.1,-2.2 -341.1,123.8 
			-341.1,140.1 -341.1,175 -304.4,175 -304.4,123.8 -268.7,123.8 -268.7,105.1 -232.9,105.1 -232.9,104.3 -232.9,69.4 -197.1,69.4 
					"/>
	</g>
</g>
<path class="st17" d="M-304.4,125.5v-1.7V89.7h23.8h11.9V72.7V54h35.8v-0.8V18.2h35.8v-0.8v-34.9h4.8h31h4.8v34.9v0.8h35.8v34.9V54
	H-85v18.7v17.1h11.9h23.8v34.1v1.7H-304.4z"/>
<polygon class="st17" points="-247.7,104.5 -247.7,75 -211.9,75 -211.9,39.2 -141.8,39.2 -141.8,75 -106,75 -106,104.5 "/>
<polygon class="st17" points="-127,36.9 -143.9,36.9 -143.9,1.2 -144.9,1.2 -178.7,1.2 -178.7,36.9 -195.7,36.9 -213.6,36.9 
	-213.6,72.7 -178.7,72.7 -143.9,72.7 -109.1,72.7 -109.1,36.9 "/>
<g class="st0">
	<g class="st1">
		<polygon class="st5" points="-26.9,-24.1 -26.9,129 -77.9,129 -77.9,127.8 -77.9,78 -128.9,78 -128.9,76.8 -128.9,27 -179.9,27 
			-179.9,25.8 -179.9,-24.1 		"/>
	</g>
	<g class="st1">
		<polygon class="st6" points="-162.6,107.3 -162.6,140.2 -326.9,140.2 -326.9,107.3 -325.3,107.3 -294,107.3 -294,85.4 -294,74.5 
			-278.3,74.5 -261.2,74.5 -261.2,41.6 -260.4,41.6 -228.3,41.6 -228.3,8.8 -227.6,8.8 -195.5,8.8 -195.5,-24.1 -194.7,-24.1 
			-162.6,-24.1 		"/>
		<polygon class="st6" points="-191.1,107.3 -191.1,140.2 -26.9,140.2 -26.9,107.3 -28.4,107.3 -59.7,107.3 -59.7,85.4 -59.7,74.5 
			-75.4,74.5 -92.5,74.5 -92.5,41.6 -93.3,41.6 -125.4,41.6 -125.4,8.8 -126.1,8.8 -158.2,8.8 -158.2,-24.1 -159,-24.1 
			-191.1,-24.1 		"/>
		<rect x="-326.9" y="-53" class="st5" width="300" height="14"/>
		<rect x="-326.9" y="155.1" class="st5" width="300" height="14"/>
	</g>
	<g class="st1">
		<polygon class="st5" points="-326.9,-24.1 -326.9,74.5 -294,74.5 -294,73.7 -294,41.6 -261.2,41.6 -261.2,40.9 -261.2,8.8 
			-228.3,8.8 -228.3,8 -228.3,-24.1 		"/>
	</g>
</g>
<g class="st0">
	<polygon class="st18" points="375,-313 375,-215.9 342.6,-215.9 342.6,-216.6 342.6,-248.3 310.3,-248.3 310.3,-249 310.3,-280.6 
		277.9,-280.6 277.9,-281.4 277.9,-313 	"/>
</g>
<polygon class="st17" points="259.9,-228.1 259.9,-207.3 364.1,-207.3 364.1,-228.1 363.1,-228.1 343.3,-228.1 343.3,-242 
	343.3,-248.9 333.3,-248.9 322.4,-248.9 322.4,-269.8 321.9,-269.8 301.6,-269.8 301.6,-290.6 301.1,-290.6 280.7,-290.6 
	280.7,-311.5 280.3,-311.5 259.9,-311.5 "/>
<g class="st0">
	<polygon class="st18" points="-140.2,-274.8 -140.2,-212.3 -119.4,-212.3 -119.4,-212.8 -119.4,-233.1 -98.5,-233.1 -98.5,-233.6 
		-98.5,-254 -77.7,-254 -77.7,-254.5 -77.7,-274.8 	"/>
</g>
<path class="st19" d="M-796.5,535h-153.4c-5.4,0-10.3-1.9-14.1-5.1c-4.8-4-7.9-10.1-7.9-16.9V359.6c0-6.1,2.5-11.6,6.4-15.6
	c4-4,9.5-6.4,15.6-6.4h153.4c6.1,0,11.6,2.5,15.6,6.4c4,4,6.4,9.5,6.4,15.6V513c0,6.1-2.5,11.6-6.4,15.6
	C-784.9,532.5-790.4,535-796.5,535z"/>
<g class="st0">
	<g class="st1">
		<g>
			<g>
				<path class="st5" d="M143.1-1.1v11.9l-21.7,54.7h21.7v11.7h-34.5V65.4l21.8-54.7l-21.8,0.1V-1.1H143.1z"/>
				<path class="st5" d="M164.7,77.2h-11.8V-1.1h11.8V77.2z"/>
				<path class="st5" d="M193.9,78.2c-5.2,0-9.6-1.8-13.3-5.5c-3.6-3.7-5.5-8.1-5.5-13.2V16.8c0-5.2,1.8-9.6,5.5-13.3
					c3.7-3.6,8.1-5.5,13.2-5.5c5.2,0,9.6,1.8,13.2,5.5c3.6,3.7,5.4,8.1,5.4,13.2l-12.2-0.2c0-1.9-0.7-3.5-2-4.8
					c-1.3-1.3-2.9-2-4.8-2c-1.9,0-3.5,0.7-4.8,2c-1.3,1.3-2,2.9-2,4.8v42.9c0,1.9,0.7,3.5,2,4.8c1.3,1.3,2.9,2,4.8,2
					c1.9,0,3.5-0.7,4.8-2c1.3-1.3,2-2.9,2-4.8V44h-6.6V32.2h18.8v27.4c0,5.2-1.8,9.6-5.5,13.2C203.4,76.4,199,78.2,193.9,78.2z"/>
				<path class="st5" d="M241.4,78.2c-5.2,0-9.6-1.8-13.3-5.5c-3.6-3.7-5.5-8.1-5.5-13.2V16.8c0-5.2,1.8-9.6,5.5-13.3
					c3.7-3.6,8.1-5.5,13.2-5.5c5.2,0,9.6,1.8,13.2,5.5c3.6,3.7,5.4,8.1,5.4,13.2l-12.2-0.2c0-1.9-0.7-3.5-2-4.8
					c-1.3-1.3-2.9-2-4.8-2c-1.9,0-3.5,0.7-4.8,2c-1.3,1.3-2,2.9-2,4.8v42.9c0,1.9,0.7,3.5,2,4.8c1.3,1.3,2.9,2,4.8,2
					c1.9,0,3.5-0.7,4.8-2c1.3-1.3,2-2.9,2-4.8V44h-6.6V32.2h18.8v27.4c0,5.2-1.8,9.6-5.5,13.2C250.9,76.4,246.5,78.2,241.4,78.2z"/>
				<path class="st5" d="M288.9,78.1c-5.2,0-9.6-1.8-13.2-5.4s-5.4-8-5.4-13.2V-1.1h11.6v60.4c0,1.9,0.7,3.5,2,4.8
					c1.3,1.3,2.9,2,4.8,2s3.5-0.7,4.8-2c1.3-1.3,2-2.9,2-4.8V-1.1h12.3v60.5c0,5.2-1.8,9.7-5.5,13.2C298.4,76.3,294,78.1,288.9,78.1
					z"/>
				<path class="st5" d="M336.7-1.1c6.6,0,11.4,1.8,14.5,5.4c2.7,3.2,4.1,7.6,4.1,13.2V29c0,5.5-2.1,10.2-6.3,14.1l8.7,34.2h-12.8
					l-7.2-29.5c-0.3,0-0.7,0-1.1,0h-6.8v29.5h-11.8V-1.1H336.7z M343.8,17.8c0-4.5-2.2-6.8-6.7-6.8h-7.1V36h7.1c1.9,0,3.5-0.7,4.8-2
					c1.3-1.3,2-2.9,2-4.8V17.8z"/>
				<path class="st5" d="M382.4,59.2l-2.9,18h-12.3l13.3-78.3h16.2l13.1,78.3h-12.4l-2.8-18H382.4z M388.6,16.9l-4.4,30.9h8.7
					L388.6,16.9z"/>
				<g>
					<polygon class="st5" points="404.9,-1.1 406.8,10.8 421.3,10.8 421.3,77.2 433.1,77.2 433.1,10.8 445.6,10.8 445.6,-1.1 					
						"/>
				</g>
			</g>
			<g>
				<path class="st5" d="M108.9,117.6V86.5h14.8v4h-10.8v8.8h6.7l-1.4,3.9h-5.3v14.4H108.9z"/>
				<path class="st5" d="M170.4,86.5h4v22.9c0,6.5-4.9,8.6-9.3,8.6s-9.4-2-9.4-8.6V86.5h4v21.7c0,3.7,1.6,5.8,5.3,5.8
					c3.7,0,5.3-2.1,5.3-5.8V86.5z"/>
				<path class="st5" d="M227,117.6l-13.7-22.9v22.9h-4V86.5h4l13.7,22.8V86.5h4.1v31.1H227z"/>
				<path class="st5" d="M266.1,117.6V86.5h8.4c6.9,0,10.3,4.2,10.3,10.1v12.2c0,6.9-4.3,8.9-9.4,8.9H266.1z M280.7,96.1
					c0-4-2.5-5.6-5.8-5.6h-4.8v23.5h4.5c2.7,0,6.1-0.4,6.1-4.8V96.1z"/>
				<path class="st5" d="M319.9,117.6V90.4l-2.8-0.1v-3.8h6.9v31.1H319.9z"/>
				<path class="st5" d="M376.8,117.6L363,94.7v22.9h-4V86.5h4l13.7,22.8V86.5h4.1v31.1H376.8z"/>
				<path class="st5" d="M429.7,117.6l-0.4-0.9c-1.2,0.8-2.7,1.3-4.8,1.3c-4.7,0-9.4-2.5-9.4-8.8V95.3c0-4.4,1.5-6.6,3.9-8
					c2.9-1.7,7.6-1.4,11.1,0.4l-1.2,3.5c-1.6-0.6-2.8-0.8-4.3-0.8c-2.5,0-5.4,0.6-5.4,4.7v14.4c0,3.4,2.2,4.7,5.3,4.7
					c2.6,0,4.9-1.3,4.9-4.7v-1.2h-2.7l-1.3-3.9h8v13.3H429.7z"/>
			</g>
		</g>
	</g>
	<path class="st20" d="M-104.9,165.3c-15.3,0-27.7-12.4-27.7-27.7V-14.2c0-15.3,12.4-27.7,27.7-27.7H55.2
		c15.3,0,27.7,12.4,27.7,27.7v151.8c0,15.3-12.4,27.7-27.7,27.7H-104.9z"/>
	<path class="st21" d="M-112.6,137.6V-14.2c0-4.2,3.4-7.7,7.7-7.7H55.2c4.2,0,7.7,3.4,7.7,7.7v151.8c0,4.2-3.4,7.7-7.7,7.7h-160.1
		C-109.1,145.3-112.6,141.9-112.6,137.6z"/>
	<g class="st1">
		<g>
			<rect x="-93.9" y="89.6" class="st22" width="138.1" height="27.9"/>
			<path class="st22" d="M-112.6,117.4v20.2c0,4.2,3.4,7.7,7.7,7.7H55.2c4.2,0,7.7-3.4,7.7-7.7v-20.2H-112.6z"/>
		</g>
		<g>
			<g>
				<rect x="-59.9" y="42.9" class="st22" width="70" height="23.8"/>
				<rect x="-79.9" y="66.7" class="st22" width="110" height="22.9"/>
			</g>
			<g>
				<rect x="-39.9" y="15" class="st22" width="30" height="27.9"/>
			</g>
		</g>
	</g>
</g>
<g class="st0">
	<g class="st1">
		<g>
			<g>
				<path class="st23" d="M143.1-2.8V9.1l-21.7,54.7h21.7v11.7h-34.5V63.7L130.4,9l-21.8,0.1V-2.8H143.1z"/>
				<path class="st23" d="M164.7,75.5h-11.8V-2.8h11.8V75.5z"/>
				<path class="st23" d="M193.9,76.5c-5.2,0-9.6-1.8-13.3-5.5c-3.6-3.7-5.5-8.1-5.5-13.2V15.1c0-5.2,1.8-9.6,5.5-13.3
					c3.7-3.6,8.1-5.5,13.2-5.5c5.2,0,9.6,1.8,13.2,5.5c3.6,3.7,5.4,8.1,5.4,13.2l-12.2-0.2c0-1.9-0.7-3.5-2-4.8
					c-1.3-1.3-2.9-2-4.8-2c-1.9,0-3.5,0.7-4.8,2c-1.3,1.3-2,2.9-2,4.8v42.9c0,1.9,0.7,3.5,2,4.8c1.3,1.3,2.9,2,4.8,2
					c1.9,0,3.5-0.7,4.8-2c1.3-1.3,2-2.9,2-4.8V42.3h-6.6V30.4h18.8v27.4c0,5.2-1.8,9.6-5.5,13.2C203.4,74.7,199,76.5,193.9,76.5z"/>
				<path class="st23" d="M241.4,76.5c-5.2,0-9.6-1.8-13.3-5.5c-3.6-3.7-5.5-8.1-5.5-13.2V15.1c0-5.2,1.8-9.6,5.5-13.3
					c3.7-3.6,8.1-5.5,13.2-5.5c5.2,0,9.6,1.8,13.2,5.5c3.6,3.7,5.4,8.1,5.4,13.2l-12.2-0.2c0-1.9-0.7-3.5-2-4.8
					c-1.3-1.3-2.9-2-4.8-2c-1.9,0-3.5,0.7-4.8,2c-1.3,1.3-2,2.9-2,4.8v42.9c0,1.9,0.7,3.5,2,4.8c1.3,1.3,2.9,2,4.8,2
					c1.9,0,3.5-0.7,4.8-2c1.3-1.3,2-2.9,2-4.8V42.3h-6.6V30.4h18.8v27.4c0,5.2-1.8,9.6-5.5,13.2C250.9,74.7,246.5,76.5,241.4,76.5z"
					/>
				<path class="st23" d="M288.9,76.4c-5.2,0-9.6-1.8-13.2-5.4s-5.4-8-5.4-13.2V-2.8h11.6v60.4c0,1.9,0.7,3.5,2,4.8
					c1.3,1.3,2.9,2,4.8,2s3.5-0.7,4.8-2c1.3-1.3,2-2.9,2-4.8V-2.8h12.3v60.5c0,5.2-1.8,9.7-5.5,13.2C298.4,74.6,294,76.4,288.9,76.4
					z"/>
				<path class="st23" d="M336.7-2.8c6.6,0,11.4,1.8,14.5,5.4c2.7,3.2,4.1,7.6,4.1,13.2v11.4c0,5.5-2.1,10.2-6.3,14.1l8.7,34.2
					h-12.8L337.8,46c-0.3,0-0.7,0-1.1,0h-6.8v29.5h-11.8V-2.8H336.7z M343.8,16.1c0-4.5-2.2-6.8-6.7-6.8h-7.1v25.1h7.1
					c1.9,0,3.5-0.7,4.8-2c1.3-1.3,2-2.9,2-4.8V16.1z"/>
				<path class="st23" d="M382.4,57.5l-2.9,18h-12.3l13.3-78.3h16.2l13.1,78.3h-12.4l-2.8-18H382.4z M388.6,15.1L384.2,46h8.7
					L388.6,15.1z"/>
				<g>
					<polygon class="st23" points="404.9,-2.8 406.8,9.1 421.3,9.1 421.3,75.5 433.1,75.5 433.1,9.1 445.6,9.1 445.6,-2.8 					"/>
				</g>
			</g>
			<g>
				<path class="st23" d="M108.9,115.9V84.8h14.8v4h-10.8v8.8h6.7l-1.4,3.9h-5.3v14.4H108.9z"/>
				<path class="st23" d="M170.4,84.7h4v22.9c0,6.5-4.9,8.6-9.3,8.6s-9.4-2-9.4-8.6V84.7h4v21.7c0,3.7,1.6,5.8,5.3,5.8
					c3.7,0,5.3-2.1,5.3-5.8V84.7z"/>
				<path class="st23" d="M227,115.9L213.3,93v22.9h-4V84.8h4l13.7,22.8V84.8h4.1v31.1H227z"/>
				<path class="st23" d="M266.1,115.9V84.7h8.4c6.9,0,10.3,4.2,10.3,10.1V107c0,6.9-4.3,8.9-9.4,8.9H266.1z M280.7,94.4
					c0-4-2.5-5.6-5.8-5.6h-4.8v23.5h4.5c2.7,0,6.1-0.4,6.1-4.8V94.4z"/>
				<path class="st23" d="M319.9,115.9V88.7l-2.8-0.1v-3.8h6.9v31.1H319.9z"/>
				<path class="st23" d="M376.8,115.9L363,93v22.9h-4V84.8h4l13.7,22.8V84.8h4.1v31.1H376.8z"/>
				<path class="st23" d="M429.7,115.9l-0.4-0.9c-1.2,0.8-2.7,1.3-4.8,1.3c-4.7,0-9.4-2.5-9.4-8.8V93.5c0-4.4,1.5-6.6,3.9-8
					c2.9-1.7,7.6-1.4,11.1,0.4l-1.2,3.5c-1.6-0.6-2.8-0.8-4.3-0.8c-2.5,0-5.4,0.6-5.4,4.7v14.4c0,3.4,2.2,4.7,5.3,4.7
					c2.6,0,4.9-1.3,4.9-4.7v-1.2h-2.7l-1.3-3.9h8v13.3H429.7z"/>
			</g>
		</g>
	</g>
	<path class="st24" d="M-104.9,163.6c-15.3,0-27.7-12.4-27.7-27.7V-15.9c0-15.3,12.4-27.7,27.7-27.7H55.2
		c15.3,0,27.7,12.4,27.7,27.7v151.8c0,15.3-12.4,27.7-27.7,27.7H-104.9z"/>
	<path class="st25" d="M-112.6,135.9V-15.9c0-4.2,3.4-7.7,7.7-7.7H55.2c4.2,0,7.7,3.4,7.7,7.7v151.8c0,4.2-3.4,7.7-7.7,7.7h-160.1
		C-109.1,143.6-112.6,140.1-112.6,135.9z"/>
	<g class="st1">
		<g>
			<rect x="-93.9" y="87.9" class="st26" width="138.1" height="27.9"/>
			<path class="st26" d="M-112.6,115.7v20.2c0,4.2,3.4,7.7,7.7,7.7H55.2c4.2,0,7.7-3.4,7.7-7.7v-20.2H-112.6z"/>
		</g>
		<g>
			<g>
				<rect x="-59.9" y="41.1" class="st26" width="70" height="23.8"/>
				<rect x="-79.9" y="65" class="st26" width="110" height="22.9"/>
			</g>
			<g>
				<rect x="-39.9" y="13.3" class="st26" width="30" height="27.9"/>
			</g>
		</g>
	</g>
</g>
<rect x="17.9" y="18.3" class="st23" width="90.3" height="78"/>
<line class="st27" x1="196.4" y1="-218.6" x2="-83.6" y2="-218.6"/>
<g class="st0">
	<g class="st1">
		<g>
			<polygon class="st23" points="108.6,9.1 130.4,9 108.6,63.7 108.6,75.5 143.1,75.5 143.1,63.7 121.4,63.7 143.1,9.1 143.1,-2.8 
				108.6,-2.8 			"/>
			<rect x="152.9" y="-2.8" class="st23" width="11.8" height="78.3"/>
			<path class="st23" d="M212.6,30.4h-18.8v11.9h6.6v15.4c0,1.9-0.7,3.5-2,4.8c-1.3,1.3-2.9,2-4.8,2s-3.5-0.7-4.8-2s-2-2.9-2-4.8
				V14.8c0-1.9,0.7-3.5,2-4.8c1.3-1.3,2.9-2,4.8-2s3.5,0.7,4.8,2c1.3,1.3,2,2.9,2,4.8l12.2,0.2c0-5.2-1.8-9.6-5.4-13.2
				c-3.6-3.7-8-5.5-13.2-5.5c-5.2,0-9.6,1.8-13.2,5.5c-3.7,3.6-5.5,8.1-5.5,13.3v42.7c0,5.1,1.8,9.5,5.5,13.2
				c3.6,3.7,8.1,5.5,13.3,5.5c5.1,0,9.5-1.8,13.2-5.4c3.7-3.6,5.5-8,5.5-13.2V30.4z"/>
			<path class="st23" d="M236.2,10c1.3-1.3,2.9-2,4.8-2s3.5,0.7,4.8,2c1.3,1.3,2,2.9,2,4.8l12.2,0.2c0-5.2-1.8-9.6-5.4-13.2
				c-3.6-3.7-8-5.5-13.2-5.5c-5.2,0-9.6,1.8-13.2,5.5c-3.7,3.6-5.5,8.1-5.5,13.3v42.7c0,5.1,1.8,9.5,5.5,13.2
				c3.6,3.7,8.1,5.5,13.3,5.5c5.1,0,9.5-1.8,13.2-5.4c3.7-3.6,5.5-8,5.5-13.2V30.4h-18.8v11.9h6.6v15.4c0,1.9-0.7,3.5-2,4.8
				c-1.3,1.3-2.9,2-4.8,2s-3.5-0.7-4.8-2s-2-2.9-2-4.8V14.8C234.2,12.9,234.9,11.3,236.2,10z"/>
			<path class="st23" d="M295.3,57.6c0,1.9-0.7,3.5-2,4.8c-1.3,1.3-2.9,2-4.8,2c-1.9,0-3.5-0.7-4.8-2c-1.3-1.3-2-2.9-2-4.8V-2.8
				h-11.6v60.5c0,5.2,1.8,9.6,5.4,13.2c3.6,3.6,8,5.4,13.2,5.4c5.2,0,9.6-1.8,13.2-5.4c3.7-3.6,5.5-8,5.5-13.2V-2.8h-12.3V57.6z"/>
			<path class="st23" d="M355.3,27.3V15.9c0-5.7-1.4-10.1-4.1-13.2c-3.1-3.6-7.9-5.4-14.5-5.4h-18.6v78.3h11.8V46h6.8
				c0.4,0,0.7,0,1.1,0l7.2,29.5h12.8L349,41.3C353.2,37.5,355.3,32.8,355.3,27.3z M343.8,27.5c0,1.9-0.7,3.5-2,4.8
				c-1.3,1.3-2.9,2-4.8,2h-7.1V9.3h7.1c4.5,0,6.7,2.3,6.7,6.8V27.5z"/>
			<path class="st23" d="M380.5-2.8l-13.3,78.3h12.3l2.9-18h12.3l2.8,18h12.4L396.7-2.8H380.5z M384.2,46l4.4-30.9l4.4,30.9H384.2z"
				/>
			<polygon class="st23" points="404.9,-2.8 406.8,9.1 421.3,9.1 421.3,75.5 433.1,75.5 433.1,9.1 445.6,9.1 445.6,-2.8 			"/>
			<polygon class="st23" points="108.9,115.9 112.9,115.9 112.9,101.4 118.2,101.4 119.6,97.5 112.9,97.5 112.9,88.8 123.7,88.8 
				123.7,84.8 108.9,84.8 			"/>
			<path class="st23" d="M170.4,106.5c0,3.7-1.6,5.8-5.3,5.8c-3.7,0-5.3-2.1-5.3-5.8V84.7h-4v22.9c0,6.5,5,8.6,9.4,8.6
				c4.4,0,9.3-2,9.3-8.6V84.7h-4V106.5z"/>
			<polygon class="st23" points="227,107.6 213.3,84.8 209.3,84.8 209.3,115.9 213.3,115.9 213.3,93 227,115.9 231.1,115.9 
				231.1,84.8 227,84.8 			"/>
			<path class="st23" d="M274.5,84.7h-8.4v31.1h9.2c5.1,0,9.4-2,9.4-8.9V94.8C284.8,89,281.4,84.7,274.5,84.7z M280.7,107.4
				c0,4.4-3.4,4.8-6.1,4.8h-4.5V88.7h4.8c3.3,0,5.8,1.6,5.8,5.6V107.4z"/>
			<polygon class="st23" points="317.1,88.6 319.9,88.7 319.9,115.9 324,115.9 324,84.8 317.1,84.8 			"/>
			<polygon class="st23" points="376.8,107.6 363,84.8 359,84.8 359,115.9 363,115.9 363,93 376.8,115.9 380.9,115.9 380.9,84.8 
				376.8,84.8 			"/>
			<path class="st23" d="M426.7,106.5h2.7v1.2c0,3.4-2.4,4.7-4.9,4.7c-3.1,0-5.3-1.3-5.3-4.7V93.1c0-4.1,2.9-4.7,5.4-4.7
				c1.5,0,2.8,0.3,4.3,0.8l1.2-3.5c-3.5-1.8-8.2-2-11.1-0.4c-2.4,1.4-3.9,3.7-3.9,8v13.9c0,6.3,4.7,8.8,9.4,8.8
				c2.1,0,3.6-0.5,4.8-1.3l0.4,0.9h3.6v-13.3h-8L426.7,106.5z"/>
			<path class="st23" d="M55.2-48.6h-160.1c-18,0-32.7,14.7-32.7,32.7v151.8c0,18,14.7,32.7,32.7,32.7H55.2
				c18,0,32.7-14.7,32.7-32.7V-15.9C87.9-33.9,73.2-48.6,55.2-48.6z M77.9,135.9c0,12.5-10.2,22.7-22.7,22.7h-160.1
				c-12.5,0-22.7-10.2-22.7-22.7V-15.9c0-12.5,10.2-22.7,22.7-22.7H55.2c12.5,0,22.7,10.2,22.7,22.7V135.9z"/>
			<path class="st23" d="M55.2-20.1h-160.1c-2.3,0-4.2,1.9-4.2,4.2v128.1h11.7V87.9c0-1.9,1.6-3.5,3.5-3.5h10.5V65
				c0-1.9,1.6-3.5,3.5-3.5h16.5V41.1c0-1.9,1.6-3.5,3.5-3.5h16.5V13.3c0-1.9,1.6-3.5,3.5-3.5h30c1.9,0,3.5,1.6,3.5,3.5v24.4h16.5
				c1.9,0,3.5,1.6,3.5,3.5v20.3h16.5c1.9,0,3.5,1.6,3.5,3.5v19.4h10.5c1.9,0,3.5,1.6,3.5,3.5v24.4h11.7V-15.9
				C59.4-18.2,57.5-20.1,55.2-20.1z"/>
			<polygon class="st23" points="-90.4,91.4 -90.4,112.2 40.7,112.2 40.7,91.4 30.1,91.4 -79.9,91.4 			"/>
			<path class="st23" d="M-93.9,119.2h-15.2v16.7c0,2.3,1.9,4.2,4.2,4.2H55.2c2.3,0,4.2-1.9,4.2-4.2v-16.7H44.2H-93.9z"/>
			<polygon class="st23" points="-56.4,44.6 -56.4,61.5 6.6,61.5 6.6,44.6 -9.9,44.6 -39.9,44.6 			"/>
			<polygon class="st23" points="-76.4,68.5 -76.4,84.4 26.6,84.4 26.6,68.5 10.1,68.5 -59.9,68.5 			"/>
			<rect x="-36.4" y="16.8" class="st23" width="23" height="20.9"/>
		</g>
		<path class="st28" d="M55.2-27.1h-160.1c-6.2,0-11.2,5-11.2,11.2v131.6v20.2c0,6.2,5,11.2,11.2,11.2H55.2c6.2,0,11.2-5,11.2-11.2
			v-20.2V-15.9C66.4-22.1,61.3-27.1,55.2-27.1z M-104.9,140.1c-2.3,0-4.2-1.9-4.2-4.2v-16.7h15.2H44.2h15.2v16.7
			c0,2.3-1.9,4.2-4.2,4.2H-104.9z M-79.9,91.4h110h10.5v20.9H-90.4V91.4H-79.9z M-59.9,68.5h70h16.5v15.9h-103V68.5H-59.9z
			 M-39.9,44.6h30H6.6v16.8h-63V44.6H-39.9z M-13.4,37.6h-23V16.8h23V37.6z M47.7,112.2V87.9c0-1.9-1.6-3.5-3.5-3.5H33.6V65
			c0-1.9-1.6-3.5-3.5-3.5H13.6V41.1c0-1.9-1.6-3.5-3.5-3.5H-6.4V13.3c0-1.9-1.6-3.5-3.5-3.5h-30c-1.9,0-3.5,1.6-3.5,3.5v24.4h-16.5
			c-1.9,0-3.5,1.6-3.5,3.5v20.3h-16.5c-1.9,0-3.5,1.6-3.5,3.5v19.4h-10.5c-1.9,0-3.5,1.6-3.5,3.5v24.4h-11.7V-15.9
			c0-2.3,1.9-4.2,4.2-4.2H55.2c2.3,0,4.2,1.9,4.2,4.2v128.1H47.7z"/>
	</g>
</g>
<g>
	<path class="st3" d="M219.4,74.9h-2.5v12.2h2.4c1.4,0,3.2-0.2,3.2-2.5v-6.8l0,0C222.4,75.8,221,74.9,219.4,74.9z"/>
	<path class="st3" d="M251.6,33.6h-3.7v13h3.7c1,0,1.8-0.4,2.5-1c0.7-0.7,1-1.5,1-2.5v-6H255C255.1,34.8,254,33.6,251.6,33.6z"/>
	<polygon class="st3" points="276.1,52.8 280.7,52.8 278.4,36.7 	"/>
	<path class="st3" d="M105.3,8.7H22c-6.5,0-11.8,5.3-11.8,11.8v78.9c0,6.5,5.3,11.8,11.8,11.8h83.2c6.5,0,11.8-5.3,11.8-11.8V20.5
		C117.1,14,111.7,8.7,105.3,8.7z M111.8,88.9v10.5c0,3.6-3,6.6-6.6,6.6H22c-3.6,0-6.6-3-6.6-6.6V88.9V20.5c0-3.6,3-6.6,6.6-6.6h83.2
		c3.6,0,6.6,3,6.6,6.6V88.9z"/>
	<g>
		<polygon class="st23" points="133,33.5 144.3,33.5 133,61.9 133,68 150.8,68 150.8,61.9 139.5,61.9 150.8,33.5 150.8,27.3 
			133,27.3 		"/>
		<rect x="156" y="27.3" class="st23" width="6.2" height="40.7"/>
		<path class="st23" d="M187,44.7h-9.9v6.2h3.4v8c0,1-0.4,1.8-1,2.5c-0.7,0.7-1.5,1-2.5,1c-1,0-1.8-0.4-2.5-1c-0.6-0.6-1-1.5-1-2.5
			V36.4c0-1,0.4-1.8,1-2.5c0.7-0.7,1.5-1,2.5-1c1,0,1.8,0.4,2.5,1c0.7,0.7,1,1.5,1,2.5l6.4,0.1c0-2.7-0.9-4.9-2.8-6.9
			c-1.8-2-4.2-2.9-6.9-2.9s-4.9,1-6.9,2.9c-2,2-2.9,4.2-2.9,6.9v22.2c0,2.7,1,4.9,2.9,6.9c2,2,4.2,2.9,6.9,2.9
			c2.7,0,4.9-0.9,6.8-2.8c2-1.8,2.9-4.2,2.9-6.9V44.7H187z"/>
		<path class="st23" d="M199.2,34c0.7-0.7,1.5-1,2.5-1c1,0,1.8,0.4,2.5,1c0.7,0.7,1,1.5,1,2.5l6.4,0.1c0-2.7-0.9-4.9-2.8-6.9
			c-1.8-2-4.2-2.9-6.9-2.9c-2.7,0-4.9,1-6.9,2.9c-2,2-2.9,4.2-2.9,6.9v22.2c0,2.7,1,4.9,2.9,6.9c2,2,4.2,2.9,6.9,2.9
			c2.7,0,4.9-0.9,6.8-2.8c2-1.8,2.9-4.2,2.9-6.9V44.7h-9.8v6.2h3.4v8c0,1-0.4,1.8-1,2.5s-1.5,1-2.5,1c-1,0-1.8-0.4-2.5-1
			s-1-1.5-1-2.5V36.4C198.1,35.4,198.6,34.6,199.2,34z"/>
		<path class="st23" d="M230.1,58.7c0,1-0.4,1.8-1,2.5c-0.7,0.7-1.5,1-2.5,1c-1,0-1.8-0.4-2.5-1c-0.7-0.7-1-1.5-1-2.5V27.3H217v31.5
			c0,2.7,0.9,5,2.8,6.9c1.8,1.8,4.2,2.8,6.9,2.8s5-0.9,7-2.9c2-1.8,2.9-4.2,2.9-6.9V27.3h-6.4v31.4H230.1z"/>
		<path class="st23" d="M261.2,42.9v-6c0-2.9-0.7-5.2-2.2-6.9c-1.6-1.8-4.1-2.8-7.5-2.8h-9.8v40.7h6.2V52.8h3.5c0.2,0,0.4,0,0.6,0
			l3.7,15.3h6.7l-4.5-17.8C260,48.2,261.2,45.8,261.2,42.9z M255.2,43c0,1-0.4,1.8-1,2.5c-0.7,0.7-1.5,1-2.5,1H248V33.6h3.7
			c2.4,0,3.5,1.2,3.5,3.5h0.1v6H255.2z"/>
		<path class="st23" d="M274.3,27.3l-7,40.6h6.4l1.5-9.3h6.4L283,68h6.5l-6.8-40.6H274.3z M276.1,52.8l2.3-16l2.3,16
			C280.7,52.8,276.1,52.8,276.1,52.8z"/>
		<polygon class="st23" points="286.9,27.3 287.9,33.5 295.4,33.5 295.4,68 301.6,68 301.6,33.5 308.1,33.5 308.1,27.3 		"/>
		<polygon class="st23" points="133.1,89 135.1,89 135.1,81.5 137.9,81.5 138.6,79.4 135.1,79.4 135.1,74.9 140.8,74.9 140.8,72.9 
			133.1,72.9 		"/>
		<path class="st23" d="M165,72.9v11.3c0,2-0.8,3-2.8,3s-2.8-1.1-2.8-3V72.9h-2.1v11.9c0,3.4,2.6,4.5,4.9,4.5c2.3,0,4.8-1.1,4.8-4.5
			V72.9H165L165,72.9z"/>
		<polygon class="st23" points="194.4,84.7 187.4,72.9 185.3,72.9 185.3,89 187.4,89 187.4,77.1 194.4,89 196.6,89 196.6,72.9 
			194.4,72.9 		"/>
		<path class="st23" d="M219.2,72.9h-4.4V89v0.1h4.8c2.7,0,4.9-1,4.9-4.6v-6.4C224.5,75,222.8,72.9,219.2,72.9z M222.4,84.7
			c0,2.3-1.7,2.5-3.2,2.5h-2.4V74.9h2.5c1.7,0,3,0.8,3,2.9l0,0v6.9H222.4z"/>
		<polygon class="st23" points="241.2,74.8 242.8,74.8 242.8,89 244.8,89 244.8,72.9 241.2,72.9 		"/>
		<polygon class="st23" points="272.3,84.7 265.2,72.9 263.1,72.9 263.1,89 265.2,89 265.2,77.1 272.3,89 274.5,89 274.5,72.9 
			272.3,72.9 		"/>
		<path class="st23" d="M298.3,84.2h1.4v0.6c0,1.7-1.2,2.5-2.6,2.5c-1.6,0-2.8-0.7-2.8-2.5v-7.5c0-2.2,1.5-2.5,2.8-2.5
			c0.8,0,1.4,0.1,2.3,0.4l0.6-1.8c-1.8-0.9-4.3-1.1-5.7-0.2c-1.2,0.7-2.1,1.8-2.1,4.2v7.2c0,3.3,2.5,4.6,4.9,4.6
			c1.1,0,1.8-0.3,2.5-0.7l0.2,0.5v0.1h2v-6.9h-4.2L298.3,84.2z"/>
		<path class="st23" d="M105.3,3.5H22c-9.3,0-17,7.6-17,17v78.9c0,9.3,7.6,17,17,17h83.2c9.3,0,17-7.6,17-17V20.5
			C122.2,11.1,114.6,3.5,105.3,3.5z M117.1,99.4c0,6.5-5.3,11.8-11.8,11.8H22c-6.5,0-11.8-5.3-11.8-11.8V20.5
			c0-6.5,5.3-11.8,11.8-11.8h83.2c6.5,0,11.8,5.3,11.8,11.8V99.4z"/>
		<polygon class="st23" points="30.3,77.1 30.3,86.3 96.9,86.3 96.9,77.1 92.1,77.1 35,77.1 		"/>
		<path class="st23" d="M27.2,91.5h-6.6v7.9c0,0.8,0.6,1.4,1.4,1.4h83.2c0.8,0,1.4-0.6,1.4-1.4v-7.9H100H27.2z"/>
		<polygon class="st23" points="48,52.8 48,59.9 79.2,59.9 79.2,52.8 71.4,52.8 55.8,52.8 		"/>
		<polygon class="st23" points="37.6,65.2 37.6,71.9 89.6,71.9 89.6,65.2 81.8,65.2 45.4,65.2 		"/>
		<rect x="58.4" y="38.3" class="st23" width="10.4" height="9.3"/>
	</g>
	<path class="st29" d="M105.3,13.9H22c-3.6,0-6.6,3-6.6,6.6v68.4v10.5c0,3.6,3,6.6,6.6,6.6h83.2c3.6,0,6.6-3,6.6-6.6V88.9V20.5
		C111.8,16.8,108.8,13.9,105.3,13.9z M22,100.8c-0.8,0-1.4-0.6-1.4-1.4v-7.9h6.6H100h6.6v7.9c0,0.8-0.6,1.4-1.4,1.4H22z M45.4,65.2
		h36.4h7.8v6.7h-52v-6.7H45.4z M55.8,52.8h15.6h7.8v7.2H48v-7.2H55.8z M58.4,38.3h10.4v9.3H58.4V38.3z M35,77.1h57.2h4.8v9.2H30.3
		v-9.2H35z M102.1,86.3V74.4c0-1.4-1.1-2.6-2.6-2.6h-4.7v-9.3c0-1.4-1.1-2.6-2.6-2.6h-7.8v-9.8c0-1.4-1.1-2.6-2.6-2.6h-7.8v-9.3h6
		v-5.2h-8.5H55.8h-8.5v5.2h6v9.3h-7.8c-1.4,0-2.6,1.1-2.6,2.6v9.8h-7.8c-1.4,0-2.6,1.1-2.6,2.6v9.3h-4.7c-1.4,0-2.6,1.1-2.6,2.6
		v11.8h-4.5V20.5c0-0.8,0.6-1.4,1.4-1.4h83.2c0.8,0,1.4,0.6,1.4,1.4v65.8C106.8,86.3,102.1,86.3,102.1,86.3z"/>
</g>
</svg>
