<?xml version="1.0" encoding="utf-8"?>
<!-- Generator: Adobe Illustrator 21.0.2, SVG Export Plug-In . SVG Version: 6.00 Build 0)  -->
<svg version="1.1" id="Layer_1" xmlns="http://www.w3.org/2000/svg" xmlns:xlink="http://www.w3.org/1999/xlink" x="0px" y="0px"
	 viewBox="0 0 1000 1000" style="enable-background:new 0 0 1000 1000;" xml:space="preserve">
<style type="text/css">
	.st0{display:none;}
	.st1{display:inline;fill:#FFFFFF;stroke:#62AEC9;stroke-width:5;stroke-miterlimit:10;}
	.st2{display:inline;}
	.st3{fill:none;stroke:#62AEC9;stroke-width:12;stroke-miterlimit:10;}
	.st4{fill:none;stroke:#62AEC9;stroke-width:12;stroke-linecap:round;stroke-miterlimit:10;}
	.st5{display:inline;fill:none;stroke:#62AEC9;stroke-width:12;stroke-miterlimit:10;}
	.st6{fill:none;stroke:#62AEC9;stroke-width:12;stroke-linecap:round;stroke-linejoin:round;stroke-miterlimit:10;}
	.st7{fill:#62AEC9;}
	.st8{fill:#62AEC9;stroke:#62AEC9;stroke-width:12;stroke-linecap:round;stroke-linejoin:round;stroke-miterlimit:10;}
	.st9{display:inline;fill:none;stroke:#62AEC9;stroke-width:12;stroke-linecap:round;stroke-linejoin:round;stroke-miterlimit:10;}
	.st10{fill:none;}
	.st11{fill:none;stroke:#FFFFFF;stroke-width:40;stroke-miterlimit:10;}
	.st12{fill:none;stroke:#FFFFFF;stroke-width:14;stroke-miterlimit:10;}
</style>
<g class="st0">
	<path class="st1" d="M356.5,717c-0.6-4.7-1-9.5-1-14.4c0-58.6,47.5-106,106-106s106,47.5,106,106c0,58.6-47.5,106-106,106
		c-39.4,0-73.8-21.5-92.1-53.5"/>
	<polyline class="st1" points="355.6,715.4 410.2,770 545.1,635.2 	"/>
</g>
<g class="st0">
	<g class="st2">
		<path class="st3" d="M985,500c0-267.9-217.1-485-485-485S15,232.1,15,500c0,137,56.8,260.8,148.2,349V250.4h673.6V849
			C928.2,760.8,985,637,985,500z"/>
		<path class="st3" d="M163.2,250.4V849c87.2,84.2,205.9,136,336.8,136s249.5-51.8,336.8-136V250.4H163.2z"/>
	</g>
	<g class="st2">
		<path class="st3" d="M295.9,389.6c21.7-21.6,43.4-43.2,65.1-64.8c5.1,9.1,10.2,18.2,15.3,27.3c19.4-2.7,37.7-12.6,50.5-27.4
			c-8.6,11.7-7.8,29.4,2,40.2c40.5-22.1,90-27,134.1-13.2c31.5,9.9,62.5,29,95,23.2c37-6.6,69.3-44.9,105-33.2"/>
		<path class="st3" d="M338.1,612.8c52.5-26.4,114.8,1.3,173.6,1.6c71,0.4,138.2-40.1,209-35.6"/>
		<path class="st3" d="M231,407.4h-44c-1.7,0-3.1-1.4-3.1-3.1v-44.1c0-1.7,1.4-3.1,3.1-3.1h44c1.7,0,3.1,1.4,3.1,3.1v44.1
			C234.1,406,232.7,407.4,231,407.4z"/>
		<path class="st3" d="M231,528.2h-44c-1.7,0-3.1-1.4-3.1-3.1V481c0-1.7,1.4-3.1,3.1-3.1h44c1.7,0,3.1,1.4,3.1,3.1v44.1
			C234.1,526.8,232.7,528.2,231,528.2z"/>
		<g>
			<g>
				<path class="st3" d="M231,639.4h-44c-1.7,0-3.1-1.4-3.1-3.1v-44.1c0-1.7,1.4-3.1,3.1-3.1h44c1.7,0,3.1,1.4,3.1,3.1v44.1
					C234.1,638.1,232.7,639.4,231,639.4z"/>
				<polyline class="st4" points="197.9,601.2 218.8,622.1 270.3,570.6 				"/>
			</g>
			<g>
				<path class="st3" d="M231,760.4h-44c-1.7,0-3.1-1.4-3.1-3.1v-44.1c0-1.7,1.4-3.1,3.1-3.1h44c1.7,0,3.1,1.4,3.1,3.1v44.1
					C234.1,759,232.7,760.4,231,760.4z"/>
				<polyline class="st4" points="197.9,722.2 218.8,743.1 270.3,691.6 				"/>
			</g>
			<polyline class="st4" points="197.9,495.2 218.8,516 270.3,464.6 			"/>
			<polyline class="st4" points="197.9,373.6 218.8,394.5 270.3,343 			"/>
		</g>
		<path class="st3" d="M326.6,753.6c24.5-4.9,44.4-26,69.4-26.7c11.3-0.3,22.2,3.7,33.4,5c11.2,1.3,24.2-0.9,30.4-10.4
			c27.4,29.6,77.6,34.2,109.9,10.1c12.6,12.9,33.1,17.2,49.9,10.6c6.1-2.4,11.7-6.2,18.2-7.8c24.7-6,50.8,22.3,73.4,10.7"/>
		<path class="st3" d="M326.6,496c24.5-4.9,44.4-26,69.4-26.7c11.3-0.3,22.2,3.7,33.4,5c11.2,1.3,24.2-0.9,30.4-10.4
			c27.4,29.6,77.6,34.2,109.9,10.1c12.6,12.9,33.1,17.2,49.9,10.6c6.1-2.4,11.7-6.2,18.2-7.8c24.7-6,50.8,22.3,73.4,10.7"/>
	</g>
</g>
<g class="st0">
	<circle class="st5" cx="500" cy="500" r="475"/>
	<g class="st2">
		<circle class="st3" cx="621.1" cy="796.3" r="28.9"/>
		<line class="st3" x1="374.9" y1="767.4" x2="592.2" y2="796.3"/>
		<g>
			<circle class="st3" cx="182" cy="529.2" r="47.5"/>
			<circle class="st3" cx="818" cy="556.3" r="47.5"/>
			<circle class="st3" cx="297.4" cy="745.3" r="80.6"/>
			<circle class="st3" cx="730" cy="257.8" r="54.7"/>
			<circle class="st3" cx="387.4" cy="203.1" r="28.9"/>
			<line class="st3" x1="207.5" y1="489.1" x2="372.5" y2="226.7"/>
			<line class="st3" x1="407.4" y1="223.8" x2="784.5" y2="529.2"/>
			<line class="st3" x1="780.1" y1="585" x2="370.6" y2="711.6"/>
			<line class="st3" x1="416.3" y1="203.1" x2="675.2" y2="257.8"/>
			<line class="st3" x1="198.9" y1="573.6" x2="252.4" y2="678.4"/>
			<line class="st3" x1="730" y1="312.6" x2="642.6" y2="776.9"/>
			<line class="st3" x1="387.4" y1="232" x2="321.9" y2="668.5"/>
			<line class="st3" x1="229.5" y1="529.2" x2="698.2" y2="302.4"/>
		</g>
	</g>
</g>
<g class="st0">
	<polygon class="st5" points="698.9,159.7 649.2,198.9 649.2,198.9 649.2,198.9 698.9,159.7 	"/>
	<polygon class="st5" points="526.2,317.9 526.2,317.9 579,276.3 579,276.3 	"/>
	<path class="st5" d="M588.6,94.4c-1.8-0.2-3.8-0.3-6-0.2c1.5,0.3,3,0.6,4.5,1C587.6,94.9,588.1,94.7,588.6,94.4z"/>
	<path class="st5" d="M611.1,50.7l-7,5.5C608.5,53.4,611.1,51.4,611.1,50.7z"/>
	<polygon class="st5" points="402.8,170.9 345.8,215.8 475.3,380.1 345.8,215.8 	"/>
	<polygon class="st5" points="475.3,380.1 530.1,336.8 530.1,336.8 	"/>
	<polygon class="st5" points="478.1,355.8 370,218.7 370,218.7 478.1,355.8 526.2,317.9 526.2,317.9 	"/>
	<polygon class="st5" points="579,276.3 579,276.3 590.2,267.5 590.2,267.5 583.2,273 	"/>
	<circle class="st5" cx="651.1" cy="219.4" r="0"/>
	<g class="st2">
		
			<ellipse transform="matrix(0.7853 -0.6191 0.6191 0.7853 84.8401 434.0695)" class="st3" cx="668.3" cy="94.7" rx="17.3" ry="17.3"/>
		<path class="st3" d="M598.2,143.7c-1.2-1-2.5-1.7-3.9-2.3c-0.9-0.4-1.8-0.7-2.8-0.9c-0.8-0.2-1.6-0.3-2.4-0.3
			c-1.1,0-2.2,0-3.4,0.2c-0.7,0.1-1.5,0.3-2.2,0.5c-2.9,0.7-5.6,2.1-8.1,4.1c-0.9,0.7-1.7,1.4-2.4,2.2c-0.2,0.2-0.3,0.4-0.5,0.5
			c-0.4,0.5-0.8,1-1.2,1.5c-0.1,0.1-0.2,0.3-0.3,0.4c-0.4,0.6-0.8,1.1-1.1,1.7c-0.6,1-1.1,2.1-1.6,3.2c-0.1,0.3-0.2,0.6-0.3,0.9
			c-0.2,0.6-0.4,1.2-0.6,1.9c-0.2,0.7-0.4,1.4-0.5,2.1c-0.2,0.7-0.3,1.4-0.4,2.1c-0.3,1.5-0.5,3.1-0.6,4.8c-0.4,4.5-0.7,8.2-1,11.1
			c-0.1,1.1-0.2,2.2-0.3,3c-0.7,4.2-2.3,7.3-4.8,9.3c-1.7,1.4-3.3,2.1-4.7,2.2c-0.1,0-0.3,0-0.4,0c-2.6,0.2-4.8-0.6-6.3-2.5
			c-1.1-1.3-1.5-2.9-1.3-4.7c0-0.1,0-0.2,0-0.3c0.4-2.6,2.2-5.6,5.4-8.8l-3-3.3l-4.5-4.9l0,0c-3.6,3.2-6.2,6.7-7.7,10.5
			c0,0.1-0.1,0.2-0.1,0.3c-1.8,4.6-1.8,9.1,0.2,13.5l-4.4,3.5l6.1,7.7l0,0l4.2-3.3c0.4,0.4,0.8,0.7,1.3,1c0.7,0.5,1.4,1,2.2,1.4
			c1.1,0.6,2.2,1,3.3,1.4c0.6,0.2,1.2,0.3,1.9,0.4c0.3,0,0.5,0.1,0.8,0.1c0.4,0,0.8,0.1,1.2,0.1l0,0c2.7,0.1,5.4-0.5,8.1-1.8
			c1.9-0.9,3.7-2.1,5.5-3.6c2.2-1.8,4.2-4.5,5.8-8c0.2-0.5,0.5-1,0.7-1.5c0.1-0.4,0.3-0.7,0.4-1.1s0.3-0.8,0.4-1.2
			c0.2-0.5,0.3-1,0.4-1.5c0.2-0.7,0.4-1.5,0.6-2.3c0.1-0.5,0.2-0.9,0.3-1.4c0.2-0.9,0.3-1.9,0.5-2.9c0.1-0.6,0.2-1.6,0.2-2.8
			s0.1-2.7,0.1-4.4c0-0.4,0-0.7,0-1.1c0-1.1,0.1-2,0.2-2.9c0.1-1.2,0.3-2.2,0.4-3c0.6-2.8,1.6-5.2,2.8-7.2c0.5-0.8,1.1-1.5,1.8-2.2
			c0,0,0-0.1,0.1-0.1c0,0,0,0,0.1-0.1c0.3-0.3,0.6-0.6,0.9-0.8c0.3-0.2,0.5-0.4,0.8-0.5c1.5-1,3-1.7,4.5-1.9c0.5-0.1,1-0.1,1.5,0
			c0.4,0,0.8,0.1,1.2,0.3c0.5,0.2,1,0.4,1.4,0.8c0.4,0.3,0.7,0.7,1.1,1.1c0.5,0.7,0.9,1.3,1.2,2c0.1,0.2,0.2,0.5,0.2,0.7
			c0.2,0.7,0.2,1.4,0,2c-0.5,2.3-1.9,4.5-4.2,6.7l0,0l4.6,4.1l2.3,2l1.6,1.4l0,0c2-1.8,3.6-3.8,4.7-6c0.7-1.3,1.2-2.7,1.5-4.1
			c0.1-0.5,0.2-1.1,0.3-1.6c0.1-0.4,0.1-0.8,0.1-1.2c0-0.3,0-0.6,0-0.9c0-0.1,0-0.1,0-0.2c0-0.4,0-0.8,0-1.2
			c-0.1-0.9-0.2-1.9-0.5-2.8c-0.3-1.1-0.7-2.2-1.2-3.3c0-0.1-0.1-0.1-0.1-0.2l3.9-3.1l0,0l-6.1-7.7L598.2,143.7z"/>
		<path class="st3" d="M460.8,236.3c-4.8,3.8-7,9.5-6.5,15.2c0,0.4,0.1,0.8,0.1,1.1c0.4,2.8,1.6,5.6,3.5,8
			c5.9,7.5,16.8,8.8,24.3,2.9c1.9-1.5,3.4-3.3,4.4-5.2c3.2-5.9,2.9-13.4-1.6-19C479.2,231.7,468.3,230.4,460.8,236.3z"/>
	</g>
	<g class="st2">
		<path class="st3" d="M737.5,122.6L737.5,122.6L654.1,16.8L551.2,97.9l0,0l1.1,0.1l5.9-4.7c8.1-0.9,16.3-0.6,24.4,0.9
			c2.2,0,4.2,0,6,0.2c10.3,2.7,20.1,7.4,28.8,14l0,0c3.2,2.4,6.2,5.1,9.1,8c0.3,0.3,0.6,0.6,0.9,0.9c0.3,0.4,0.7,0.7,1,1.1
			c0.4,0.5,0.8,0.9,1.2,1.4c0.3,0.3,0.5,0.6,0.8,0.9c0.7,0.8,1.3,1.6,2,2.4c3.4,4.4,6.4,8.9,8.8,13.7c0.4,0.9,0.9,1.8,1.3,2.6
			c0.6,1.4,1.2,2.8,1.8,4.2c0.1,0.4,0.3,0.7,0.4,1.1c0.5,1.4,1.1,2.9,1.5,4.3c0.7,2.1,1.3,4.3,1.8,6.4c0.8,3.6,1.4,7.2,1.8,10.8
			c0.2,1.9,0.3,3.8,0.3,5.7c0,1.1,0,2.2,0,3.2c0,3.2-0.3,6.5-0.7,9.7l0,0c-0.7,5.8-2,11.5-3.9,17.1l0,0l0,0l0.5-0.4l2.9-2.3l0.4-0.3
			l0,0l91.6-72.2l0,0L737.5,122.6z M657.6,81.2c7.5-5.9,18.4-4.6,24.3,2.9c5.9,7.5,4.6,18.4-2.9,24.3c-7.5,5.9-18.4,4.6-24.3-2.9
			C648.8,97.9,650.1,87.1,657.6,81.2z"/>
		<path class="st3" d="M576.7,256.1L576.7,256.1c-20,2.2-40.5-2.9-57.2-14.9l0,0l-1.9-0.2c-5.5-4.1-10.5-9-15-14.6
			c-14.3-18.2-19.7-40.5-16.9-61.8l0,0c0.1-0.8,0.2-1.6,0.3-2.3l0,0c0.8-5.5,2.1-10.9,4-16.1l0,0l-61.7,48.6l-34.1,26.8l0,0
			l73.4,93.1l13.3,16.8l67.2-53L576.7,256.1z M454.5,252.6c-1-6,1.3-12.3,6.4-16.3c7.5-5.9,18.4-4.6,24.3,2.9
			c4.4,5.6,4.8,13.1,1.6,19c-0.3,0.5-0.6,1-0.9,1.4c-1,1.4-2.1,2.7-3.6,3.8c-7.5,5.9-18.4,4.6-24.3-2.9
			C456.1,258.1,454.9,255.4,454.5,252.6z"/>
	</g>
	<path class="st5" d="M659.8-31.8L592.9,21l-90.2,71.2l-3,2.4l0,0L402.8,171l-57,44.9l129.5,164.2l54.9-43.3l210.1-165.6l49.1-38.7
		l0,0L659.8-31.8z M537.1,178.3c0-0.1,0.1-0.2,0.1-0.3c1.6-3.8,4.2-7.3,7.7-10.5l0,0l4.5,4.9l3,3.3c-3.3,3.2-5.1,6.1-5.4,8.8
		c0,0.1,0,0.2,0,0.3c-0.2,1.9,0.2,3.5,1.3,4.7c1.6,1.8,3.7,2.7,6.3,2.5c0.1,0,0.3,0,0.4,0c1.4-0.1,3-0.9,4.7-2.2
		c2.5-2,4.1-5,4.8-9.3c0.1-0.9,0.2-1.9,0.3-3c0.2-2.9,0.6-6.6,1-11.1c0.2-1.7,0.4-3.3,0.6-4.8c0.1-0.7,0.3-1.4,0.4-2.1
		c0.2-0.7,0.3-1.4,0.5-2.1c0.2-0.7,0.4-1.3,0.6-1.9c0.1-0.3,0.2-0.6,0.3-0.9c0.2-0.6,0.5-1.1,0.7-1.6s0.6-1,0.9-1.6
		c0.4-0.6,0.7-1.2,1.1-1.7c0.1-0.1,0.2-0.3,0.3-0.4c0.5-0.7,1.1-1.4,1.7-2c0.7-0.8,1.5-1.5,2.4-2.2c2.5-2,5.2-3.3,8.1-4.1
		c0.4-0.1,0.7-0.2,1.1-0.3c0.4-0.1,0.7-0.1,1.1-0.2c0.6-0.1,1.1-0.1,1.7-0.2c0.6,0,1.1,0,1.7,0c3.3,0.1,6.3,1.3,9,3.5l3.9-3.1
		l6.1,7.7l0,0l-3.9,3.1c0,0.1,0.1,0.1,0.1,0.2c0.5,1.1,0.9,2.2,1.2,3.3c0.2,0.9,0.4,1.9,0.5,2.8c0,0.4,0,0.8,0,1.2
		c0,0.1,0,0.1,0,0.2c0,0.3,0,0.6,0,0.9c-0.1,0.9-0.2,1.9-0.5,2.7c-0.3,1.4-0.8,2.8-1.5,4.1c-0.3,0.5-0.6,1.1-0.9,1.6
		c-1,1.6-2.3,3-3.8,4.4l0,0l-1.6-1.4l-2.3-2l-4.6-4.1l0,0c2.2-2.2,3.6-4.4,4.2-6.7c0.2-0.9,0.1-1.8-0.2-2.7c-0.2-0.7-0.6-1.3-1.2-2
		c-0.1-0.2-0.3-0.3-0.4-0.5c0,0,0-0.1-0.1-0.1c-0.2-0.2-0.4-0.3-0.6-0.5c-0.4-0.3-0.9-0.6-1.4-0.8c-0.4-0.1-0.8-0.2-1.2-0.3
		c-0.5,0-1,0-1.5,0c-1.5,0.2-3,0.8-4.5,1.9c-0.3,0.2-0.5,0.3-0.8,0.5c-0.3,0.3-0.6,0.5-0.9,0.8c0,0,0,0-0.1,0.1c0,0,0,0.1-0.1,0.1
		c-0.3,0.3-0.6,0.7-0.9,1s-0.6,0.7-0.8,1.1c-1.3,1.9-2.2,4.3-2.8,7.2c-0.2,0.8-0.3,1.8-0.4,3c-0.1,0.9-0.1,1.8-0.2,2.9
		c0,0.4,0,0.7,0,1.1c0,0.7,0,1.3,0,1.8c0,0.6,0,1.1-0.1,1.6c0,0.3,0,0.6,0,0.9s0,0.6,0,0.8c-0.1,0.8-0.1,1.4-0.2,1.9
		c-0.1,1-0.3,2-0.5,2.9c-0.1,0.5-0.2,0.9-0.3,1.4c-0.2,0.8-0.4,1.6-0.6,2.3c-0.1,0.5-0.3,1-0.4,1.5c-0.1,0.4-0.3,0.8-0.4,1.2
		s-0.3,0.7-0.4,1.1c-0.2,0.5-0.4,1-0.7,1.5c-1.6,3.5-3.6,6.2-5.8,8c-1.8,1.5-3.7,2.7-5.5,3.6c-2,0.9-4,1.5-6,1.7
		c-0.7,0.1-1.4,0.1-2,0.1l0,0c-0.4,0-0.8,0-1.2-0.1c-0.3,0-0.5-0.1-0.8-0.1c-0.6-0.1-1.3-0.2-1.9-0.4c-1.1-0.3-2.3-0.8-3.3-1.4
		c-0.7-0.4-1.5-0.9-2.2-1.4c-0.4-0.3-0.9-0.7-1.3-1l-4.2,3.3l0,0l-6.1-7.7l4.4-3.5C535.4,187.4,535.3,182.9,537.1,178.3z
		 M428.4,194.7l61.7-48.6l0,0c-2.2,6-3.6,12.2-4.3,18.4l0,0c-2.8,21.3,2.6,43.6,16.9,61.8c4.4,5.6,9.5,10.5,15,14.6l1.9,0.2l0,0
		c16.7,12,37.2,17.1,57.2,14.9l0,0l-28.5,22.4l-67.2,53l-13.3-16.8l-73.4-93.1l0,0L428.4,194.7z M370,218.7L370,218.7l108.1,137.1
		l48.1-37.9l0,0l-48.1,37.9L370,218.7z M526.2,317.9l52.8-41.6l0,0L526.2,317.9z M579,276.3L579,276.3l4.2-3.3l7-5.5L579,276.3z
		 M740.8,126.7L706.2,154l-7.2,5.7l0,0l-49.7,39.2l-0.4,0.3l-3.4,2.7c1.9-5.6,3.2-11.3,3.9-17.1l0,0c0.6-4.3,0.8-8.6,0.7-12.9
		c0-1.9-0.2-3.8-0.3-5.7c-0.5-5.8-1.7-11.6-3.5-17.2c-0.5-1.5-1-2.9-1.5-4.3c-0.1-0.4-0.3-0.7-0.4-1.1c-0.6-1.4-1.2-2.8-1.8-4.2
		c-0.4-0.9-0.8-1.8-1.3-2.6c-0.9-1.7-1.8-3.4-2.9-5.1c-1.8-2.9-3.7-5.8-5.9-8.6c-0.6-0.8-1.3-1.6-2-2.4c-0.2-0.3-0.5-0.6-0.8-0.9
		c-0.4-0.5-0.8-0.9-1.2-1.4c-0.3-0.4-0.7-0.7-1-1.1c-0.3-0.3-0.6-0.6-0.9-0.9c-2.9-2.9-5.9-5.6-9.1-8l0,0
		c-8.7-6.6-18.5-11.3-28.8-14c-0.5,0.3-1,0.5-1.4,0.7c-1.5-0.4-3-0.7-4.5-1c-8-1.5-16.2-1.8-24.4-0.9l-5.9,4.7l-1.1-0.1l0,0
		l52.8-41.7l7-5.5l43-33.9l83.5,105.9l0,0L740.8,126.7L740.8,126.7z"/>
</g>
<g class="st0">
	<g class="st2">
		<g>
			<rect x="252.7" y="12.8" class="st6" width="157.1" height="274.8"/>
		</g>
		<g>
			<path class="st6" d="M331.2,90.4c24.4,0,45.4,14.6,54.6,35.6V36.7H276.6V126C285.8,105.1,306.8,90.4,331.2,90.4z"/>
			<path class="st6" d="M331.2,209.9c-24.4,0-45.4-14.6-54.6-35.6v89.4h109.3v-89.4C376.6,195.2,355.6,209.9,331.2,209.9z"/>
		</g>
		<path class="st7" d="M336.2,142.1c-8.9-3.7-10.4-5.5-10.4-8.3c0-1.2,0.5-5.1,7.2-5.1c5.8,0,9.5,2.1,11,3l3.6,2.1l5.1-13.5
			l-2.6-1.5c-3.4-2-7.2-3.2-11.4-3.8v-10.1h-13.5v11c-9.4,2.6-15.3,9.9-15.3,19.2c0,11.8,9.6,17.2,19,20.9c7.7,3.1,9.2,5.7,9.2,8.8
			c0,3.8-3.4,6.4-8.5,6.4c-4.4,0-9.1-1.4-12.6-3.8l-3.8-2.5l-4.9,13.7l2.2,1.6c3.4,2.5,8.7,4.3,14,4.9v10.5h13.6v-11.3
			c9.7-2.7,16-10.5,16-20.1C354.1,151.1,344.5,145.5,336.2,142.1z"/>
		<g>
			<circle class="st8" cx="331.2" cy="67" r="3.9"/>
			<g>
				<circle class="st8" cx="331.2" cy="233.3" r="3.9"/>
			</g>
		</g>
	</g>
	<g class="st2">
		<g>
			<rect x="420" y="337.7" class="st6" width="157.1" height="274.8"/>
		</g>
		<g>
			<path class="st6" d="M498.6,415.4c24.4,0,45.4,14.6,54.6,35.6v-89.4H443.9V451C453.2,430,474.2,415.4,498.6,415.4z"/>
			<path class="st6" d="M498.6,534.8c-24.4,0-45.4-14.6-54.6-35.6v89.4h109.3v-89.4C543.9,520.2,523,534.8,498.6,534.8z"/>
		</g>
		<path class="st7" d="M503.5,467.1c-8.9-3.7-10.4-5.5-10.4-8.3c0-1.2,0.5-5.1,7.2-5.1c5.8,0,9.5,2.1,11,3l3.6,2.1l5.1-13.5
			l-2.6-1.5c-3.4-2-7.2-3.2-11.4-3.8v-10.1h-13.5v11c-9.4,2.6-15.3,9.9-15.3,19.2c0,11.8,9.6,17.2,19,20.9c7.7,3.1,9.2,5.7,9.2,8.8
			c0,3.8-3.4,6.4-8.5,6.4c-4.4,0-9.1-1.4-12.6-3.8l-3.8-2.5l-4.9,13.7l2.2,1.6c3.4,2.5,8.7,4.3,14,4.9v10.5h13.6v-11.3
			c9.7-2.7,16-10.5,16-20.1C521.5,476.1,511.9,470.5,503.5,467.1z"/>
		<g>
			<circle class="st8" cx="498.6" cy="392" r="3.9"/>
			<g>
				<circle class="st8" cx="498.6" cy="558.3" r="3.9"/>
			</g>
		</g>
	</g>
	<g class="st2">
		<g>
			<rect x="170.3" y="420.9" class="st6" width="157.1" height="274.8"/>
		</g>
		<g>
			<path class="st6" d="M248.8,498.6c24.4,0,45.4,14.6,54.6,35.6v-89.4H194.1v89.4C203.4,513.2,224.4,498.6,248.8,498.6z"/>
			<path class="st6" d="M248.8,618c-24.4,0-45.4-14.6-54.6-35.6v89.4h109.3v-89.4C294.2,603.4,273.2,618,248.8,618z"/>
		</g>
		<path class="st7" d="M253.8,550.3c-8.9-3.7-10.4-5.5-10.4-8.3c0-1.2,0.5-5.1,7.2-5.1c5.8,0,9.5,2.1,11,3l3.6,2.1l5.1-13.5
			l-2.6-1.5c-3.4-2-7.2-3.2-11.4-3.8V513h-13.5v11c-9.4,2.6-15.3,9.9-15.3,19.2c0,11.8,9.6,17.2,19,20.9c7.7,3.1,9.2,5.7,9.2,8.8
			c0,3.8-3.4,6.4-8.5,6.4c-4.4,0-9.1-1.4-12.6-3.8l-3.8-2.5l-4.9,13.7l2.2,1.6c3.4,2.5,8.7,4.3,14,4.9v10.5h13.6v-11.3
			c9.7-2.7,16-10.5,16-20.1C271.7,559.2,262.1,553.7,253.8,550.3z"/>
		<g>
			<circle class="st8" cx="248.8" cy="475.1" r="3.9"/>
			<g>
				<circle class="st8" cx="248.8" cy="641.4" r="3.9"/>
			</g>
		</g>
	</g>
	<g class="st2">
		<g>
			<rect x="451.8" y="712.5" class="st6" width="157.1" height="274.8"/>
		</g>
		<g>
			<path class="st6" d="M530.3,790.1c24.4,0,45.4,14.6,54.6,35.6v-89.4H475.6v89.4C484.9,804.8,505.9,790.1,530.3,790.1z"/>
			<path class="st6" d="M530.3,909.6c-24.4,0-45.4-14.6-54.6-35.6v89.4H585V874C575.7,894.9,554.7,909.6,530.3,909.6z"/>
		</g>
		<path class="st7" d="M535.3,841.8c-8.9-3.7-10.4-5.5-10.4-8.3c0-1.2,0.5-5.1,7.2-5.1c5.8,0,9.5,2.1,11,3l3.6,2.1l5.1-13.5
			l-2.6-1.5c-3.4-2-7.2-3.2-11.4-3.8v-10.1h-13.5v11c-9.4,2.6-15.3,9.9-15.3,19.2c0,11.8,9.6,17.2,19,20.9c7.7,3.1,9.2,5.7,9.2,8.8
			c0,3.8-3.4,6.4-8.5,6.4c-4.4,0-9.1-1.4-12.6-3.8l-3.8-2.5l-4.9,13.7l2.2,1.6c3.4,2.5,8.7,4.3,14,4.9v10.5h13.6V884
			c9.7-2.7,16-10.5,16-20.1C553.2,850.8,543.6,845.2,535.3,841.8z"/>
		<g>
			<circle class="st8" cx="530.3" cy="766.7" r="3.9"/>
			<g>
				<circle class="st8" cx="530.3" cy="933" r="3.9"/>
			</g>
		</g>
	</g>
	<g class="st2">
		<g>
			<rect x="672.7" y="420.9" class="st6" width="157.1" height="274.8"/>
		</g>
		<g>
			<path class="st6" d="M751.2,498.6c24.4,0,45.4,14.6,54.6,35.6v-89.4H696.6v89.4C705.8,513.2,726.8,498.6,751.2,498.6z"/>
			<path class="st6" d="M751.2,618c-24.4,0-45.4-14.6-54.6-35.6v89.4h109.3v-89.4C796.6,603.4,775.6,618,751.2,618z"/>
		</g>
		<path class="st7" d="M756.2,550.3c-8.9-3.7-10.4-5.5-10.4-8.3c0-1.2,0.5-5.1,7.2-5.1c5.8,0,9.5,2.1,11,3l3.6,2.1l5.1-13.5
			l-2.6-1.5c-3.4-2-7.2-3.2-11.4-3.8V513h-13.5v11c-9.4,2.6-15.3,9.9-15.3,19.2c0,11.8,9.6,17.2,19,20.9c7.7,3.1,9.2,5.7,9.2,8.8
			c0,3.8-3.4,6.4-8.5,6.4c-4.4,0-9.1-1.4-12.6-3.8l-3.8-2.5l-4.9,13.7l2.2,1.6c3.4,2.5,8.7,4.3,14,4.9v10.5h13.6v-11.3
			c9.7-2.7,16-10.5,16-20.1C774.1,559.2,764.5,553.7,756.2,550.3z"/>
		<g>
			<circle class="st8" cx="751.2" cy="475.1" r="3.9"/>
			<g>
				<circle class="st8" cx="751.2" cy="641.4" r="3.9"/>
			</g>
		</g>
	</g>
</g>
<g class="st0">
	<circle class="st9" cx="500" cy="500" r="475"/>
	<g class="st2">
		<path class="st10" d="M333.3,474.4c18.8,0,36.4,8.1,48.6,21.5v-63.3h-97.3V496C296.9,482.5,314.5,474.4,333.3,474.4z M333.3,447.1
			c5.4,0,9.9,4.4,9.9,9.9c0,5.4-4.4,9.9-9.9,9.9c-5.4,0-9.9-4.4-9.9-9.9C323.4,451.6,327.9,447.1,333.3,447.1z"/>
		<path class="st10" d="M391.9,126c0,2.8-2,5.3-4.8,5.9c-2.8,0.6-5.6-0.9-6.7-3.4c-8.6-19.5-27.9-32-49.2-32s-40.6,12.6-49.2,32
			c-1,2.2-3.2,3.6-5.5,3.6c-0.4,0-0.8,0-1.2-0.1c-2.8-0.6-4.8-3-4.8-5.9V84c-4,2.2-8,4.5-11.9,6.8v190.8h145.1V34.8
			c-4,0.8-7.9,1.7-11.9,2.6V126H391.9z M328.9,156c-9.4-3.7-19-9-19-20.9c0-9.3,5.9-16.6,15.3-19.2v-11h13.5V115
			c4.2,0.5,8,1.8,11.4,3.8l2.6,1.5l-5.1,13.5l-3.6-2.1c-1.6-0.9-5.2-3-11-3c-6.7,0-7.2,3.9-7.2,5.1c0,2.7,1.5,4.6,10.4,8.3
			c8.3,3.4,18,9,18,21.9c0,9.6-6.3,17.4-16,20.1v11.3h-13.6v-10.5c-5.3-0.6-10.6-2.4-14-4.9l-2.2-1.6l4.9-13.7l3.8,2.5
			c3.5,2.4,8.3,3.8,12.6,3.8c5.1,0,8.5-2.6,8.5-6.4C338.1,161.7,336.6,159.1,328.9,156z M391.9,263.7c0,3.3-2.7,6-6,6H276.6
			c-3.3,0-6-2.7-6-6v-89.4c0-2.8,2-5.3,4.8-5.9c2.8-0.6,5.6,0.9,6.7,3.4c8.6,19.5,27.9,32,49.2,32c21.3,0,40.6-12.6,49.2-32
			c1.1-2.6,3.9-4,6.7-3.4c2.8,0.6,4.8,3,4.8,5.9v89.4H391.9z"/>
		<path class="st10" d="M331.2,215.9c-18.8,0-36.4-8.1-48.6-21.5v63.3h97.3v-63.3C367.6,207.8,350,215.9,331.2,215.9z M331.2,243.2
			c-5.4,0-9.9-4.4-9.9-9.9c0-5.4,4.4-9.9,9.9-9.9c5.4,0,9.9,4.4,9.9,9.9S336.7,243.2,331.2,243.2z"/>
		<path class="st10" d="M624.1,695.2c18.8,0,36.4,8.1,48.6,21.5v-63.3h-97.3v63.3C587.7,703.3,605.2,695.2,624.1,695.2z
			 M624.1,667.9c5.4,0,9.9,4.4,9.9,9.9s-4.4,9.9-9.9,9.9s-9.9-4.4-9.9-9.9S618.6,667.9,624.1,667.9z"/>
		<path class="st10" d="M551.5,892.3h145.1V629.6H551.5V892.3z M563.4,647.4c0-3.3,2.7-6,6-6h109.3c3.3,0,6,2.7,6,6v89.4
			c0,2.8-2,5.3-4.8,5.9c-0.4,0.1-0.8,0.1-1.2,0.1c-2.3,0-4.5-1.4-5.5-3.6c-8.6-19.5-27.9-32-49.2-32s-40.6,12.6-49.2,32
			c-1.1,2.6-4,4-6.7,3.4c-2.8-0.6-4.8-3-4.8-5.9v-89.3H563.4z M603.3,790.8l-2.2-1.6l4.9-13.7l3.8,2.5c3.5,2.4,8.3,3.8,12.6,3.8
			c5.1,0,8.5-2.6,8.5-6.4c0-3-1.6-5.7-9.2-8.8c-9.4-3.7-19-9-19-20.9c0-9.3,5.9-16.6,15.3-19.2v-11h13.5v10.1
			c4.2,0.5,8,1.8,11.4,3.8l2.6,1.5l-5.1,13.5l-3.6-2.1c-1.6-0.9-5.2-3-11-3c-6.7,0-7.2,3.9-7.2,5.1c0,2.7,1.5,4.6,10.4,8.3
			c8.3,3.4,18,9,18,21.9c0,9.6-6.3,17.4-16,20.1V806h-13.6v-10.5C612,795.1,606.8,793.3,603.3,790.8z M563.4,785.1
			c0-2.8,2-5.3,4.8-5.9c2.8-0.6,5.6,0.9,6.7,3.4c8.6,19.5,27.9,32,49.2,32s40.6-12.6,49.2-32c1.1-2.6,3.9-4,6.7-3.4s4.8,3,4.8,5.9
			v89.4c0,3.3-2.7,6-6,6H569.4c-3.3,0-6-2.7-6-6V785.1z"/>
		<path class="st10" d="M672.7,805.1c-12.3,13.5-29.8,21.5-48.6,21.5s-36.4-8.1-48.6-21.5v63.3h97.3v-63.3H672.7z M624.1,854
			c-5.4,0-9.9-4.4-9.9-9.9s4.4-9.9,9.9-9.9s9.9,4.4,9.9,9.9S629.5,854,624.1,854z"/>
		<path class="st10" d="M614.2,275.6c18.8,0,36.4,8.1,48.6,21.5v-63.3h-97.3v63.3C577.8,283.7,595.4,275.6,614.2,275.6z
			 M614.2,248.3c5.4,0,9.9,4.4,9.9,9.9c0,5.4-4.4,9.9-9.9,9.9s-9.9-4.4-9.9-9.9C604.3,252.7,608.7,248.3,614.2,248.3z"/>
		<path class="st10" d="M282.6,106c12.3-13.5,29.8-21.5,48.6-21.5c18.8,0,36.4,8.1,48.6,21.5V42.7h-8.6c-31,8.7-60.7,20.5-88.7,34.9
			V106H282.6z M331.2,57.1c5.4,0,9.9,4.4,9.9,9.9c0,5.4-4.4,9.9-9.9,9.9c-5.4,0-9.9-4.4-9.9-9.9C321.3,61.5,325.8,57.1,331.2,57.1z"
			/>
		<path class="st10" d="M417.9,677.6c0,3.3-2.7,6-6,6H254.8c-3.3,0-6-2.7-6-6V402.8c0-3.3,2.7-6,6-6h157.1c3.3,0,6,2.7,6,6
			L417.9,677.6L417.9,677.6z M708.6,898.3c0,3.3-2.7,6-6,6H545.5c-3.3,0-6-2.7-6-6V623.6c0-3.3,2.7-6,6-6h157.1c3.3,0,6,2.7,6,6
			V898.3z M698.7,478.7c0,3.3-2.7,6-6,6H535.6c-3.3,0-6-2.7-6-6V203.9c0-3.3,2.7-6,6-6h157.1c3.3,0,6,2.7,6,6L698.7,478.7
			L698.7,478.7z"/>
		<path class="st10" d="M382,584.4c-12.3,13.5-29.8,21.5-48.6,21.5s-36.4-8.1-48.6-21.5v63.3H382V584.4z M333.3,633.2
			c-5.4,0-9.9-4.4-9.9-9.9s4.4-9.9,9.9-9.9c5.4,0,9.9,4.4,9.9,9.9S338.8,633.2,333.3,633.2z"/>
		<path class="st10" d="M260.8,671.6h145.1V408.8H260.8V671.6z M272.7,426.7c0-3.3,2.7-6,6-6H388c3.3,0,6,2.7,6,6V516
			c0,2.8-2,5.3-4.8,5.9c-2.8,0.6-5.6-0.8-6.7-3.4c-8.6-19.5-27.9-32-49.2-32s-40.6,12.6-49.2,32c-1,2.2-3.2,3.6-5.5,3.6
			c-0.4,0-0.8,0-1.2-0.1c-2.8-0.6-4.8-3-4.8-5.9v-89.4H272.7z M312.6,570l-2.2-1.6l4.9-13.7l3.8,2.5c3.5,2.4,8.3,3.8,12.6,3.8
			c5.1,0,8.5-2.6,8.5-6.4c0-3-1.6-5.7-9.2-8.8c-9.4-3.7-19-9-19-20.9c0-9.3,5.9-16.6,15.3-19.2v-11h13.5V505c4.2,0.5,8,1.8,11.4,3.8
			l2.6,1.5l-5.1,13.5l-3.6-2.1c-1.6-0.9-5.2-3-11-3c-6.7,0-7.2,3.9-7.2,5.1c0,2.7,1.5,4.6,10.4,8.3c8.3,3.4,18,9,18,21.9
			c0,9.6-6.3,17.4-16,20.1v11.3h-13.6v-10.5C321.3,574.3,316.1,572.5,312.6,570z M272.7,564.3c0-2.8,2-5.3,4.8-5.9
			c2.8-0.6,5.6,0.8,6.7,3.4c8.6,19.5,27.9,32,49.2,32c21.3,0,40.6-12.6,49.2-32c1.1-2.6,4-4,6.7-3.4c2.8,0.6,4.8,3,4.8,5.9v89.4
			c0,3.3-2.7,6-6,6H278.7c-3.3,0-6-2.7-6-6V564.3z"/>
		<path class="st10" d="M541.6,472.7h145.1V209.9H541.6V472.7z M553.5,227.8c0-3.3,2.7-6,6-6h109.3c3.3,0,6,2.7,6,6v89.4
			c0,2.8-2,5.3-4.8,5.9s-5.6-0.9-6.7-3.4c-8.6-19.5-27.9-32-49.2-32s-40.6,12.6-49.2,32c-1,2.2-3.1,3.6-5.5,3.6
			c-0.4,0-0.8,0-1.2-0.1c-2.8-0.6-4.8-3-4.8-5.9v-89.5H553.5z M593.5,371.2l-2.2-1.6l4.9-13.7l3.8,2.5c3.5,2.4,8.3,3.8,12.6,3.8
			c5.1,0,8.5-2.6,8.5-6.4c0-3-1.6-5.7-9.2-8.8c-9.4-3.7-19-9-19-20.9c0-9.3,5.9-16.6,15.3-19.2v-11h13.5V306c4.2,0.5,8,1.8,11.4,3.8
			l2.6,1.5l-5.1,13.5l-3.6-2.1c-1.6-0.9-5.2-3-11-3c-6.7,0-7.2,3.9-7.2,5.1c0,2.7,1.5,4.6,10.4,8.3c8.3,3.4,18,9,18,21.9
			c0,9.6-6.3,17.4-16,20.1v11.3h-13.6v-10.5C602.2,375.5,596.9,373.7,593.5,371.2z M553.5,365.5c0-2.8,2-5.3,4.8-5.9
			s5.6,0.9,6.7,3.4c8.6,19.5,27.9,32,49.2,32s40.6-12.6,49.2-32c1.1-2.6,4-4,6.7-3.4c2.8,0.6,4.8,3,4.8,5.9v89.4c0,3.3-2.7,6-6,6
			H559.5c-3.3,0-6-2.7-6-6V365.5z"/>
		<path class="st10" d="M662.8,385.5C650.5,399,633,407,614.2,407s-36.4-8.1-48.6-21.5v63.3h97.3v-63.3H662.8z M614.2,434.4
			c-5.4,0-9.9-4.4-9.9-9.9s4.4-9.9,9.9-9.9s9.9,4.4,9.9,9.9S619.6,434.4,614.2,434.4z"/>
		<path class="st7" d="M252.7,293.5h157.1c3.3,0,6-2.7,6-6v-255c-4,0.7-8,1.5-12,2.3v246.8H258.7V90.8c-4,2.4-8,4.8-12,7.3v189.4
			C246.7,290.9,249.4,293.5,252.7,293.5z"/>
		<path class="st7" d="M275.3,131.9c0.4,0.1,0.8,0.1,1.2,0.1c2.3,0,4.5-1.4,5.5-3.6c8.6-19.5,27.9-32,49.2-32s40.6,12.6,49.2,32
			c1.1,2.6,3.9,4,6.7,3.4c2.8-0.6,4.8-3,4.8-5.9V37.4c-6.9,1.6-13.8,3.4-20.6,5.3h8.6V106c-12.3-13.5-29.8-21.5-48.6-21.5
			c-18.8,0-36.4,8.1-48.6,21.5V77.6c-4,2.1-8,4.2-12,6.4v42C270.6,128.9,272.5,131.3,275.3,131.9z"/>
		<path class="st7" d="M387.1,168.4c-2.8-0.6-5.6,0.9-6.7,3.4c-8.6,19.5-27.9,32-49.2,32c-21.3,0-40.6-12.6-49.2-32
			c-1.1-2.6-4-4-6.7-3.4c-2.8,0.6-4.8,3-4.8,5.9v89.4c0,3.3,2.7,6,6,6h109.3c3.3,0,6-2.7,6-6v-89.4
			C391.9,171.4,389.9,169,387.1,168.4z M379.9,257.7h-97.3v-63.3c12.3,13.5,29.8,21.5,48.6,21.5c18.8,0,36.4-8.1,48.6-21.5v63.3
			H379.9z"/>
		<path class="st7" d="M329.6,171.1c-4.4,0-9.1-1.4-12.6-3.8l-3.8-2.5l-4.9,13.7l2.2,1.6c3.4,2.5,8.7,4.3,14,4.9v10.5h13.6v-11.3
			c9.7-2.7,16-10.5,16-20.1c0-12.9-9.6-18.5-18-21.9c-8.9-3.7-10.4-5.5-10.4-8.3c0-1.2,0.5-5.1,7.2-5.1c5.8,0,9.5,2.1,11,3l3.6,2.1
			l5.1-13.5l-2.6-1.5c-3.4-2-7.2-3.2-11.4-3.8V105h-13.5v11c-9.4,2.6-15.3,9.9-15.3,19.2c0,11.8,9.6,17.2,19,20.9
			c7.7,3.1,9.2,5.7,9.2,8.8C338.1,168.5,334.7,171.1,329.6,171.1z"/>
		<path class="st7" d="M331.2,76.9c5.4,0,9.9-4.4,9.9-9.9c0-5.4-4.4-9.9-9.9-9.9c-5.4,0-9.9,4.4-9.9,9.9
			C321.3,72.4,325.8,76.9,331.2,76.9z"/>
		<path class="st7" d="M331.2,223.4c-5.4,0-9.9,4.4-9.9,9.9c0,5.4,4.4,9.9,9.9,9.9c5.4,0,9.9-4.4,9.9-9.9
			C341.1,227.9,336.7,223.4,331.2,223.4z"/>
		<path class="st7" d="M702.6,617.6H545.5c-3.3,0-6,2.7-6,6v274.8c0,3.3,2.7,6,6,6h157.1c3.3,0,6-2.7,6-6V623.6
			C708.6,620.2,705.9,617.6,702.6,617.6z M696.6,892.3H551.5V629.6h145.1V892.3z"/>
		<path class="st7" d="M568.2,742.7c2.8,0.6,5.6-0.9,6.7-3.4c8.6-19.5,27.9-32,49.2-32s40.6,12.6,49.2,32c1,2.2,3.1,3.6,5.5,3.6
			c0.4,0,0.8,0,1.2-0.1c2.8-0.6,4.8-3,4.8-5.9v-89.4c0-3.3-2.7-6-6-6H569.4c-3.3,0-6,2.7-6,6v89.4
			C563.4,739.7,565.4,742.1,568.2,742.7z M575.4,653.4h97.3v63.3c-12.3-13.5-29.8-21.5-48.6-21.5s-36.4,8.1-48.6,21.5v-63.3H575.4z"
			/>
		<path class="st7" d="M569.4,880.5h109.3c3.3,0,6-2.7,6-6v-89.4c0-2.8-2-5.3-4.8-5.9c-2.8-0.6-5.6,0.9-6.7,3.4
			c-8.6,19.5-27.9,32-49.2,32s-40.6-12.6-49.2-32c-1.1-2.6-3.9-4-6.7-3.4s-4.8,3-4.8,5.9v89.4C563.4,877.8,566.1,880.5,569.4,880.5z
			 M575.4,805.1c12.3,13.5,29.8,21.5,48.6,21.5s36.4-8.1,48.6-21.5v63.3h-97.3v-63.3H575.4z"/>
		<path class="st7" d="M630.9,806.2v-11.3c9.7-2.7,16-10.5,16-20.1c0-12.9-9.6-18.5-18-21.9c-8.9-3.7-10.4-5.5-10.4-8.3
			c0-1.2,0.5-5.1,7.2-5.1c5.8,0,9.5,2.1,11,3l3.6,2.1l5.1-13.5l-2.6-1.5c-3.4-2-7.2-3.2-11.4-3.8v-10.1h-13.5v11
			c-9.4,2.6-15.3,9.9-15.3,19.2c0,11.8,9.6,17.2,19,20.9c7.7,3.1,9.2,5.7,9.2,8.8c0,3.8-3.4,6.4-8.5,6.4c-4.4,0-9.1-1.4-12.6-3.8
			l-3.8-2.5l-4.9,13.7l2.2,1.6c3.4,2.5,8.7,4.3,14,4.9v10.5h13.7V806.2z"/>
		<path class="st7" d="M624.1,687.7c5.4,0,9.9-4.4,9.9-9.9s-4.4-9.9-9.9-9.9s-9.9,4.4-9.9,9.9S618.6,687.7,624.1,687.7z"/>
		<path class="st7" d="M624.1,834.2c-5.4,0-9.9,4.4-9.9,9.9s4.4,9.9,9.9,9.9s9.9-4.4,9.9-9.9S629.5,834.2,624.1,834.2z"/>
		<path class="st7" d="M411.9,396.8H254.8c-3.3,0-6,2.7-6,6v274.8c0,3.3,2.7,6,6,6h157.1c3.3,0,6-2.7,6-6V402.8
			C417.9,399.5,415.2,396.8,411.9,396.8z M405.9,671.6H260.8V408.8h145.1V671.6z"/>
		<path class="st7" d="M277.4,521.9c0.4,0.1,0.8,0.1,1.2,0.1c2.3,0,4.5-1.4,5.5-3.6c8.6-19.5,27.9-32,49.2-32s40.6,12.6,49.2,32
			c1.1,2.6,4,4,6.7,3.4c2.8-0.6,4.8-3,4.8-5.9v-89.4c0-3.3-2.7-6-6-6H278.7c-3.3,0-6,2.7-6,6V516
			C272.7,518.9,274.7,521.3,277.4,521.9z M284.7,432.7H382V496c-12.3-13.5-29.8-21.5-48.6-21.5c-18.8,0-36.4,8.1-48.6,21.5
			L284.7,432.7L284.7,432.7z"/>
		<path class="st7" d="M278.7,659.7H388c3.3,0,6-2.7,6-6v-89.4c0-2.8-2-5.3-4.8-5.9c-2.8-0.6-5.6,0.8-6.7,3.4
			c-8.6,19.5-27.9,32-49.2,32c-21.3,0-40.6-12.6-49.2-32c-1.1-2.6-4-4-6.7-3.4c-2.8,0.6-4.8,3-4.8,5.9v89.4
			C272.7,657,275.4,659.7,278.7,659.7z M284.7,584.4c12.3,13.5,29.8,21.5,48.6,21.5s36.4-8.1,48.6-21.5v63.3h-97.3L284.7,584.4
			L284.7,584.4z"/>
		<path class="st7" d="M340.2,585.4v-11.3c9.7-2.7,16-10.5,16-20.1c0-12.9-9.6-18.5-18-21.9c-8.9-3.7-10.4-5.5-10.4-8.3
			c0-1.2,0.5-5.1,7.2-5.1c5.8,0,9.5,2.1,11,3l3.6,2.1l5.1-13.5l-2.6-1.5c-3.4-2-7.2-3.2-11.4-3.8v-10.1h-13.5v11
			c-9.4,2.6-15.3,9.9-15.3,19.2c0,11.8,9.6,17.2,19,20.9c7.7,3.1,9.2,5.7,9.2,8.8c0,3.8-3.4,6.4-8.5,6.4c-4.4,0-9.1-1.4-12.6-3.8
			l-3.8-2.5l-4.9,13.7l2.2,1.6c3.4,2.5,8.7,4.3,14,4.9v10.5h13.7V585.4z"/>
		<path class="st7" d="M333.3,466.9c5.4,0,9.9-4.4,9.9-9.9c0-5.4-4.4-9.9-9.9-9.9c-5.4,0-9.9,4.4-9.9,9.9
			C323.4,462.4,327.9,466.9,333.3,466.9z"/>
		<path class="st7" d="M333.3,613.4c-5.4,0-9.9,4.4-9.9,9.9s4.4,9.9,9.9,9.9c5.4,0,9.9-4.4,9.9-9.9S338.8,613.4,333.3,613.4z"/>
		<path class="st7" d="M692.7,197.9H535.6c-3.3,0-6,2.7-6,6v274.8c0,3.3,2.7,6,6,6h157.1c3.3,0,6-2.7,6-6V203.9
			C698.7,200.6,696,197.9,692.7,197.9z M686.7,472.7H541.6V209.9h145.1L686.7,472.7L686.7,472.7z"/>
		<path class="st7" d="M558.3,323.1c0.4,0.1,0.8,0.1,1.2,0.1c2.3,0,4.5-1.4,5.5-3.6c8.6-19.5,27.9-32,49.2-32s40.6,12.6,49.2,32
			c1.1,2.6,3.9,4,6.7,3.4s4.8-3,4.8-5.9v-89.4c0-3.3-2.7-6-6-6H559.5c-3.3,0-6,2.7-6,6v89.4C553.5,320,555.5,322.5,558.3,323.1z
			 M565.5,233.8h97.3v63.3c-12.3-13.5-29.8-21.5-48.6-21.5s-36.4,8.1-48.6,21.5v-63.3H565.5z"/>
		<path class="st7" d="M559.5,460.8h109.3c3.3,0,6-2.7,6-6v-89.4c0-2.8-2-5.3-4.8-5.9s-5.6,0.8-6.7,3.4c-8.6,19.5-27.9,32-49.2,32
			s-40.6-12.6-49.2-32c-1.1-2.6-3.9-4-6.7-3.4s-4.8,3-4.8,5.9v89.4C553.5,458.1,556.2,460.8,559.5,460.8z M565.5,385.5
			c12.3,13.5,29.8,21.5,48.6,21.5s36.4-8.1,48.6-21.5v63.3h-97.3v-63.3H565.5z"/>
		<path class="st7" d="M621.1,386.6v-11.3c9.7-2.7,16-10.5,16-20.1c0-12.9-9.6-18.5-18-21.9c-8.9-3.7-10.4-5.5-10.4-8.3
			c0-1.2,0.5-5.1,7.2-5.1c5.8,0,9.5,2.1,11,3l3.6,2.1l5.1-13.5L633,310c-3.4-2-7.2-3.2-11.4-3.8v-10.1h-13.5v11
			c-9.4,2.6-15.3,9.9-15.3,19.2c0,11.8,9.6,17.2,19,20.9c7.7,3.1,9.2,5.7,9.2,8.8c0,3.8-3.4,6.4-8.5,6.4c-4.4,0-9.1-1.4-12.6-3.8
			l-3.8-2.5l-4.9,13.7l2.2,1.6c3.4,2.5,8.7,4.3,14,4.9v10.5h13.7V386.6z"/>
		<path class="st7" d="M614.2,268.1c5.4,0,9.9-4.4,9.9-9.9c0-5.4-4.4-9.9-9.9-9.9s-9.9,4.4-9.9,9.9
			C604.3,263.6,608.7,268.1,614.2,268.1z"/>
		<path class="st7" d="M614.2,414.6c-5.4,0-9.9,4.4-9.9,9.9s4.4,9.9,9.9,9.9s9.9-4.4,9.9-9.9S619.6,414.6,614.2,414.6z"/>
	</g>
</g>
<g>
	<circle class="st11" cx="500" cy="500" r="475"/>
	<g>
		<circle class="st12" cx="621.1" cy="796.3" r="28.9"/>
		<line class="st12" x1="374.9" y1="767.4" x2="592.2" y2="796.3"/>
		<g>
			<circle class="st12" cx="182" cy="529.2" r="47.5"/>
			<circle class="st12" cx="818" cy="556.3" r="47.5"/>
			<circle class="st12" cx="297.4" cy="745.3" r="80.6"/>
			<circle class="st12" cx="730" cy="257.8" r="54.7"/>
			<circle class="st12" cx="387.4" cy="203.1" r="28.9"/>
			<line class="st12" x1="207.5" y1="489.1" x2="372.5" y2="226.7"/>
			<line class="st12" x1="407.4" y1="223.8" x2="784.5" y2="529.2"/>
			<line class="st12" x1="780.1" y1="585" x2="370.6" y2="711.6"/>
			<line class="st12" x1="416.3" y1="203.1" x2="675.2" y2="257.8"/>
			<line class="st12" x1="198.9" y1="573.6" x2="252.4" y2="678.4"/>
			<line class="st12" x1="730" y1="312.6" x2="642.6" y2="776.9"/>
			<line class="st12" x1="387.4" y1="232" x2="321.9" y2="668.5"/>
			<line class="st12" x1="229.5" y1="529.2" x2="698.2" y2="302.4"/>
		</g>
	</g>
</g>
<g class="st0">
	<circle class="st5" cx="500" cy="500" r="475"/>
	<g class="st2">
		<g>
			<path class="st6" d="M546.7,840V441.7c0-38.9-5.3-77.6-16.4-114.9c-47.1-158.6-149-144.6-149-144.6S318,350.8,516.2,398.6
				L400.9,218.7l57.2,89.3l2.3-60.7l-2.3,60.7l-57.7-13.8l57.7,13.8l26.7,41.7l6.6-34.9l-6.6,34.9l-46.4-7.2"/>
			<path class="st6" d="M546.7,708.7V563.4c0-38.9,5.3-77.6,16.4-114.9c47.1-158.6,149-144.6,149-144.6s63.3,168.7-134.9,216.5
				l115.3-179.9l-57.2,89.3l-2.3-60.7l2.3,60.7L693,416l-57.7,13.8l-26.7,41.7l-6.6-34.9l6.6,34.9l46.4-7.2"/>
		</g>
		<polyline class="st6" points="546.7,810.6 680.1,899.1 599.3,845.5 747.6,890 599.3,845.5 612.6,896.1 585.6,944.1 612.6,896.1 
			666.6,944.1 		"/>
		<polyline class="st6" points="546.7,770.1 497.1,857.1 444.2,872.1 396.6,885.6 455.4,868.9 441.6,924.6 452.1,944.1 		"/>
		<line class="st6" x1="371.7" y1="857.1" x2="444.2" y2="872.1"/>
		<polyline class="st6" points="537.6,959.1 497.1,926.1 497.1,857.1 		"/>
		<line class="st6" x1="523" y1="884.6" x2="501.6" y2="857.6"/>
		<line class="st6" x1="546.7" y1="770.1" x2="614.1" y2="810.6"/>
	</g>
	<path class="st9" d="M953.5,641.7c-41.7-21.4-89-33.5-139.2-33.5c-114,0-213.4,62.5-265.8,155.1c-37.9-16.9-79.9-26.3-124.1-26.3
		c-94.8,0-179.5,43.2-235.5,111.1"/>
</g>
</svg>
