<?xml version="1.0" encoding="utf-8"?>
<!-- Generator: Adobe Illustrator 21.0.2, SVG Export Plug-In . SVG Version: 6.00 Build 0)  -->
<svg version="1.1" id="Layer_1" xmlns="http://www.w3.org/2000/svg" xmlns:xlink="http://www.w3.org/1999/xlink" x="0px" y="0px"
	 viewBox="0 0 70 70" style="enable-background:new 0 0 70 70;" xml:space="preserve">
<style type="text/css">
	.st0{display:none;}
	.st1{display:inline;fill:#62AEC9;}
	.st2{fill:#340E30;}
	.st3{display:inline;fill:#340E30;}
	.st4{display:inline;fill:#B3B3B3;}
</style>
<g class="st0">
	<path class="st1" d="M44.9,46.9V35.1c-1,0.8-2.1,1.5-3.3,2c-0.1,0-0.2,0.1-0.3,0.1v5H29.8v-4.8c-1-0.4-1.8-0.8-2.6-1.3
		c-0.8-0.5-1.4-1-2.1-1.6V47H12.2L35,69l22.8-22.1H44.9z"/>
	<path class="st1" d="M25.6,28.7c0.1,0.2,0.1,0.4,0.2,0.5c0.3,0.7,0.7,1.4,1.3,2c0.6,0.6,1.2,1.2,2,1.7s1.6,0.9,2.5,1.2
		c0.6,0.2,1.2,0.3,1.8,0.4v4h4.2v-4.1c0.9-0.2,1.7-0.4,2.5-0.7c1.1-0.5,2.1-1.1,2.9-1.8c0.8-0.7,1.4-1.6,1.9-2.5c0,0,0-0.1,0.1-0.1
		c0.1-0.2,0.1-0.3,0.2-0.5c0.2-0.4,0.3-0.8,0.3-1.2c0.1-0.4,0.1-0.8,0.1-1.2c0-0.1,0-0.2,0-0.3c0-1.1-0.3-2-0.7-2.9
		c-0.1-0.2-0.2-0.4-0.3-0.6c-0.6-1-1.4-1.8-2.4-2.5c-0.9-0.7-1.9-1.3-3-1.7c-1-0.5-2.1-0.9-3.1-1.2l0,0c-0.6-0.2-1.3-0.4-1.9-0.7
		c-0.6-0.3-1.2-0.6-1.8-1c-0.5-0.4-0.9-0.8-1.3-1.2c-0.3-0.4-0.4-0.8-0.4-1.3s0.1-1,0.4-1.4c0.3-0.5,0.7-0.9,1.1-1.2
		c0.5-0.4,1-0.6,1.6-0.8C34.3,9.1,35,9,35.6,9c1.2,0,2.3,0.3,3,0.8c0.8,0.5,1.6,1.3,2.4,2.5l0,0c0.3,0.4,0.7,0.7,1.2,0.9
		c0.6,0.2,1.2,0.1,1.7-0.3c0.4-0.3,0.7-0.7,0.9-1.1c0.2-0.6,0.1-1.2-0.2-1.7c-0.4-0.6-0.8-1.2-1.3-1.7C43.1,8.1,43.1,8.1,43,8
		c-0.5-0.5-1-0.9-1.5-1.3c-0.6-0.5-1.4-0.9-2.2-1.2c-0.5-0.2-1-0.3-1.6-0.5V1.6V1h-4.2v0.6V5c-0.7,0.1-1.3,0.3-1.9,0.6
		c-1,0.4-1.8,1-2.6,1.6c-0.3,0.2-0.5,0.5-0.7,0.7c-0.5,0.5-0.8,1.1-1.1,1.7c-0.5,1-0.7,2-0.7,3.1c0,1.2,0.3,2.3,0.8,3.2
		c0.5,0.9,1.2,1.7,2.1,2.3c0.8,0.6,1.7,1.1,2.8,1.6c1,0.4,2.1,0.8,3.2,1.2c0.7,0.2,1.4,0.5,2.2,0.9c0.7,0.3,1.4,0.7,2,1.2
		c0.6,0.4,1.1,0.9,1.4,1.5c0.3,0.5,0.5,1,0.5,1.5c0,0.1,0,0.1,0,0.2c0,0.4-0.1,0.8-0.3,1.2c-0.1,0.1-0.1,0.2-0.2,0.3
		c-0.2,0.3-0.4,0.6-0.7,0.9c-0.2,0.2-0.4,0.4-0.6,0.5c-0.6,0.4-1.3,0.7-2,1c-0.8,0.2-1.5,0.3-2.3,0.3s-1.5-0.1-2.2-0.3
		c-0.7-0.2-1.3-0.5-1.8-0.8c-0.4-0.2-0.7-0.5-1-0.7c-0.1-0.1-0.2-0.2-0.3-0.3c-0.3-0.3-0.5-0.6-0.6-0.9c0-0.1-0.1-0.2-0.1-0.2
		c-0.2-0.4-0.5-0.8-0.8-1c-0.2-0.1-0.3-0.2-0.5-0.2c-0.5-0.1-1,0-1.5,0.2c-0.1,0-0.1,0.1-0.2,0.1c-0.4,0.3-0.7,0.7-0.8,1.1
		c0,0.2-0.1,0.4,0,0.5C25.5,28.2,25.6,28.5,25.6,28.7z"/>
</g>
<g>
	<path class="st2" d="M44.9,46.9V35.1c-1,0.8-2.1,1.5-3.3,2c-0.1,0-0.2,0.1-0.3,0.1v5H29.8v-4.8c-1-0.4-1.8-0.8-2.6-1.3
		c-0.8-0.5-1.4-1-2.1-1.6V47H12.2L35,69l22.8-22.1H44.9z"/>
	<path class="st2" d="M25.6,28.7c0.1,0.2,0.1,0.4,0.2,0.5c0.3,0.7,0.7,1.4,1.3,2c0.6,0.6,1.2,1.2,2,1.7s1.6,0.9,2.5,1.2
		c0.6,0.2,1.2,0.3,1.8,0.4v4h4.2v-4.1c0.9-0.2,1.7-0.4,2.5-0.7c1.1-0.5,2.1-1.1,2.9-1.8c0.8-0.7,1.4-1.6,1.9-2.5c0,0,0-0.1,0.1-0.1
		c0.1-0.2,0.1-0.3,0.2-0.5c0.2-0.4,0.3-0.8,0.3-1.2c0.1-0.4,0.1-0.8,0.1-1.2c0-0.1,0-0.2,0-0.3c0-1.1-0.3-2-0.7-2.9
		c-0.1-0.2-0.2-0.4-0.3-0.6c-0.6-1-1.4-1.8-2.4-2.5c-0.9-0.7-1.9-1.3-3-1.7c-1-0.5-2.1-0.9-3.1-1.2l0,0c-0.6-0.2-1.3-0.4-1.9-0.7
		c-0.6-0.3-1.2-0.6-1.8-1c-0.5-0.4-0.9-0.8-1.3-1.2c-0.3-0.4-0.4-0.8-0.4-1.3s0.1-1,0.4-1.4c0.3-0.5,0.7-0.9,1.1-1.2
		c0.5-0.4,1-0.6,1.6-0.8C34.3,9.1,35,9,35.6,9c1.2,0,2.3,0.3,3,0.8c0.8,0.5,1.6,1.3,2.4,2.5l0,0c0.3,0.4,0.7,0.7,1.2,0.9
		c0.6,0.2,1.2,0.1,1.7-0.3c0.4-0.3,0.7-0.7,0.9-1.1c0.2-0.6,0.1-1.2-0.2-1.7c-0.4-0.6-0.8-1.2-1.3-1.7C43.1,8.1,43.1,8.1,43,8
		c-0.5-0.5-1-0.9-1.5-1.3c-0.6-0.5-1.4-0.9-2.2-1.2c-0.5-0.2-1-0.3-1.6-0.5V1.6V1h-4.2v0.6V5c-0.7,0.1-1.3,0.3-1.9,0.6
		c-1,0.4-1.8,1-2.6,1.6c-0.3,0.2-0.5,0.5-0.7,0.7c-0.5,0.5-0.8,1.1-1.1,1.7c-0.5,1-0.7,2-0.7,3.1c0,1.2,0.3,2.3,0.8,3.2
		c0.5,0.9,1.2,1.7,2.1,2.3c0.8,0.6,1.7,1.1,2.8,1.6c1,0.4,2.1,0.8,3.2,1.2c0.7,0.2,1.4,0.5,2.2,0.9c0.7,0.3,1.4,0.7,2,1.2
		c0.6,0.4,1.1,0.9,1.4,1.5c0.3,0.5,0.5,1,0.5,1.5c0,0.1,0,0.1,0,0.2c0,0.4-0.1,0.8-0.3,1.2c-0.1,0.1-0.1,0.2-0.2,0.3
		c-0.2,0.3-0.4,0.6-0.7,0.9c-0.2,0.2-0.4,0.4-0.6,0.5c-0.6,0.4-1.3,0.7-2,1c-0.8,0.2-1.5,0.3-2.3,0.3s-1.5-0.1-2.2-0.3
		c-0.7-0.2-1.3-0.5-1.8-0.8c-0.4-0.2-0.7-0.5-1-0.7c-0.1-0.1-0.2-0.2-0.3-0.3c-0.3-0.3-0.5-0.6-0.6-0.9c0-0.1-0.1-0.2-0.1-0.2
		c-0.2-0.4-0.5-0.8-0.8-1c-0.2-0.1-0.3-0.2-0.5-0.2c-0.5-0.1-1,0-1.5,0.2c-0.1,0-0.1,0.1-0.2,0.1c-0.4,0.3-0.7,0.7-0.8,1.1
		c0,0.2-0.1,0.4,0,0.5C25.5,28.2,25.6,28.5,25.6,28.7z"/>
</g>
<g class="st0">
	<path class="st3" d="M173.2,201.1V36.2c-13.5,11-29,20.3-46.1,27.6c-1.2,0.5-2.3,1-3.5,1.4v69.4H-37.3V67
		c-13.3-4.9-25.7-10.9-37-18c-10.5-6.5-20.2-13.9-28.8-22.1V201H-283L35,510l318-308.9H173.2z"/>
	<path class="st3" d="M-95.8-53.1c0.7,2.4,1.7,5,2.9,7.6c4,9.8,10,19.2,17.9,28.1c7.7,8.7,17.1,16.5,27.8,23.1
		c10.5,6.5,22.4,11.9,35.4,16.1c8.2,2.6,16.9,4.6,25.8,5.9v55.8h58.5V26.8c12.2-2.1,23.8-5.4,34.6-10c15.6-6.6,29.1-15.3,40.2-25.7
		c10.9-10.2,19.6-22.2,26-35.6c0.2-0.5,0.5-0.9,0.7-1.4c1.1-2.3,2-4.7,2.9-7.1c2.1-5.6,3.6-11.3,4.7-17.1c1-5.6,1.5-11.3,1.6-17.1
		c0-1.4,0-2.9,0-4.3c-0.4-14.7-3.7-28.2-9.8-40.5c-1.4-2.8-3-5.6-4.7-8.3c-8.6-13.5-19.9-25.4-33.5-35.3
		c-12.9-9.4-27.1-17.5-42.4-24.3c-14.6-6.4-29.1-12.2-43.2-17.2l-0.5-0.2c-8.3-2.6-17.5-6-27.1-10.1c-9-3.8-17.4-8.4-25.1-13.8
		c-7.2-5-13.2-10.8-18-17.2c-3.7-4.9-5.4-10.8-5.4-18.1c0-7,1.8-13.4,5.4-19.4c4.2-6.9,9.3-12.6,15.7-17.4
		c6.5-4.9,14.1-8.7,22.5-11.3c8.6-2.7,17.3-4.1,26-4.1c17.4,0.4,31.8,3.9,42.6,10.6c11.4,7,22.7,18.5,33.4,34.3l0.2,0.3
		c4.3,6,10,10.1,16.5,12c7.9,2.3,16.1,0.7,23.2-4.3c5.7-4.1,9.7-9.3,11.9-15.5c2.8-8,1.6-16.4-3.4-23.7c-5.2-8.3-11.3-16.4-18-24.2
		c-1-1.2-2-2.3-3.1-3.5c-6.4-6.9-13.5-13.2-21.2-18.7c-9-6.5-19.3-12-30.5-16.3c-6.9-2.7-14.4-4.8-22.2-6.4V-432v-8H14v8v47.8
		c-9.2,1.9-18.2,4.7-26.8,8.4c-13.3,5.7-25.4,13.3-36.1,22.6c-3.7,3.2-7.2,6.7-10.4,10.3c-6.3,7.1-11.6,15-15.9,23.5
		c-6.6,13.3-10,27.7-10,42.9c0,16.7,3.7,31.8,11,44.7c7,12.4,16.7,23.2,29,32.4c11.3,8.4,24.4,16,38.9,22.3
		c13.9,6.1,29,11.8,45,16.8c9.7,3,20.1,7,30.7,12c10.3,4.8,19.8,10.4,28.3,16.8c8,6,14.7,12.8,19.9,20.3c4.5,6.5,6.8,13.4,7,21
		c0,1,0,1.9,0,2.8c-0.1,6.1-1.3,11.8-3.7,17.1c-0.7,1.5-1.4,3-2.2,4.5c-2.7,4.7-5.9,8.8-9.6,12.6c-2.7,2.8-5.7,5.3-8.9,7.6
		C92-39.8,82.6-35.3,72.3-32.2C61.8-29,51-27.4,40.1-27.4c-11.2,0-21.5-1.5-30.8-4.4c-9.5-3-18-6.8-25.3-11.3
		c-5-3.1-9.4-6.5-13.3-10.1c-1.6-1.5-3.1-3-4.5-4.6c-3.6-4.1-6.4-8.2-8.5-12.5c-0.5-1.1-1-2.2-1.5-3.3c-2.3-6-6.3-10.7-11.7-13.7
		c-2.2-1.3-4.7-2.2-7.4-2.9c-7.1-1.7-14.3-0.6-20.6,2.9c-0.8,0.4-1.5,0.9-2.2,1.4c-6,3.9-10,9.4-11.5,15.7c-0.6,2.4-0.8,4.9-0.6,7.5
		C-97.5-59.6-96.9-56.4-95.8-53.1z"/>
</g>
<g class="st0">
	<path class="st4" d="M173.2,201.1V36.2c-13.5,11-29,20.3-46.1,27.6c-1.2,0.5-2.3,1-3.5,1.4v69.4H-37.3V67
		c-13.3-4.9-25.7-10.9-37-18c-10.5-6.5-20.2-13.9-28.8-22.1V201H-283L35,510l318-308.9H173.2z"/>
	<path class="st4" d="M-95.8-53.1c0.7,2.4,1.7,5,2.9,7.6c4,9.8,10,19.2,17.9,28.1c7.7,8.7,17.1,16.5,27.8,23.1
		c10.5,6.5,22.4,11.9,35.4,16.1c8.2,2.6,16.9,4.6,25.8,5.9v55.8h58.5V26.8c12.2-2.1,23.8-5.4,34.6-10c15.6-6.6,29.1-15.3,40.2-25.7
		c10.9-10.2,19.6-22.2,26-35.6c0.2-0.5,0.5-0.9,0.7-1.4c1.1-2.3,2-4.7,2.9-7.1c2.1-5.6,3.6-11.3,4.7-17.1c1-5.6,1.5-11.3,1.6-17.1
		c0-1.4,0-2.9,0-4.3c-0.4-14.7-3.7-28.2-9.8-40.5c-1.4-2.8-3-5.6-4.7-8.3c-8.6-13.5-19.9-25.4-33.5-35.3
		c-12.9-9.4-27.1-17.5-42.4-24.3c-14.6-6.4-29.1-12.2-43.2-17.2l-0.5-0.2c-8.3-2.6-17.5-6-27.1-10.1c-9-3.8-17.4-8.4-25.1-13.8
		c-7.2-5-13.2-10.8-18-17.2c-3.7-4.9-5.4-10.8-5.4-18.1c0-7,1.8-13.4,5.4-19.4c4.2-6.9,9.3-12.6,15.7-17.4
		c6.5-4.9,14.1-8.7,22.5-11.3c8.6-2.7,17.3-4.1,26-4.1c17.4,0.4,31.8,3.9,42.6,10.6c11.4,7,22.7,18.5,33.4,34.3l0.2,0.3
		c4.3,6,10,10.1,16.5,12c7.9,2.3,16.1,0.7,23.2-4.3c5.7-4.1,9.7-9.3,11.9-15.5c2.8-8,1.6-16.4-3.4-23.7c-5.2-8.3-11.3-16.4-18-24.2
		c-1-1.2-2-2.3-3.1-3.5c-6.4-6.9-13.5-13.2-21.2-18.7c-9-6.5-19.3-12-30.5-16.3c-6.9-2.7-14.4-4.8-22.2-6.4V-432v-8H14v8v47.8
		c-9.2,1.9-18.2,4.7-26.8,8.4c-13.3,5.7-25.4,13.3-36.1,22.6c-3.7,3.2-7.2,6.7-10.4,10.3c-6.3,7.1-11.6,15-15.9,23.5
		c-6.6,13.3-10,27.7-10,42.9c0,16.7,3.7,31.8,11,44.7c7,12.4,16.7,23.2,29,32.4c11.3,8.4,24.4,16,38.9,22.3
		c13.9,6.1,29,11.8,45,16.8c9.7,3,20.1,7,30.7,12c10.3,4.8,19.8,10.4,28.3,16.8c8,6,14.7,12.8,19.9,20.3c4.5,6.5,6.8,13.4,7,21
		c0,1,0,1.9,0,2.8c-0.1,6.1-1.3,11.8-3.7,17.1c-0.7,1.5-1.4,3-2.2,4.5c-2.7,4.7-5.9,8.8-9.6,12.6c-2.7,2.8-5.7,5.3-8.9,7.6
		C92-39.8,82.6-35.3,72.3-32.2C61.8-29,51-27.4,40.1-27.4c-11.2,0-21.5-1.5-30.8-4.4c-9.5-3-18-6.8-25.3-11.3
		c-5-3.1-9.4-6.5-13.3-10.1c-1.6-1.5-3.1-3-4.5-4.6c-3.6-4.1-6.4-8.2-8.5-12.5c-0.5-1.1-1-2.2-1.5-3.3c-2.3-6-6.3-10.7-11.7-13.7
		c-2.2-1.3-4.7-2.2-7.4-2.9c-7.1-1.7-14.3-0.6-20.6,2.9c-0.8,0.4-1.5,0.9-2.2,1.4c-6,3.9-10,9.4-11.5,15.7c-0.6,2.4-0.8,4.9-0.6,7.5
		C-97.5-59.6-96.9-56.4-95.8-53.1z"/>
</g>
</svg>
