<?xml version="1.0" encoding="utf-8"?>
<!-- Generator: Adobe Illustrator 21.0.2, SVG Export Plug-In . SVG Version: 6.00 Build 0)  -->
<svg version="1.1" id="Layer_1" xmlns="http://www.w3.org/2000/svg" xmlns:xlink="http://www.w3.org/1999/xlink" x="0px" y="0px"
	 viewBox="0 0 52 80" style="enable-background:new 0 0 52 80;" xml:space="preserve">
<style type="text/css">
	.st0{display:none;fill:#62AEC9;}
	.st1{fill:#340E30;}
	.st2{display:none;}
	.st3{display:inline;fill:none;stroke:#340E30;stroke-width:40;stroke-linejoin:round;stroke-miterlimit:10;}
</style>
<circle class="st0" cx="26" cy="40" r="485"/>
<path class="st1" d="M46,41.2c-2.5-3.3-5.9-6-9.6-7.7c4.6-3.3,7.5-8.7,7.5-14.5C43.9,9.1,35.8,1,26,1C16.1,1,8,9.1,8,19
	c0,5.8,2.8,11.2,7.5,14.5c-3.8,1.7-7.1,4.4-9.6,7.7c-3.4,4.4-5.2,9.7-5.2,15.3v13c0,5.3,4.3,9.6,9.6,9.6h31.4c5.3,0,9.6-4.3,9.6-9.6
	v-13C51.2,50.9,49.4,45.6,46,41.2z M11.4,19c0-8,6.5-14.6,14.6-14.6S40.6,10.9,40.6,19c0,5.8-3.4,11-8.7,13.4
	c-0.3,0.1-0.5,0.3-0.6,0.5l0,0L26,39.5l-5.3-6.7l0,0c-0.2-0.2-0.4-0.4-0.6-0.5C14.8,30,11.4,24.7,11.4,19z M4,69.5v-13
	c0-9.3,6-17.7,14.8-20.7l5.5,7v33h-14C6.8,75.7,4,72.9,4,69.5z M47.9,69.5c0,3.4-2.8,6.3-6.3,6.3h-14v-33l5.5-7
	c8.8,3,14.8,11.4,14.8,20.7V69.5z"/>
<g class="st2">
	<path class="st3" d="M105.3-35.1c68.9-30.5,117-99.4,117-179.6C222.3-323.1,134.4-411,26-411s-196.3,87.9-196.3,196.3
		c0,80.2,48.1,149.2,117,179.6C-172.1-0.8-259,108.8-259,238.7v156.9c0,52.8,42.8,95.5,95.5,95.5h378.9c52.8,0,95.5-42.8,95.5-95.5
		V238.7C311,108.8,224.1-0.8,105.3-35.1z"/>
	<polyline class="st3" points="26,491.1 26,65.3 105.3,-35.1 	"/>
	<line class="st3" x1="-53.3" y1="-35.1" x2="26" y2="65.3"/>
</g>
</svg>
