<?xml version="1.0" encoding="utf-8"?>
<!-- Generator: Adobe Illustrator 21.0.2, SVG Export Plug-In . SVG Version: 6.00 Build 0)  -->
<svg version="1.1" id="Layer_1" xmlns="http://www.w3.org/2000/svg" xmlns:xlink="http://www.w3.org/1999/xlink" x="0px" y="0px"
	 viewBox="0 0 650 1000" style="enable-background:new 0 0 650 1000;" xml:space="preserve">
<style type="text/css">
	.st0{display:none;fill:#62AEC9;}
	.st1{fill:none;stroke:#340E30;stroke-width:40;stroke-linejoin:round;stroke-miterlimit:10;}
</style>
<circle class="st0" cx="325" cy="500" r="485"/>
<g>
	<path class="st1" d="M404.3,424.9c68.9-30.5,117-99.4,117-179.6c0-108.4-87.9-196.3-196.3-196.3s-196.3,87.9-196.3,196.3
		c0,80.2,48.1,149.2,117,179.6C126.9,459.2,40,568.8,40,698.7v156.9c0,52.8,42.8,95.5,95.5,95.5h378.9c52.8,0,95.5-42.8,95.5-95.5
		V698.7C610,568.8,523.1,459.2,404.3,424.9z"/>
	<polyline class="st1" points="325,951.1 325,525.3 404.3,424.9 	"/>
	<line class="st1" x1="245.7" y1="424.9" x2="325" y2="525.3"/>
</g>
</svg>
