<?xml version="1.0" encoding="utf-8"?>
<!-- Generator: Adobe Illustrator 21.0.2, SVG Export Plug-In . SVG Version: 6.00 Build 0)  -->
<svg version="1.1" id="Layer_1" xmlns="http://www.w3.org/2000/svg" xmlns:xlink="http://www.w3.org/1999/xlink" x="0px" y="0px"
	 viewBox="0 0 52 80" style="enable-background:new 0 0 52 80;" xml:space="preserve">
<style type="text/css">
	.st0{display:none;fill:#62AEC9;}
	.st1{display:none;}
	.st2{display:inline;fill:none;stroke:#62AEC9;stroke-width:40;stroke-linejoin:round;stroke-miterlimit:10;}
	.st3{fill:#62AEC9;}
	.st4{display:inline;fill:#62AEC9;}
	.st5{font-family:'LemonMilk';}
	.st6{font-size:14px;}
	.st7{font-size:33px;}
	.st8{display:none;fill:none;stroke:#000000;stroke-width:3;stroke-miterlimit:10;}
	.st9{fill:none;stroke:#62AEC9;stroke-width:3;stroke-miterlimit:10;}
</style>
<circle class="st0" cx="26" cy="40" r="485"/>
<path class="st0" d="M46.1,41.1c-2.5-3.3-5.9-6-9.6-7.7c4.6-3.3,7.5-8.7,7.5-14.5c0-4.8-1.9-9.3-5.2-12.7C35.3,2.9,30.8,1,26,1
	s-9.3,1.9-12.7,5.2C10,9.6,8.1,14.1,8.1,18.9c0,5.8,2.8,11.2,7.5,14.5c-3.8,1.7-7.1,4.4-9.6,7.7c-3.4,4.4-5.2,9.7-5.2,15.3v13
	c0,5.3,4.3,9.6,9.6,9.6h31.4c5.3,0,9.6-4.3,9.6-9.6v-13C51.2,50.9,49.5,45.6,46.1,41.1z M11.4,18.9c0-8,6.5-14.6,14.6-14.6
	s14.6,6.5,14.6,14.6c0,5.8-3.4,11-8.7,13.4c-0.3,0.1-0.5,0.3-0.6,0.5l0,0L26,39.4l-5.3-6.7l0,0c-0.2-0.2-0.4-0.4-0.6-0.5
	C14.8,29.9,11.4,24.7,11.4,18.9z M4.1,69.4v-13c0-9.3,6-17.7,14.8-20.7l5.5,7v33h-14C6.9,75.7,4.1,72.9,4.1,69.4z M47.9,69.4
	c0,3.4-2.8,6.3-6.3,6.3h-14v-33l5.5-7c8.8,3,14.8,11.4,14.8,20.7V69.4z"/>
<g class="st1">
	<path class="st2" d="M105.3-35.1c68.9-30.5,117-99.4,117-179.6C222.3-323.1,134.4-411,26-411s-196.3,87.9-196.3,196.3
		c0,80.2,48.1,149.2,117,179.6C-172.1-0.8-259,108.8-259,238.7v156.9c0,52.8,42.8,95.5,95.5,95.5h378.9c52.8,0,95.5-42.8,95.5-95.5
		V238.7C311,108.8,224.1-0.8,105.3-35.1z"/>
	<polyline class="st2" points="26,491.1 26,65.3 105.3,-35.1 	"/>
	<line class="st2" x1="-53.3" y1="-35.1" x2="26" y2="65.3"/>
</g>
<g>
	<g>
		<path class="st3" d="M9.5,34.3h6v30h-6V34.3z"/>
		<path class="st3" d="M36.5,50.9V34.3h6v30.6l-18-17.2v16.6h-6V33.8L36.5,50.9z"/>
	</g>
	<g>
		<path class="st3" d="M11.9,15.2v9.7h4.8v2.4H9.5V15.2H11.9z"/>
		<path class="st3" d="M27.8,16.9c1.2,1.2,1.8,2.6,1.8,4.3s-0.6,3.1-1.8,4.3c-1.2,1.2-2.6,1.8-4.3,1.8c-1.7,0-3.1-0.6-4.3-1.8
			c-1.2-1.2-1.8-2.6-1.8-4.3s0.6-3.1,1.8-4.3c1.2-1.2,2.6-1.8,4.3-1.8C25.2,15.1,26.6,15.7,27.8,16.9z M20.9,18.6
			c-0.7,0.7-1.1,1.6-1.1,2.6c0,1,0.4,1.9,1.1,2.6c0.7,0.7,1.6,1.1,2.6,1.1c1,0,1.9-0.4,2.6-1.1c0.7-0.7,1.1-1.6,1.1-2.6
			c0-1-0.4-1.9-1.1-2.6c-0.7-0.7-1.6-1.1-2.6-1.1C22.5,17.6,21.6,17.9,20.9,18.6z"/>
		<path class="st3" d="M36.4,15.1c0.8,0,1.6,0.2,2.4,0.5c0.7,0.3,1.4,0.8,2,1.3L39,18.7c-0.7-0.7-1.6-1.1-2.6-1.1
			c-1,0-1.9,0.4-2.6,1.1c-0.7,0.7-1.1,1.6-1.1,2.6c0,1,0.4,1.9,1.1,2.6c0.7,0.7,1.6,1.1,2.6,1.1c0.8,0,1.5-0.2,2.1-0.7
			c0.6-0.5,1.1-1,1.3-1.8h-3.5V20h3.5h1.4h1.1c0.1,0.4,0.1,0.8,0.1,1.2c0,1.7-0.6,3.1-1.8,4.3s-2.6,1.8-4.3,1.8
			c-1.7,0-3.1-0.6-4.3-1.8c-1.2-1.2-1.8-2.6-1.8-4.3s0.6-3.1,1.8-4.3C33.2,15.7,34.7,15.1,36.4,15.1L36.4,15.1z"/>
	</g>
</g>
<text transform="matrix(1 0 0 1 9.8589 31)" class="st1"><tspan x="0" y="0" class="st4 st5 st6">LOG</tspan><tspan x="-0.2" y="30" class="st4 st5 st7">IN</tspan></text>
<rect class="st8" width="52" height="80"/>
<path class="st9" d="M3,68.8V11.3C3,6.7,6.7,3,11.3,3h29.5c4.6,0,8.3,3.7,8.3,8.3v57.5c0,4.6-3.7,8.3-8.3,8.3H11.3
	C6.7,77,3,73.3,3,68.8z"/>
</svg>
